{"glyphs":{"0":{"ha":757,"x_min":50,"x_max":735,"o":"m 457 961 q 223 866 314 961 q 91 625 132 771 q 50 322 50 479 q 121 63 50 151 q 328 -25 192 -25 q 561 71 469 -25 q 694 313 653 167 q 735 615 735 460 q 664 872 735 783 q 457 961 593 961 m 444 788 q 492 763 476 788 q 508 676 508 738 q 489 444 508 568 q 432 235 469 321 q 340 149 394 149 q 292 174 308 149 q 276 261 276 200 q 295 490 276 367 q 352 701 314 614 q 444 788 390 788 z "},"1":{"ha":594,"x_min":50,"x_max":578,"o":"m 578 942 l 447 0 l 222 0 l 318 699 l 129 583 l 50 746 l 371 942 l 578 942 z "},"2":{"ha":649,"x_min":-24,"x_max":647,"o":"m 371 961 q 576 893 504 961 q 647 718 647 825 q 611 567 647 642 q 490 399 575 492 q 254 178 404 307 l 590 181 l 542 0 l -24 0 l -3 168 q 247 415 163 325 q 369 570 331 504 q 408 697 408 636 q 387 760 408 738 q 329 782 365 782 q 253 760 289 782 q 171 689 217 738 l 50 801 q 194 920 115 879 q 371 961 272 961 z "},"3":{"ha":653,"x_min":-58,"x_max":639,"o":"m 371 961 q 568 899 497 961 q 639 739 639 836 q 585 587 639 650 q 419 496 531 524 q 553 440 504 486 q 603 310 603 394 q 559 148 603 225 q 430 23 515 71 q 228 -25 344 -25 q -58 122 42 -25 l 81 236 q 149 172 114 192 q 228 153 183 153 q 327 197 288 153 q 367 317 367 240 q 256 411 367 411 l 183 411 l 232 572 l 278 572 q 376 610 342 572 q 410 707 410 649 q 325 788 410 788 q 156 708 242 788 l 57 836 q 205 930 128 899 q 371 961 282 961 z "},"4":{"ha":719,"x_min":1,"x_max":700,"o":"m 700 374 l 675 197 l 588 197 l 560 0 l 336 0 l 363 197 l 1 197 l 24 354 l 339 967 l 529 896 l 271 374 l 389 374 l 446 590 l 642 590 l 611 374 l 700 374 z "},"5":{"ha":682,"x_min":-26,"x_max":685,"o":"m 638 774 l 342 774 l 315 589 q 442 621 378 621 q 589 557 533 621 q 644 375 644 493 q 600 181 644 272 q 466 32 556 89 q 250 -25 376 -25 q -26 121 68 -25 l 114 235 q 178 173 144 194 q 256 151 211 151 q 369 213 331 151 q 408 363 408 275 q 329 460 408 460 q 280 452 304 460 q 226 426 256 444 l 72 426 l 144 942 l 685 942 l 638 774 z "},"6":{"ha":724,"x_min":44,"x_max":706,"o":"m 493 636 q 642 572 588 636 q 697 390 697 507 q 657 191 697 286 q 534 35 617 96 q 333 -25 451 -25 q 116 59 188 -25 q 44 300 44 143 q 101 620 44 468 q 265 867 158 772 q 513 961 371 961 q 706 897 625 961 l 606 764 q 506 794 560 794 q 392 735 442 794 q 313 558 342 675 q 493 636 394 636 m 343 143 q 436 224 406 143 q 467 393 467 306 q 452 458 467 439 q 408 476 438 476 q 290 407 353 476 q 278 253 278 306 q 294 168 278 193 q 343 143 310 143 z "},"7":{"ha":588,"x_min":22,"x_max":654,"o":"m 654 940 l 632 782 l 222 -24 l 22 47 l 390 764 l 64 764 l 89 940 l 654 940 z "},"8":{"ha":736,"x_min":10,"x_max":728,"o":"m 557 503 q 660 409 628 461 q 693 292 693 357 q 646 127 693 199 q 513 15 599 56 q 314 -25 426 -25 q 148 8 217 -25 q 44 97 79 40 q 10 224 10 154 q 58 373 10 306 q 204 485 106 440 q 107 669 107 558 q 147 817 107 750 q 264 922 188 883 q 444 961 340 961 q 651 903 574 961 q 728 744 728 844 q 688 613 728 674 q 557 503 649 553 m 432 804 q 353 765 378 804 q 329 674 329 726 q 345 616 329 639 q 399 574 361 593 l 418 565 q 486 642 467 601 q 506 728 506 682 q 432 804 506 804 m 335 143 q 431 184 397 143 q 464 288 464 225 q 443 353 464 328 q 368 403 422 378 l 335 417 q 263 335 285 382 q 240 238 240 288 q 265 167 240 192 q 335 143 289 143 z "},"9":{"ha":719,"x_min":43,"x_max":722,"o":"m 429 961 q 647 883 572 961 q 722 668 722 804 q 568 215 722 406 q 74 -42 414 24 l 43 122 q 303 228 213 167 q 444 404 394 290 q 361 343 403 363 q 267 324 319 324 q 117 391 175 324 q 58 574 58 458 q 101 763 58 674 q 227 906 143 851 q 429 961 311 961 m 292 582 q 357 485 292 485 q 478 564 417 485 q 488 697 488 643 q 471 774 488 751 q 417 797 454 797 q 322 730 353 797 q 292 582 292 663 z "},"\r":{"ha":265,"x_min":0,"x_max":0,"o":""}," ":{"ha":265,"x_min":0,"x_max":0,"o":""},"A":{"ha":747,"x_min":-75,"x_max":717,"o":"m 465 0 l 456 201 l 239 201 l 176 0 l -75 0 l 311 964 l 601 964 l 717 0 l 465 0 m 294 376 l 447 376 l 428 803 l 294 376 z "},"Á":{"ha":747,"x_min":-75,"x_max":717,"o":"m 465 0 l 456 201 l 239 201 l 176 0 l -75 0 l 311 964 l 601 964 l 717 0 l 465 0 m 294 376 l 447 376 l 428 803 l 294 376 m 611 1325 l 686 1154 l 363 1035 l 311 1147 l 611 1325 z "},"Ă":{"ha":747,"x_min":-75,"x_max":722,"o":"m 465 0 l 456 201 l 239 201 l 176 0 l -75 0 l 311 964 l 601 964 l 717 0 l 465 0 m 294 376 l 447 376 l 428 803 l 294 376 m 471 1040 q 319 1110 368 1040 q 276 1278 269 1179 l 397 1296 q 422 1228 400 1254 q 483 1203 444 1203 q 599 1300 560 1203 l 722 1274 q 637 1107 701 1174 q 471 1040 572 1040 z "},"Ắ":{"ha":747,"x_min":-75,"x_max":738,"o":"m 738 1456 l 499 1253 l 419 1328 l 626 1575 l 738 1456 m 483 1185 q 599 1282 560 1185 l 722 1256 q 637 1089 701 1156 q 471 1022 572 1022 q 319 1092 368 1022 q 276 1260 269 1161 l 397 1278 q 422 1210 400 1236 q 483 1185 444 1185 m 311 964 l 601 964 l 717 0 l 465 0 l 456 201 l 239 201 l 176 0 l -75 0 l 311 964 m 294 376 l 447 376 l 428 803 l 294 376 z "},"Ặ":{"ha":747,"x_min":-75,"x_max":722,"o":"m 465 0 l 456 201 l 239 201 l 176 0 l -75 0 l 311 964 l 601 964 l 717 0 l 465 0 m 294 376 l 447 376 l 428 803 l 294 376 m 471 1040 q 319 1110 368 1040 q 276 1278 269 1179 l 397 1296 q 422 1228 400 1254 q 483 1203 444 1203 q 599 1300 560 1203 l 722 1274 q 637 1107 701 1174 q 471 1040 572 1040 m 303 -81 q 390 -112 358 -81 q 422 -194 422 -143 q 379 -301 422 -258 q 274 -343 336 -343 q 186 -312 218 -343 q 154 -229 154 -281 q 197 -123 154 -165 q 303 -81 240 -81 z "},"Ằ":{"ha":747,"x_min":-75,"x_max":724,"o":"m 578 1321 l 482 1253 l 301 1464 l 440 1572 l 578 1321 m 472 1022 q 320 1092 369 1022 q 278 1260 271 1161 l 399 1278 q 424 1210 401 1236 q 485 1185 446 1185 q 600 1282 561 1185 l 724 1256 q 638 1089 703 1156 q 472 1022 574 1022 m 311 964 l 601 964 l 717 0 l 465 0 l 456 201 l 239 201 l 176 0 l -75 0 l 311 964 m 294 376 l 447 376 l 428 803 l 294 376 z "},"Ẳ":{"ha":747,"x_min":-75,"x_max":725,"o":"m 465 0 l 456 201 l 239 201 l 176 0 l -75 0 l 311 964 l 601 964 l 717 0 l 465 0 m 294 376 l 447 376 l 428 803 l 294 376 m 474 1022 q 322 1092 371 1022 q 279 1260 272 1161 l 400 1278 q 425 1210 403 1236 q 486 1185 447 1185 q 601 1282 563 1185 l 725 1256 q 640 1089 704 1156 q 474 1022 575 1022 m 446 1392 q 519 1408 496 1394 q 542 1451 542 1422 q 500 1486 542 1486 q 465 1481 481 1486 q 425 1467 449 1476 l 401 1564 q 540 1599 464 1599 q 654 1562 614 1599 q 694 1467 694 1525 q 661 1372 694 1408 q 568 1324 628 1336 l 561 1267 l 432 1267 l 446 1392 z "},"Ẵ":{"ha":747,"x_min":-75,"x_max":765,"o":"m 443 1375 q 406 1361 422 1375 q 369 1318 390 1347 l 269 1372 q 353 1484 304 1440 q 456 1528 401 1528 q 503 1519 483 1528 q 546 1494 522 1510 q 594 1472 575 1472 q 628 1485 613 1472 q 664 1526 643 1497 l 765 1475 q 681 1362 731 1406 q 579 1318 632 1318 q 538 1326 557 1318 q 494 1351 519 1335 q 466 1369 478 1364 q 443 1375 454 1375 m 481 1185 q 596 1282 557 1185 l 719 1256 q 634 1089 699 1156 q 468 1022 569 1022 q 316 1092 365 1022 q 274 1260 267 1161 l 394 1278 q 419 1210 397 1236 q 481 1185 442 1185 m 311 964 l 601 964 l 717 0 l 465 0 l 456 201 l 239 201 l 176 0 l -75 0 l 311 964 m 294 376 l 447 376 l 428 803 l 294 376 z "},"Ǎ":{"ha":747,"x_min":-75,"x_max":742,"o":"m 465 0 l 456 201 l 239 201 l 176 0 l -75 0 l 311 964 l 601 964 l 717 0 l 465 0 m 294 376 l 447 376 l 428 803 l 294 376 m 664 1318 l 742 1225 l 538 1040 l 397 1040 l 240 1232 l 331 1318 l 483 1200 l 664 1318 z "},"Â":{"ha":747,"x_min":-75,"x_max":722,"o":"m 465 0 l 456 201 l 239 201 l 176 0 l -75 0 l 311 964 l 601 964 l 717 0 l 465 0 m 294 376 l 447 376 l 428 803 l 294 376 m 300 1049 l 221 1142 l 426 1326 l 565 1326 l 722 1136 l 632 1049 l 481 1168 l 300 1049 z "},"Ấ":{"ha":747,"x_min":-75,"x_max":928,"o":"m 928 1418 l 689 1215 l 610 1290 l 817 1538 l 928 1418 m 422 1282 l 561 1282 l 718 1092 l 628 1004 l 476 1124 l 296 1004 l 217 1097 l 422 1282 m 311 964 l 601 964 l 717 0 l 465 0 l 456 201 l 239 201 l 176 0 l -75 0 l 311 964 m 294 376 l 447 376 l 428 803 l 294 376 z "},"Ậ":{"ha":747,"x_min":-75,"x_max":722,"o":"m 465 0 l 456 201 l 239 201 l 176 0 l -75 0 l 311 964 l 601 964 l 717 0 l 465 0 m 294 376 l 447 376 l 428 803 l 294 376 m 300 1049 l 221 1142 l 426 1326 l 565 1326 l 722 1136 l 632 1049 l 481 1168 l 300 1049 m 303 -81 q 390 -112 358 -81 q 422 -194 422 -143 q 379 -301 422 -258 q 274 -343 336 -343 q 186 -312 218 -343 q 154 -229 154 -281 q 197 -123 154 -165 q 303 -81 240 -81 z "},"Ầ":{"ha":747,"x_min":-75,"x_max":719,"o":"m 368 1283 l 272 1215 l 92 1426 l 231 1535 l 368 1283 m 297 1004 l 218 1097 l 424 1282 l 563 1282 l 719 1092 l 629 1004 l 478 1124 l 297 1004 m 311 964 l 601 964 l 717 0 l 465 0 l 456 201 l 239 201 l 176 0 l -75 0 l 311 964 m 294 376 l 447 376 l 428 803 l 294 376 z "},"Ẩ":{"ha":747,"x_min":-75,"x_max":899,"o":"m 465 0 l 456 201 l 239 201 l 176 0 l -75 0 l 311 964 l 601 964 l 717 0 l 465 0 m 294 376 l 447 376 l 428 803 l 294 376 m 293 1004 l 214 1097 l 419 1282 l 558 1282 l 715 1092 l 625 1004 l 474 1124 l 293 1004 m 650 1324 q 723 1340 700 1326 q 746 1383 746 1354 q 704 1418 746 1418 q 669 1413 685 1418 q 629 1399 653 1408 l 606 1496 q 744 1531 668 1531 q 858 1494 818 1531 q 899 1399 899 1457 q 865 1304 899 1340 q 772 1256 832 1268 l 765 1199 l 636 1199 l 650 1324 z "},"Ẫ":{"ha":747,"x_min":-75,"x_max":764,"o":"m 442 1376 q 405 1363 421 1376 q 368 1319 389 1349 l 268 1374 q 351 1485 303 1442 q 454 1529 400 1529 q 501 1520 482 1529 q 544 1496 521 1511 q 593 1474 574 1474 q 626 1486 611 1474 q 663 1528 642 1499 l 764 1476 q 680 1363 729 1407 q 578 1319 631 1319 q 537 1328 556 1319 q 493 1353 518 1336 q 465 1371 476 1365 q 442 1376 453 1376 m 422 1282 l 561 1282 l 718 1092 l 628 1004 l 476 1124 l 296 1004 l 217 1097 l 422 1282 m 311 964 l 601 964 l 717 0 l 465 0 l 456 201 l 239 201 l 176 0 l -75 0 l 311 964 m 294 376 l 447 376 l 428 803 l 294 376 z "},"Ȁ":{"ha":747,"x_min":-75,"x_max":717,"o":"m 465 0 l 456 201 l 239 201 l 176 0 l -75 0 l 311 964 l 601 964 l 717 0 l 465 0 m 294 376 l 447 376 l 428 803 l 294 376 m 346 1376 l 435 1094 l 310 1042 l 183 1306 l 346 1376 m 575 1376 l 653 1093 l 528 1047 l 411 1311 l 575 1376 z "},"Ä":{"ha":747,"x_min":-75,"x_max":749,"o":"m 465 0 l 456 201 l 239 201 l 176 0 l -75 0 l 311 964 l 601 964 l 717 0 l 465 0 m 294 376 l 447 376 l 428 803 l 294 376 m 319 1063 q 244 1090 272 1063 q 217 1163 217 1118 q 254 1255 217 1218 q 346 1292 292 1292 q 421 1265 393 1292 q 449 1192 449 1238 q 411 1099 449 1136 q 319 1063 374 1063 m 619 1063 q 544 1090 572 1063 q 517 1163 517 1118 q 554 1255 517 1218 q 646 1292 592 1292 q 721 1265 693 1292 q 749 1192 749 1238 q 711 1099 749 1136 q 619 1063 674 1063 z "},"Ǟ":{"ha":747,"x_min":-75,"x_max":746,"o":"m 465 0 l 456 201 l 239 201 l 176 0 l -75 0 l 311 964 l 601 964 l 717 0 l 465 0 m 294 376 l 447 376 l 428 803 l 294 376 m 317 1036 q 242 1064 269 1036 q 214 1136 214 1092 q 251 1228 214 1192 q 343 1265 289 1265 q 418 1238 390 1265 q 446 1165 446 1211 q 408 1073 446 1110 q 317 1036 371 1036 m 617 1036 q 542 1064 569 1036 q 514 1136 514 1092 q 551 1228 514 1192 q 643 1265 589 1265 q 718 1238 690 1265 q 746 1165 746 1211 q 708 1073 746 1110 q 617 1036 671 1036 m 693 1319 l 300 1319 l 324 1482 l 717 1482 l 693 1319 z "},"Ȧ":{"ha":747,"x_min":-75,"x_max":717,"o":"m 465 0 l 456 201 l 239 201 l 176 0 l -75 0 l 311 964 l 601 964 l 717 0 l 465 0 m 294 376 l 447 376 l 428 803 l 294 376 m 476 1046 q 389 1077 421 1046 q 357 1160 357 1108 q 400 1266 357 1224 q 506 1308 443 1308 q 593 1277 561 1308 q 625 1194 625 1246 q 582 1088 625 1131 q 476 1046 539 1046 z "},"Ạ":{"ha":747,"x_min":-75,"x_max":717,"o":"m 465 0 l 456 201 l 239 201 l 176 0 l -75 0 l 311 964 l 601 964 l 717 0 l 465 0 m 294 376 l 447 376 l 428 803 l 294 376 m 303 -81 q 390 -112 358 -81 q 422 -194 422 -143 q 379 -301 422 -258 q 274 -343 336 -343 q 186 -312 218 -343 q 154 -229 154 -281 q 197 -123 154 -165 q 303 -81 240 -81 z "},"Ǡ":{"ha":747,"x_min":-75,"x_max":726,"o":"m 465 0 l 456 201 l 239 201 l 176 0 l -75 0 l 311 964 l 601 964 l 717 0 l 465 0 m 294 376 l 447 376 l 428 803 l 294 376 m 465 1021 q 378 1052 410 1021 q 346 1135 346 1083 q 389 1241 346 1199 q 494 1283 432 1283 q 582 1252 550 1283 q 614 1169 614 1221 q 571 1063 614 1106 q 465 1021 528 1021 m 703 1321 l 310 1321 l 333 1483 l 726 1483 l 703 1321 z "},"À":{"ha":747,"x_min":-75,"x_max":717,"o":"m 465 0 l 456 201 l 239 201 l 176 0 l -75 0 l 311 964 l 601 964 l 717 0 l 465 0 m 294 376 l 447 376 l 428 803 l 294 376 m 415 1321 l 676 1144 l 611 1036 l 318 1153 l 415 1321 z "},"Ả":{"ha":747,"x_min":-75,"x_max":717,"o":"m 465 0 l 456 201 l 239 201 l 176 0 l -75 0 l 311 964 l 601 964 l 717 0 l 465 0 m 294 376 l 447 376 l 428 803 l 294 376 m 421 1186 q 494 1203 471 1189 q 517 1246 517 1217 q 475 1281 517 1281 q 440 1276 456 1281 q 400 1261 424 1271 l 376 1358 q 515 1393 439 1393 q 629 1356 589 1393 q 669 1261 669 1319 q 636 1167 669 1203 q 543 1118 603 1131 l 536 1061 l 407 1061 l 421 1186 z "},"Ȃ":{"ha":747,"x_min":-75,"x_max":717,"o":"m 465 0 l 456 201 l 239 201 l 176 0 l -75 0 l 311 964 l 601 964 l 717 0 l 465 0 m 294 376 l 447 376 l 428 803 l 294 376 m 246 1081 q 337 1260 271 1190 q 506 1329 403 1329 q 659 1258 610 1329 q 701 1078 708 1186 l 575 1060 q 489 1165 568 1165 q 368 1056 407 1165 l 246 1081 z "},"Ɑ":{"ha":858,"x_min":42,"x_max":871,"o":"m 765 214 q 763 185 763 192 q 769 153 763 165 q 794 132 776 140 l 725 -21 q 549 82 600 -11 q 453 2 506 29 q 333 -25 401 -25 q 117 72 193 -25 q 42 340 42 168 q 94 662 42 513 q 243 901 147 811 q 463 990 339 990 q 567 965 525 990 q 642 890 610 939 l 667 964 l 871 964 l 765 214 m 400 149 q 524 210 468 149 l 600 750 q 555 796 579 781 q 499 811 531 811 q 385 742 432 811 q 314 563 338 672 q 290 335 290 453 q 318 192 290 235 q 400 149 346 149 z "},"Ā":{"ha":747,"x_min":-75,"x_max":717,"o":"m 465 0 l 456 201 l 239 201 l 176 0 l -75 0 l 311 964 l 601 964 l 717 0 l 465 0 m 294 376 l 447 376 l 428 803 l 294 376 m 667 1082 l 274 1082 l 297 1244 l 690 1244 l 667 1082 z "},"Ą":{"ha":747,"x_min":-75,"x_max":717,"o":"m 601 0 q 472 -78 507 -37 q 438 -156 438 -118 q 493 -201 438 -201 q 567 -193 528 -201 l 535 -333 q 444 -344 493 -344 q 319 -303 368 -344 q 271 -192 271 -262 q 464 36 271 -47 l 456 201 l 239 201 l 176 0 l -75 0 l 311 964 l 601 964 l 717 0 l 601 0 m 294 376 l 447 376 l 428 803 l 294 376 z "},"Å":{"ha":747,"x_min":-75,"x_max":717,"o":"m 465 0 l 456 201 l 239 201 l 176 0 l -75 0 l 311 964 l 601 964 l 717 0 l 465 0 m 294 376 l 447 376 l 428 803 l 294 376 m 513 1386 q 634 1340 590 1386 q 678 1218 678 1293 q 651 1115 678 1163 q 577 1040 625 1068 q 467 1011 529 1011 q 346 1058 389 1011 q 303 1178 303 1104 q 329 1281 303 1233 q 403 1358 356 1329 q 513 1386 451 1386 m 501 1269 q 451 1244 469 1269 q 433 1185 433 1218 q 478 1129 433 1129 q 528 1154 510 1129 q 546 1213 546 1179 q 501 1269 546 1269 z "},"Ǻ":{"ha":747,"x_min":-75,"x_max":717,"o":"m 465 0 l 456 201 l 239 201 l 176 0 l -75 0 l 311 964 l 601 964 l 717 0 l 465 0 m 294 376 l 447 376 l 428 803 l 294 376 m 506 1383 q 627 1337 583 1383 q 671 1215 671 1290 q 644 1113 671 1160 q 570 1037 618 1065 q 460 1008 522 1008 q 339 1055 382 1008 q 296 1175 296 1101 q 322 1278 296 1231 q 397 1355 349 1326 q 506 1383 444 1383 m 494 1267 q 444 1241 463 1267 q 426 1182 426 1215 q 471 1126 426 1126 q 521 1151 503 1126 q 539 1210 539 1176 q 494 1267 539 1267 m 619 1676 l 694 1506 l 371 1386 l 319 1499 l 619 1676 z "},"Ⱥ":{"ha":747,"x_min":-75,"x_max":717,"o":"m 494 0 l 479 201 l 350 201 l 235 -104 l 158 -85 l 267 201 l 222 201 l 154 0 l -75 0 l 311 964 l 556 964 l 588 1050 l 663 1032 l 610 893 l 717 0 l 494 0 m 276 365 l 329 365 l 444 669 l 432 826 l 276 365 m 411 365 l 467 365 l 457 488 l 411 365 z "},"Ã":{"ha":747,"x_min":-75,"x_max":738,"o":"m 465 0 l 456 201 l 239 201 l 176 0 l -75 0 l 311 964 l 601 964 l 717 0 l 465 0 m 294 376 l 447 376 l 428 803 l 294 376 m 549 1051 q 506 1061 525 1051 q 463 1088 488 1071 q 447 1098 458 1090 q 427 1109 436 1106 q 410 1113 418 1113 q 373 1098 389 1113 q 336 1051 357 1083 l 233 1110 q 319 1232 269 1185 q 422 1279 368 1279 q 471 1269 450 1279 q 515 1242 492 1260 q 542 1224 531 1229 q 564 1218 553 1218 q 599 1233 583 1218 q 635 1278 615 1247 l 738 1221 q 651 1099 701 1146 q 549 1051 601 1051 z "},"Æ":{"ha":1061,"x_min":-78,"x_max":1074,"o":"m 1022 790 l 713 790 l 717 572 l 1007 572 l 983 403 l 719 403 l 724 175 l 1008 175 l 982 0 l 504 0 l 504 201 l 265 201 l 183 0 l -78 0 l 378 964 l 1074 964 l 1022 790 m 338 376 l 504 376 l 504 786 l 338 376 z "},"Ǽ":{"ha":1061,"x_min":-78,"x_max":1074,"o":"m 1022 790 l 713 790 l 717 572 l 1007 572 l 983 403 l 719 403 l 724 175 l 1008 175 l 982 0 l 504 0 l 504 201 l 265 201 l 183 0 l -78 0 l 378 964 l 1074 964 l 1022 790 m 338 376 l 504 376 l 504 786 l 338 376 m 843 1325 l 918 1154 l 594 1035 l 543 1147 l 843 1325 z "},"Ǣ":{"ha":1061,"x_min":-78,"x_max":1074,"o":"m 1022 790 l 713 790 l 717 572 l 1007 572 l 983 403 l 719 403 l 724 175 l 1008 175 l 982 0 l 504 0 l 504 201 l 265 201 l 183 0 l -78 0 l 378 964 l 1074 964 l 1022 790 m 338 376 l 504 376 l 504 786 l 338 376 m 899 1082 l 506 1082 l 529 1244 l 922 1244 l 899 1082 z "},"B":{"ha":769,"x_min":13,"x_max":764,"o":"m 560 510 q 690 447 642 492 q 738 314 738 401 q 629 83 738 167 q 308 0 521 0 l 13 0 l 147 964 l 417 964 q 672 910 581 964 q 764 746 764 856 q 706 592 764 650 q 560 510 649 533 m 385 582 q 485 619 454 582 q 517 718 517 656 q 492 775 517 757 q 418 793 468 793 l 364 793 l 335 582 l 385 582 m 332 176 q 492 329 492 176 q 463 400 492 378 q 379 422 435 422 l 313 422 l 278 176 l 332 176 z "},"Ḃ":{"ha":769,"x_min":13,"x_max":764,"o":"m 560 510 q 690 447 642 492 q 738 314 738 401 q 629 83 738 167 q 308 0 521 0 l 13 0 l 147 964 l 417 964 q 672 910 581 964 q 764 746 764 856 q 706 592 764 650 q 560 510 649 533 m 385 582 q 485 619 454 582 q 517 718 517 656 q 492 775 517 757 q 418 793 468 793 l 364 793 l 335 582 l 385 582 m 332 176 q 492 329 492 176 q 463 400 492 378 q 379 422 435 422 l 313 422 l 278 176 l 332 176 m 458 1046 q 371 1077 403 1046 q 339 1160 339 1108 q 382 1266 339 1224 q 488 1308 425 1308 q 575 1277 543 1308 q 607 1194 607 1246 q 564 1088 607 1131 q 458 1046 521 1046 z "},"Ḅ":{"ha":769,"x_min":13,"x_max":764,"o":"m 560 510 q 690 447 642 492 q 738 314 738 401 q 629 83 738 167 q 308 0 521 0 l 13 0 l 147 964 l 417 964 q 672 910 581 964 q 764 746 764 856 q 706 592 764 650 q 560 510 649 533 m 385 582 q 485 619 454 582 q 517 718 517 656 q 492 775 517 757 q 418 793 468 793 l 364 793 l 335 582 l 385 582 m 332 176 q 492 329 492 176 q 463 400 492 378 q 379 422 435 422 l 313 422 l 278 176 l 332 176 m 313 -81 q 400 -112 368 -81 q 432 -194 432 -143 q 389 -301 432 -258 q 283 -343 346 -343 q 196 -312 228 -343 q 164 -229 164 -281 q 207 -123 164 -165 q 313 -81 250 -81 z "},"Ꞵ":{"ha":768,"x_min":-29,"x_max":758,"o":"m 561 510 q 689 450 640 496 q 738 319 738 404 q 688 146 738 218 q 556 37 639 74 q 372 0 472 0 q 256 13 313 0 l 213 -294 l -29 -294 l 149 964 l 410 964 q 667 909 575 964 q 758 742 758 854 q 701 588 758 647 q 561 510 644 529 m 360 422 l 396 582 l 406 582 q 481 617 453 582 q 510 714 510 653 q 487 774 510 756 q 415 793 464 793 l 365 793 l 279 182 q 349 176 311 176 q 453 218 415 176 q 492 331 492 260 q 393 422 492 422 l 360 422 z "},"Ɓ":{"ha":981,"x_min":57,"x_max":974,"o":"m 769 510 q 899 447 851 492 q 947 314 947 401 q 839 83 947 167 q 518 0 731 0 l 222 0 l 333 790 l 299 790 q 253 771 269 790 q 238 714 238 751 q 247 640 238 685 l 88 582 q 57 721 57 653 q 128 898 57 832 q 317 964 200 964 l 626 964 q 882 910 790 964 q 974 746 974 856 q 916 592 974 650 q 769 510 858 533 m 594 582 q 695 619 664 582 q 726 718 726 656 q 702 775 726 757 q 628 793 678 793 l 574 793 l 544 582 l 594 582 m 542 176 q 701 329 701 176 q 673 400 701 378 q 589 422 644 422 l 522 422 l 488 176 l 542 176 z "},"Ƀ":{"ha":781,"x_min":-7,"x_max":775,"o":"m 571 510 q 701 447 653 492 q 749 314 749 401 q 640 83 749 167 q 319 0 532 0 l 24 0 l 58 246 l -7 246 l 10 360 l 74 360 l 158 964 l 428 964 q 683 910 592 964 q 775 746 775 856 q 717 592 775 650 q 571 510 660 533 m 396 582 q 497 619 465 582 q 528 718 528 656 q 503 775 528 757 q 429 793 479 793 l 375 793 l 346 582 l 396 582 m 343 176 q 503 329 503 176 q 474 400 503 378 q 390 422 446 422 l 324 422 l 314 360 l 433 360 l 417 246 l 299 246 l 289 176 l 343 176 z "},"Ƃ":{"ha":750,"x_min":13,"x_max":732,"o":"m 413 625 q 648 558 564 625 q 732 364 732 492 q 692 190 732 274 q 565 53 653 107 q 340 0 476 0 l 13 0 l 147 964 l 713 964 l 661 779 l 364 779 l 342 625 l 413 625 m 335 176 q 443 226 408 176 q 478 353 478 276 q 453 430 478 404 q 376 456 429 456 l 318 456 l 279 176 l 335 176 z "},"C":{"ha":724,"x_min":43,"x_max":782,"o":"m 518 990 q 782 875 682 990 l 656 750 q 591 794 624 779 q 518 810 558 810 q 388 738 439 810 q 315 560 338 665 q 293 351 293 456 q 422 163 293 163 q 503 181 465 163 q 593 239 540 200 l 682 100 q 546 10 622 44 q 378 -25 469 -25 q 133 73 224 -25 q 43 358 43 171 q 94 665 43 521 q 253 900 146 810 q 518 990 360 990 z "},"Ć":{"ha":724,"x_min":43,"x_max":782,"o":"m 518 990 q 782 875 682 990 l 656 750 q 591 794 624 779 q 518 810 558 810 q 388 738 439 810 q 315 560 338 665 q 293 351 293 456 q 422 163 293 163 q 503 181 465 163 q 593 239 540 200 l 682 100 q 546 10 622 44 q 378 -25 469 -25 q 133 73 224 -25 q 43 358 43 171 q 94 665 43 521 q 253 900 146 810 q 518 990 360 990 m 678 1325 l 753 1154 l 429 1035 l 378 1147 l 678 1325 z "},"Č":{"ha":724,"x_min":43,"x_max":808,"o":"m 518 990 q 782 875 682 990 l 656 750 q 591 794 624 779 q 518 810 558 810 q 388 738 439 810 q 315 560 338 665 q 293 351 293 456 q 422 163 293 163 q 503 181 465 163 q 593 239 540 200 l 682 100 q 546 10 622 44 q 378 -25 469 -25 q 133 73 224 -25 q 43 358 43 171 q 94 665 43 521 q 253 900 146 810 q 518 990 360 990 m 731 1318 l 808 1225 l 604 1040 l 464 1040 l 307 1232 l 397 1318 l 550 1200 l 731 1318 z "},"Ç":{"ha":724,"x_min":43,"x_max":782,"o":"m 682 100 q 431 -22 571 -4 l 422 -68 q 510 -106 481 -75 q 540 -190 540 -137 q 519 -273 540 -232 q 448 -342 497 -314 q 321 -369 399 -369 q 238 -357 275 -369 q 175 -324 200 -344 l 240 -224 q 315 -243 276 -243 q 360 -233 343 -243 q 378 -200 376 -222 q 353 -168 378 -178 q 268 -158 328 -158 l 303 -18 q 112 100 181 4 q 43 358 43 196 q 94 665 43 521 q 253 900 146 810 q 518 990 360 990 q 782 875 682 990 l 656 750 q 591 794 624 779 q 518 810 558 810 q 388 738 439 810 q 315 560 338 665 q 293 351 293 456 q 422 163 293 163 q 503 181 465 163 q 593 239 540 200 l 682 100 z "},"Ĉ":{"ha":724,"x_min":43,"x_max":789,"o":"m 518 990 q 782 875 682 990 l 656 750 q 591 794 624 779 q 518 810 558 810 q 388 738 439 810 q 315 560 338 665 q 293 351 293 456 q 422 163 293 163 q 503 181 465 163 q 593 239 540 200 l 682 100 q 546 10 622 44 q 378 -25 469 -25 q 133 73 224 -25 q 43 358 43 171 q 94 665 43 521 q 253 900 146 810 q 518 990 360 990 m 367 1049 l 288 1142 l 493 1326 l 632 1326 l 789 1136 l 699 1049 l 547 1168 l 367 1049 z "},"Ċ":{"ha":724,"x_min":43,"x_max":782,"o":"m 518 990 q 782 875 682 990 l 656 750 q 591 794 624 779 q 518 810 558 810 q 388 738 439 810 q 315 560 338 665 q 293 351 293 456 q 422 163 293 163 q 503 181 465 163 q 593 239 540 200 l 682 100 q 546 10 622 44 q 378 -25 469 -25 q 133 73 224 -25 q 43 358 43 171 q 94 665 43 521 q 253 900 146 810 q 518 990 360 990 m 543 1046 q 456 1077 488 1046 q 424 1160 424 1108 q 467 1266 424 1224 q 572 1308 510 1308 q 660 1277 628 1308 q 692 1194 692 1246 q 649 1088 692 1131 q 543 1046 606 1046 z "},"Ꭓ":{"ha":724,"x_min":-96,"x_max":801,"o":"m 801 964 l 503 400 l 650 -232 l 399 -232 l 336 236 l 167 -232 l -96 -232 l 217 397 l 90 964 l 343 964 l 385 550 l 544 964 l 801 964 z "},"Ƈ":{"ha":729,"x_min":42,"x_max":1015,"o":"m 843 1188 q 1015 1135 940 1188 l 933 992 q 858 1015 893 1015 q 789 932 801 1015 l 782 875 l 669 758 q 519 810 592 810 q 388 738 439 810 q 315 560 338 665 q 292 351 292 456 q 421 163 292 163 q 502 181 464 163 q 593 239 540 200 l 682 100 q 545 10 622 44 q 381 -25 468 -25 q 132 73 222 -25 q 42 358 42 171 q 94 663 42 517 q 249 899 147 808 q 486 990 350 990 q 596 968 544 990 l 597 974 q 673 1130 611 1072 q 843 1188 735 1188 z "},"Ȼ":{"ha":724,"x_min":43,"x_max":782,"o":"m 422 163 q 503 181 465 163 q 593 239 540 200 l 682 100 q 546 10 622 44 q 378 -25 469 -25 q 297 -17 335 -25 l 264 -104 l 186 -83 l 221 8 q 90 138 136 49 q 43 358 43 226 q 94 665 43 521 q 253 900 146 810 q 518 990 360 990 q 593 983 554 990 l 618 1050 l 696 1031 l 669 960 q 782 875 731 933 l 656 750 q 604 789 626 778 l 369 172 q 422 163 390 163 m 293 351 q 310 240 293 282 l 526 810 l 518 810 q 388 738 439 810 q 315 560 338 665 q 293 351 293 456 z "},"D":{"ha":821,"x_min":13,"x_max":808,"o":"m 413 964 q 701 887 593 964 q 808 611 808 810 q 686 167 808 335 q 296 0 564 0 l 13 0 l 147 964 l 413 964 m 364 789 l 279 176 l 332 176 q 510 310 457 176 q 563 615 563 443 q 527 750 563 711 q 422 789 492 789 l 364 789 z "},"Ǳ":{"ha":1465,"x_min":13,"x_max":1515,"o":"m 413 964 q 701 887 593 964 q 808 611 808 810 q 686 167 808 335 q 296 0 564 0 l 13 0 l 147 964 l 413 964 m 364 789 l 279 176 l 332 176 q 510 310 457 176 q 563 615 563 443 q 527 750 563 711 q 422 789 492 789 l 364 789 m 749 0 l 774 182 l 1218 775 l 890 775 l 918 964 l 1515 964 l 1489 779 l 1047 194 l 1421 194 l 1368 0 l 749 0 z "},"Ǆ":{"ha":1465,"x_min":13,"x_max":1515,"o":"m 413 964 q 701 887 593 964 q 808 611 808 810 q 686 167 808 335 q 296 0 564 0 l 13 0 l 147 964 l 413 964 m 364 789 l 279 176 l 332 176 q 510 310 457 176 q 563 615 563 443 q 527 750 563 711 q 422 789 492 789 l 364 789 m 749 0 l 774 182 l 1218 775 l 890 775 l 918 964 l 1515 964 l 1489 779 l 1047 194 l 1421 194 l 1368 0 l 749 0 m 1418 1318 l 1496 1225 l 1292 1040 l 1151 1040 l 994 1232 l 1085 1318 l 1238 1200 l 1418 1318 z "},"Ɖ":{"ha":832,"x_min":17,"x_max":819,"o":"m 424 964 q 712 887 604 964 q 819 611 819 810 q 697 167 819 335 q 307 0 575 0 l 24 0 l 82 418 l 17 418 l 39 563 l 103 563 l 158 964 l 424 964 m 343 176 q 521 310 468 176 q 574 615 574 443 q 538 750 574 711 q 433 789 503 789 l 375 789 l 343 563 l 496 563 l 474 418 l 324 418 l 290 176 l 343 176 z "},"Ð":{"ha":832,"x_min":17,"x_max":819,"o":"m 424 964 q 712 887 604 964 q 819 611 819 810 q 697 167 819 335 q 307 0 575 0 l 24 0 l 82 418 l 17 418 l 39 563 l 103 563 l 158 964 l 424 964 m 343 176 q 521 310 468 176 q 574 615 574 443 q 538 750 574 711 q 433 789 503 789 l 375 789 l 343 563 l 496 563 l 474 418 l 324 418 l 290 176 l 343 176 z "},"Ď":{"ha":821,"x_min":13,"x_max":808,"o":"m 413 964 q 701 887 593 964 q 808 611 808 810 q 686 167 808 335 q 296 0 564 0 l 13 0 l 147 964 l 413 964 m 364 789 l 279 176 l 332 176 q 510 310 457 176 q 563 615 563 443 q 527 750 563 711 q 422 789 492 789 l 364 789 m 658 1318 l 736 1225 l 532 1040 l 392 1040 l 235 1232 l 325 1318 l 478 1200 l 658 1318 z "},"Ḓ":{"ha":821,"x_min":13,"x_max":808,"o":"m 413 964 q 701 887 593 964 q 808 611 808 810 q 686 167 808 335 q 296 0 564 0 l 13 0 l 147 964 l 413 964 m 364 789 l 279 176 l 332 176 q 510 310 457 176 q 563 615 563 443 q 527 750 563 711 q 422 789 492 789 l 364 789 m 100 -375 l 25 -282 l 231 -86 l 371 -86 l 526 -289 l 432 -375 l 285 -246 l 100 -375 z "},"Đ":{"ha":832,"x_min":17,"x_max":819,"o":"m 424 964 q 712 887 604 964 q 819 611 819 810 q 697 167 819 335 q 307 0 575 0 l 24 0 l 82 418 l 17 418 l 39 563 l 103 563 l 158 964 l 424 964 m 343 176 q 521 310 468 176 q 574 615 574 443 q 538 750 574 711 q 433 789 503 789 l 375 789 l 343 563 l 496 563 l 474 418 l 324 418 l 290 176 l 343 176 z "},"Ḋ":{"ha":821,"x_min":13,"x_max":808,"o":"m 413 964 q 701 887 593 964 q 808 611 808 810 q 686 167 808 335 q 296 0 564 0 l 13 0 l 147 964 l 413 964 m 364 789 l 279 176 l 332 176 q 510 310 457 176 q 563 615 563 443 q 527 750 563 711 q 422 789 492 789 l 364 789 m 471 1046 q 383 1077 415 1046 q 351 1160 351 1108 q 394 1266 351 1224 q 500 1308 438 1308 q 588 1277 556 1308 q 619 1194 619 1246 q 576 1088 619 1131 q 471 1046 533 1046 z "},"Ḍ":{"ha":821,"x_min":13,"x_max":808,"o":"m 413 964 q 701 887 593 964 q 808 611 808 810 q 686 167 808 335 q 296 0 564 0 l 13 0 l 147 964 l 413 964 m 364 789 l 279 176 l 332 176 q 510 310 457 176 q 563 615 563 443 q 527 750 563 711 q 422 789 492 789 l 364 789 m 301 -81 q 389 -112 357 -81 q 421 -194 421 -143 q 378 -301 421 -258 q 272 -343 335 -343 q 185 -312 217 -343 q 153 -229 153 -281 q 196 -123 153 -165 q 301 -81 239 -81 z "},"Ɗ":{"ha":1031,"x_min":57,"x_max":1018,"o":"m 622 964 q 910 887 803 964 q 1018 611 1018 810 q 896 167 1018 335 q 506 0 774 0 l 222 0 l 333 790 l 299 790 q 253 771 269 790 q 238 714 238 751 q 247 640 238 685 l 88 582 q 57 721 57 653 q 128 898 57 832 q 317 964 200 964 l 622 964 m 542 176 q 719 310 667 176 q 772 615 772 443 q 737 750 772 711 q 632 789 701 789 l 574 789 l 489 176 l 542 176 z "},"Ḏ":{"ha":821,"x_min":13,"x_max":808,"o":"m 413 964 q 701 887 593 964 q 808 611 808 810 q 686 167 808 335 q 296 0 564 0 l 13 0 l 147 964 l 413 964 m 364 789 l 279 176 l 332 176 q 510 310 457 176 q 563 615 563 443 q 527 750 563 711 q 422 789 492 789 l 364 789 m 118 -107 l 511 -107 l 488 -269 l 94 -269 l 118 -107 z "},"Ƌ":{"ha":751,"x_min":6,"x_max":769,"o":"m 635 0 l 322 0 q 89 72 172 0 q 6 279 6 143 q 113 534 6 444 q 399 624 219 624 l 481 624 l 501 779 l 186 779 l 211 964 l 769 964 l 635 0 m 418 176 l 457 456 l 400 456 q 295 410 331 456 q 260 289 260 365 q 286 203 260 231 q 368 176 313 176 l 418 176 z "},"ǲ":{"ha":1385,"x_min":13,"x_max":1413,"o":"m 413 964 q 701 887 593 964 q 808 611 808 810 q 686 167 808 335 q 296 0 564 0 l 13 0 l 147 964 l 413 964 m 364 789 l 279 176 l 332 176 q 510 310 457 176 q 563 615 563 443 q 527 750 563 711 q 422 789 492 789 l 364 789 m 1413 739 l 1390 574 l 1069 178 l 1344 178 l 1299 0 l 765 0 l 788 167 l 1108 564 l 867 564 l 893 739 l 1413 739 z "},"ǅ":{"ha":1385,"x_min":13,"x_max":1443,"o":"m 413 964 q 701 887 593 964 q 808 611 808 810 q 686 167 808 335 q 296 0 564 0 l 13 0 l 147 964 l 413 964 m 364 789 l 279 176 l 332 176 q 510 310 457 176 q 563 615 563 443 q 527 750 563 711 q 422 789 492 789 l 364 789 m 1413 739 l 1390 574 l 1069 178 l 1344 178 l 1299 0 l 765 0 l 788 167 l 1108 564 l 867 564 l 893 739 l 1413 739 m 1368 1135 l 1443 1042 l 1238 846 l 1097 846 l 947 1042 l 1033 1135 l 1182 1004 l 1368 1135 z "},"E":{"ha":644,"x_min":13,"x_max":700,"o":"m 700 964 l 649 790 l 365 790 l 335 575 l 585 575 l 561 404 l 311 404 l 279 175 l 586 175 l 561 0 l 13 0 l 147 964 l 700 964 z "},"É":{"ha":644,"x_min":13,"x_max":700,"o":"m 700 964 l 649 790 l 365 790 l 335 575 l 585 575 l 561 404 l 311 404 l 279 175 l 586 175 l 561 0 l 13 0 l 147 964 l 700 964 m 579 1325 l 654 1154 l 331 1035 l 279 1147 l 579 1325 z "},"Ĕ":{"ha":644,"x_min":13,"x_max":700,"o":"m 700 964 l 649 790 l 365 790 l 335 575 l 585 575 l 561 404 l 311 404 l 279 175 l 586 175 l 561 0 l 13 0 l 147 964 l 700 964 m 439 1040 q 287 1110 336 1040 q 244 1278 238 1179 l 365 1296 q 390 1228 368 1254 q 451 1203 413 1203 q 567 1300 528 1203 l 690 1274 q 605 1107 669 1174 q 439 1040 540 1040 z "},"Ě":{"ha":644,"x_min":13,"x_max":710,"o":"m 700 964 l 649 790 l 365 790 l 335 575 l 585 575 l 561 404 l 311 404 l 279 175 l 586 175 l 561 0 l 13 0 l 147 964 l 700 964 m 632 1318 l 710 1225 l 506 1040 l 365 1040 l 208 1232 l 299 1318 l 451 1200 l 632 1318 z "},"Ȩ":{"ha":644,"x_min":13,"x_max":700,"o":"m 365 790 l 335 575 l 585 575 l 561 404 l 311 404 l 279 175 l 586 175 l 561 0 l 349 0 l 338 -68 q 426 -106 396 -75 q 456 -190 456 -137 q 434 -273 456 -232 q 363 -342 413 -314 q 236 -369 314 -369 q 153 -357 190 -369 q 90 -324 115 -344 l 156 -224 q 232 -243 192 -243 q 276 -233 260 -243 q 293 -200 293 -222 q 268 -168 293 -178 q 183 -158 243 -158 l 222 0 l 13 0 l 147 964 l 700 964 l 649 790 l 365 790 z "},"Ê":{"ha":644,"x_min":13,"x_max":700,"o":"m 700 964 l 649 790 l 365 790 l 335 575 l 585 575 l 561 404 l 311 404 l 279 175 l 586 175 l 561 0 l 13 0 l 147 964 l 700 964 m 268 1049 l 189 1142 l 394 1326 l 533 1326 l 690 1136 l 600 1049 l 449 1168 l 268 1049 z "},"Ế":{"ha":644,"x_min":13,"x_max":896,"o":"m 785 1538 l 896 1418 l 657 1215 l 578 1290 l 785 1538 m 264 1004 l 185 1097 l 390 1282 l 529 1282 l 686 1092 l 596 1004 l 444 1124 l 264 1004 m 700 964 l 649 790 l 365 790 l 335 575 l 585 575 l 561 404 l 311 404 l 279 175 l 586 175 l 561 0 l 13 0 l 147 964 l 700 964 z "},"Ệ":{"ha":644,"x_min":13,"x_max":700,"o":"m 700 964 l 649 790 l 365 790 l 335 575 l 585 575 l 561 404 l 311 404 l 279 175 l 586 175 l 561 0 l 13 0 l 147 964 l 700 964 m 268 1049 l 189 1142 l 394 1326 l 533 1326 l 690 1136 l 600 1049 l 449 1168 l 268 1049 m 269 -81 q 357 -112 325 -81 q 389 -194 389 -143 q 346 -301 389 -258 q 240 -343 303 -343 q 153 -312 185 -343 q 121 -229 121 -281 q 164 -123 121 -165 q 269 -81 207 -81 z "},"Ề":{"ha":644,"x_min":13,"x_max":700,"o":"m 199 1535 l 336 1283 l 240 1215 l 60 1426 l 199 1535 m 265 1004 l 186 1097 l 392 1282 l 531 1282 l 688 1092 l 597 1004 l 446 1124 l 265 1004 m 700 964 l 649 790 l 365 790 l 335 575 l 585 575 l 561 404 l 311 404 l 279 175 l 586 175 l 561 0 l 13 0 l 147 964 l 700 964 z "},"Ể":{"ha":644,"x_min":13,"x_max":867,"o":"m 700 964 l 649 790 l 365 790 l 335 575 l 585 575 l 561 404 l 311 404 l 279 175 l 586 175 l 561 0 l 13 0 l 147 964 l 700 964 m 261 1004 l 182 1097 l 388 1282 l 526 1282 l 683 1092 l 593 1004 l 442 1124 l 261 1004 m 618 1324 q 691 1340 668 1326 q 714 1383 714 1354 q 672 1418 714 1418 q 637 1413 653 1418 q 597 1399 621 1408 l 574 1496 q 713 1531 636 1531 q 826 1494 786 1531 q 867 1399 867 1457 q 833 1304 867 1340 q 740 1256 800 1268 l 733 1199 l 604 1199 l 618 1324 z "},"Ễ":{"ha":644,"x_min":13,"x_max":732,"o":"m 546 1319 q 505 1328 524 1319 q 461 1353 486 1336 q 433 1371 444 1365 q 410 1376 421 1376 q 373 1363 389 1376 q 336 1319 357 1349 l 236 1374 q 319 1485 271 1442 q 422 1529 368 1529 q 469 1520 450 1529 q 513 1496 489 1511 q 561 1474 542 1474 q 594 1486 579 1474 q 631 1528 610 1499 l 732 1476 q 648 1363 697 1407 q 546 1319 599 1319 m 264 1004 l 185 1097 l 390 1282 l 529 1282 l 686 1092 l 596 1004 l 444 1124 l 264 1004 m 700 964 l 649 790 l 365 790 l 335 575 l 585 575 l 561 404 l 311 404 l 279 175 l 586 175 l 561 0 l 13 0 l 147 964 l 700 964 z "},"Ȅ":{"ha":644,"x_min":13,"x_max":700,"o":"m 700 964 l 649 790 l 365 790 l 335 575 l 585 575 l 561 404 l 311 404 l 279 175 l 586 175 l 561 0 l 13 0 l 147 964 l 700 964 m 314 1376 l 403 1094 l 278 1042 l 151 1306 l 314 1376 m 543 1376 l 621 1093 l 496 1047 l 379 1311 l 543 1376 z "},"Ë":{"ha":644,"x_min":13,"x_max":717,"o":"m 700 964 l 649 790 l 365 790 l 335 575 l 585 575 l 561 404 l 311 404 l 279 175 l 586 175 l 561 0 l 13 0 l 147 964 l 700 964 m 288 1063 q 213 1090 240 1063 q 185 1163 185 1118 q 222 1255 185 1218 q 314 1292 260 1292 q 389 1265 361 1292 q 417 1192 417 1238 q 379 1099 417 1136 q 288 1063 342 1063 m 588 1063 q 513 1090 540 1063 q 485 1163 485 1118 q 522 1255 485 1218 q 614 1292 560 1292 q 689 1265 661 1292 q 717 1192 717 1238 q 679 1099 717 1136 q 588 1063 642 1063 z "},"Ė":{"ha":644,"x_min":13,"x_max":700,"o":"m 700 964 l 649 790 l 365 790 l 335 575 l 585 575 l 561 404 l 311 404 l 279 175 l 586 175 l 561 0 l 13 0 l 147 964 l 700 964 m 444 1046 q 357 1077 389 1046 q 325 1160 325 1108 q 368 1266 325 1224 q 474 1308 411 1308 q 561 1277 529 1308 q 593 1194 593 1246 q 550 1088 593 1131 q 444 1046 507 1046 z "},"Ẹ":{"ha":644,"x_min":13,"x_max":700,"o":"m 700 964 l 649 790 l 365 790 l 335 575 l 585 575 l 561 404 l 311 404 l 279 175 l 586 175 l 561 0 l 13 0 l 147 964 l 700 964 m 269 -81 q 357 -112 325 -81 q 389 -194 389 -143 q 346 -301 389 -258 q 240 -343 303 -343 q 153 -312 185 -343 q 121 -229 121 -281 q 164 -123 121 -165 q 269 -81 207 -81 z "},"È":{"ha":644,"x_min":13,"x_max":700,"o":"m 700 964 l 649 790 l 365 790 l 335 575 l 585 575 l 561 404 l 311 404 l 279 175 l 586 175 l 561 0 l 13 0 l 147 964 l 700 964 m 383 1321 l 644 1144 l 579 1036 l 286 1153 l 383 1321 z "},"Ẻ":{"ha":644,"x_min":13,"x_max":700,"o":"m 700 964 l 649 790 l 365 790 l 335 575 l 585 575 l 561 404 l 311 404 l 279 175 l 586 175 l 561 0 l 13 0 l 147 964 l 700 964 m 389 1186 q 462 1203 439 1189 q 485 1246 485 1217 q 443 1281 485 1281 q 408 1276 424 1281 q 368 1261 392 1271 l 344 1358 q 483 1393 407 1393 q 597 1356 557 1393 q 638 1261 638 1319 q 604 1167 638 1203 q 511 1118 571 1131 l 504 1061 l 375 1061 l 389 1186 z "},"Ȇ":{"ha":644,"x_min":13,"x_max":700,"o":"m 700 964 l 649 790 l 365 790 l 335 575 l 585 575 l 561 404 l 311 404 l 279 175 l 586 175 l 561 0 l 13 0 l 147 964 l 700 964 m 214 1081 q 305 1260 239 1190 q 474 1329 371 1329 q 627 1258 578 1329 q 669 1078 676 1186 l 543 1060 q 457 1165 536 1165 q 336 1056 375 1165 l 214 1081 z "},"Ē":{"ha":644,"x_min":13,"x_max":700,"o":"m 700 964 l 649 790 l 365 790 l 335 575 l 585 575 l 561 404 l 311 404 l 279 175 l 586 175 l 561 0 l 13 0 l 147 964 l 700 964 m 635 1082 l 242 1082 l 265 1244 l 658 1244 l 635 1082 z "},"Ę":{"ha":644,"x_min":13,"x_max":700,"o":"m 365 790 l 335 575 l 585 575 l 561 404 l 311 404 l 279 175 l 586 175 l 561 0 l 513 0 q 383 -78 418 -37 q 349 -156 349 -118 q 404 -201 349 -201 q 478 -193 439 -201 l 446 -333 q 356 -344 404 -344 q 231 -303 279 -344 q 182 -192 182 -262 q 306 0 182 -76 l 13 0 l 147 964 l 700 964 l 649 790 l 365 790 z "},"Ɛ":{"ha":678,"x_min":6,"x_max":733,"o":"m 446 989 q 611 957 543 989 q 733 858 679 925 l 606 740 q 463 814 540 814 q 375 778 407 814 q 343 685 343 743 q 447 594 343 594 l 536 594 l 483 421 l 425 421 q 299 380 344 421 q 254 264 254 339 q 363 154 254 154 q 451 174 410 154 q 540 236 493 194 l 649 110 q 321 -25 517 -25 q 91 46 176 -25 q 6 235 6 117 q 76 428 6 360 q 278 511 147 497 q 101 703 101 550 q 149 853 101 788 q 276 953 197 918 q 446 989 356 989 z "},"Ǝ":{"ha":639,"x_min":-26,"x_max":657,"o":"m 113 964 l 657 964 l 522 0 l -26 0 l -1 175 l 304 175 l 338 404 l 86 404 l 110 575 l 361 575 l 392 790 l 89 790 l 113 964 z "},"Ʃ":{"ha":626,"x_min":-31,"x_max":689,"o":"m 689 964 l 664 788 l 329 788 l 489 514 l 476 422 l 256 181 l 582 181 l 556 0 l -31 0 l -6 176 l 263 481 l 78 789 l 103 964 l 689 964 z "},"Ɇ":{"ha":644,"x_min":13,"x_max":700,"o":"m 649 790 l 594 790 l 514 575 l 585 575 l 561 404 l 449 404 l 361 175 l 586 175 l 561 0 l 294 0 l 256 -104 l 178 -83 l 210 0 l 13 0 l 147 964 l 575 964 l 608 1050 l 686 1031 l 661 964 l 700 964 l 649 790 m 428 575 l 510 790 l 365 790 l 335 575 l 428 575 m 281 189 l 363 404 l 311 404 l 281 189 z "},"Ẽ":{"ha":644,"x_min":13,"x_max":706,"o":"m 700 964 l 649 790 l 365 790 l 335 575 l 585 575 l 561 404 l 311 404 l 279 175 l 586 175 l 561 0 l 13 0 l 147 964 l 700 964 m 517 1051 q 474 1061 493 1051 q 431 1088 456 1071 q 415 1098 426 1090 q 395 1109 404 1106 q 378 1113 386 1113 q 341 1098 357 1113 q 304 1051 325 1083 l 201 1110 q 287 1232 238 1185 q 390 1279 336 1279 q 439 1269 418 1279 q 483 1242 460 1260 q 510 1224 499 1229 q 532 1218 521 1218 q 567 1233 551 1218 q 603 1278 583 1247 l 706 1221 q 619 1099 669 1146 q 517 1051 569 1051 z "},"Ʒ":{"ha":693,"x_min":-28,"x_max":706,"o":"m 681 794 l 443 560 q 608 494 550 553 q 665 332 665 435 q 613 141 665 222 q 469 17 560 60 q 271 -25 379 -25 q 92 13 163 -25 q -28 122 21 51 l 110 236 q 184 174 149 193 q 269 156 219 156 q 375 201 333 156 q 417 319 417 246 q 385 398 417 374 q 297 422 354 422 l 168 422 l 188 557 l 417 789 l 117 789 l 143 964 l 706 964 l 681 794 z "},"Ǯ":{"ha":693,"x_min":-28,"x_max":708,"o":"m 681 794 l 443 560 q 608 494 550 553 q 665 332 665 435 q 613 141 665 222 q 469 17 560 60 q 271 -25 379 -25 q 92 13 163 -25 q -28 122 21 51 l 110 236 q 184 174 149 193 q 269 156 219 156 q 375 201 333 156 q 417 319 417 246 q 385 398 417 374 q 297 422 354 422 l 168 422 l 188 557 l 417 789 l 117 789 l 143 964 l 706 964 l 681 794 m 631 1318 l 708 1225 l 504 1040 l 364 1040 l 207 1232 l 297 1318 l 450 1200 l 631 1318 z "},"Ƹ":{"ha":696,"x_min":7,"x_max":715,"o":"m 689 789 l 376 789 l 558 554 l 538 424 l 539 422 l 417 422 q 299 379 340 422 q 257 260 257 336 q 283 183 257 210 q 356 156 308 156 q 450 176 406 156 q 546 242 494 197 l 654 119 q 509 12 589 49 q 322 -25 429 -25 q 90 50 172 -25 q 7 251 7 125 q 47 408 7 340 q 158 517 88 476 q 317 561 228 557 l 129 794 l 154 964 l 715 964 l 689 789 z "},"F":{"ha":601,"x_min":13,"x_max":682,"o":"m 682 964 l 631 790 l 365 790 l 331 549 l 567 549 l 542 375 l 307 375 l 254 0 l 13 0 l 147 964 l 682 964 z "},"Ḟ":{"ha":601,"x_min":13,"x_max":682,"o":"m 682 964 l 631 790 l 365 790 l 331 549 l 567 549 l 542 375 l 307 375 l 254 0 l 13 0 l 147 964 l 682 964 m 433 1046 q 346 1077 378 1046 q 314 1160 314 1108 q 357 1266 314 1224 q 463 1308 400 1308 q 550 1277 518 1308 q 582 1194 582 1246 q 539 1088 582 1131 q 433 1046 496 1046 z "},"Ƒ":{"ha":601,"x_min":-244,"x_max":682,"o":"m 365 790 l 331 549 l 567 549 l 542 375 l 307 375 l 254 0 l 247 -47 q 145 -244 226 -176 q -60 -311 64 -311 q -244 -249 -176 -311 l -149 -108 q -110 -128 -126 -122 q -71 -133 -94 -133 q 6 -58 -7 -133 l 13 0 l 147 964 l 682 964 l 631 790 l 365 790 z "},"G":{"ha":811,"x_min":40,"x_max":831,"o":"m 547 990 q 710 956 639 990 q 831 865 782 922 l 700 747 q 624 799 660 783 q 543 814 589 814 q 393 738 450 814 q 312 550 336 663 q 288 317 288 438 q 315 191 288 229 q 400 153 343 153 q 506 183 453 153 l 535 388 l 440 388 l 442 558 l 788 558 l 722 79 q 558 2 647 29 q 386 -25 469 -25 q 126 69 213 -25 q 40 346 40 163 q 97 660 40 514 q 267 899 153 807 q 547 990 381 990 z "},"Ǵ":{"ha":811,"x_min":40,"x_max":831,"o":"m 547 990 q 710 956 639 990 q 831 865 782 922 l 700 747 q 624 799 660 783 q 543 814 589 814 q 393 738 450 814 q 312 550 336 663 q 288 317 288 438 q 315 191 288 229 q 400 153 343 153 q 506 183 453 153 l 535 388 l 440 388 l 442 558 l 788 558 l 722 79 q 558 2 647 29 q 386 -25 469 -25 q 126 69 213 -25 q 40 346 40 163 q 97 660 40 514 q 267 899 153 807 q 547 990 381 990 m 685 1325 l 760 1154 l 436 1035 l 385 1147 l 685 1325 z "},"Ɣ":{"ha":722,"x_min":61,"x_max":826,"o":"m 444 125 q 488 7 474 56 q 501 -92 501 -42 q 442 -253 501 -197 q 272 -310 382 -310 q 135 -266 181 -310 q 90 -146 90 -222 q 120 -15 90 -81 q 211 133 150 51 l 61 964 l 310 964 l 354 292 l 579 964 l 826 964 l 444 125 m 332 -97 q 314 11 332 -57 q 261 -126 261 -76 q 289 -160 261 -160 q 321 -144 310 -160 q 332 -97 332 -128 z "},"Ğ":{"ha":811,"x_min":40,"x_max":831,"o":"m 547 990 q 710 956 639 990 q 831 865 782 922 l 700 747 q 624 799 660 783 q 543 814 589 814 q 393 738 450 814 q 312 550 336 663 q 288 317 288 438 q 315 191 288 229 q 400 153 343 153 q 506 183 453 153 l 535 388 l 440 388 l 442 558 l 788 558 l 722 79 q 558 2 647 29 q 386 -25 469 -25 q 126 69 213 -25 q 40 346 40 163 q 97 660 40 514 q 267 899 153 807 q 547 990 381 990 m 544 1040 q 392 1110 442 1040 q 350 1278 343 1179 l 471 1296 q 496 1228 474 1254 q 557 1203 518 1203 q 672 1300 633 1203 l 796 1274 q 710 1107 775 1174 q 544 1040 646 1040 z "},"Ǧ":{"ha":811,"x_min":40,"x_max":831,"o":"m 547 990 q 710 956 639 990 q 831 865 782 922 l 700 747 q 624 799 660 783 q 543 814 589 814 q 393 738 450 814 q 312 550 336 663 q 288 317 288 438 q 315 191 288 229 q 400 153 343 153 q 506 183 453 153 l 535 388 l 440 388 l 442 558 l 788 558 l 722 79 q 558 2 647 29 q 386 -25 469 -25 q 126 69 213 -25 q 40 346 40 163 q 97 660 40 514 q 267 899 153 807 q 547 990 381 990 m 738 1318 l 815 1225 l 611 1040 l 471 1040 l 314 1232 l 404 1318 l 557 1200 l 738 1318 z "},"Ĝ":{"ha":811,"x_min":40,"x_max":831,"o":"m 547 990 q 710 956 639 990 q 831 865 782 922 l 700 747 q 624 799 660 783 q 543 814 589 814 q 393 738 450 814 q 312 550 336 663 q 288 317 288 438 q 315 191 288 229 q 400 153 343 153 q 506 183 453 153 l 535 388 l 440 388 l 442 558 l 788 558 l 722 79 q 558 2 647 29 q 386 -25 469 -25 q 126 69 213 -25 q 40 346 40 163 q 97 660 40 514 q 267 899 153 807 q 547 990 381 990 m 374 1049 l 294 1142 l 500 1326 l 639 1326 l 796 1136 l 706 1049 l 554 1168 l 374 1049 z "},"Ģ":{"ha":811,"x_min":40,"x_max":831,"o":"m 547 990 q 710 956 639 990 q 831 865 782 922 l 700 747 q 624 799 660 783 q 543 814 589 814 q 393 738 450 814 q 312 550 336 663 q 288 317 288 438 q 315 191 288 229 q 400 153 343 153 q 506 183 453 153 l 535 388 l 440 388 l 442 558 l 788 558 l 722 79 q 558 2 647 29 q 386 -25 469 -25 q 126 69 213 -25 q 40 346 40 163 q 97 660 40 514 q 267 899 153 807 q 547 990 381 990 m 374 -92 q 448 -119 419 -92 q 476 -190 476 -147 q 465 -251 476 -224 q 425 -328 454 -279 l 346 -458 l 235 -458 l 293 -296 q 253 -221 253 -269 q 288 -128 253 -164 q 374 -92 322 -92 z "},"Ġ":{"ha":811,"x_min":40,"x_max":831,"o":"m 547 990 q 710 956 639 990 q 831 865 782 922 l 700 747 q 624 799 660 783 q 543 814 589 814 q 393 738 450 814 q 312 550 336 663 q 288 317 288 438 q 315 191 288 229 q 400 153 343 153 q 506 183 453 153 l 535 388 l 440 388 l 442 558 l 788 558 l 722 79 q 558 2 647 29 q 386 -25 469 -25 q 126 69 213 -25 q 40 346 40 163 q 97 660 40 514 q 267 899 153 807 q 547 990 381 990 m 550 1046 q 463 1077 494 1046 q 431 1160 431 1108 q 474 1266 431 1224 q 579 1308 517 1308 q 667 1277 635 1308 q 699 1194 699 1246 q 656 1088 699 1131 q 550 1046 613 1046 z "},"Ɠ":{"ha":779,"x_min":40,"x_max":1065,"o":"m 893 1188 q 1065 1135 990 1188 l 983 992 q 908 1015 944 1015 q 839 932 850 1015 l 831 865 l 713 756 q 543 814 633 814 q 392 738 450 814 q 310 550 335 663 q 286 317 286 438 q 314 191 286 229 q 399 153 342 153 q 506 183 453 153 l 535 388 l 440 388 l 442 558 l 788 558 l 721 79 q 557 2 646 29 q 386 -25 468 -25 q 126 69 213 -25 q 40 346 40 163 q 97 659 40 511 q 262 899 153 807 q 521 990 371 990 q 646 965 594 990 l 647 974 q 723 1130 661 1072 q 893 1188 785 1188 z "},"Ɂ":{"ha":663,"x_min":78,"x_max":683,"o":"m 201 461 l 263 482 q 391 563 347 510 q 435 703 435 615 q 411 785 435 756 q 342 814 388 814 q 262 795 300 814 q 176 738 224 776 l 78 861 q 224 958 150 926 q 390 989 297 989 q 605 917 526 989 q 683 718 683 844 q 630 522 683 599 q 471 406 576 446 l 433 392 l 379 0 l 138 0 l 201 461 z "},"Ǥ":{"ha":850,"x_min":40,"x_max":844,"o":"m 828 243 l 744 243 l 722 79 q 558 2 647 29 q 386 -25 469 -25 q 126 69 213 -25 q 40 346 40 163 q 97 660 40 514 q 267 899 153 807 q 547 990 381 990 q 710 956 639 990 q 831 865 782 922 l 699 746 q 625 798 660 782 q 543 814 590 814 q 393 738 450 814 q 312 550 336 663 q 288 317 288 438 q 315 191 288 229 q 400 153 343 153 q 517 183 460 153 l 525 243 l 418 243 l 436 376 l 542 376 l 550 440 l 444 440 l 443 583 l 789 583 l 761 376 l 844 376 l 828 243 z "},"Ȝ":{"ha":647,"x_min":4,"x_max":656,"o":"m 381 990 q 581 925 507 990 q 656 753 656 860 q 411 496 656 551 q 563 446 511 493 q 615 310 615 399 q 442 9 615 126 q 4 -160 269 -108 l 14 15 q 203 87 129 50 q 320 178 278 124 q 363 310 363 232 q 333 384 363 361 q 239 407 304 407 l 150 407 l 201 581 l 268 581 q 370 620 335 581 q 406 726 406 660 q 326 814 406 814 q 156 739 251 814 l 61 863 q 381 990 204 990 z "},"H":{"ha":818,"x_min":11,"x_max":836,"o":"m 253 0 l 11 0 l 147 964 l 389 964 l 338 596 l 543 596 l 596 964 l 836 964 l 701 0 l 461 0 l 517 406 l 311 406 l 253 0 z "},"Ħ":{"ha":840,"x_min":22,"x_max":893,"o":"m 893 826 l 874 692 l 810 692 l 713 0 l 472 0 l 528 406 l 322 406 l 264 0 l 22 0 l 119 692 l 57 692 l 75 826 l 139 826 l 158 964 l 400 964 l 381 826 l 588 826 l 607 964 l 847 964 l 828 826 l 893 826 m 554 596 l 568 692 l 363 692 l 349 596 l 554 596 z "},"Ȟ":{"ha":818,"x_min":11,"x_max":836,"o":"m 253 0 l 11 0 l 147 964 l 389 964 l 338 596 l 543 596 l 596 964 l 836 964 l 701 0 l 461 0 l 517 406 l 311 406 l 253 0 m 700 1318 l 778 1225 l 574 1040 l 433 1040 l 276 1232 l 367 1318 l 519 1200 l 700 1318 z "},"Ĥ":{"ha":818,"x_min":11,"x_max":836,"o":"m 253 0 l 11 0 l 147 964 l 389 964 l 338 596 l 543 596 l 596 964 l 836 964 l 701 0 l 461 0 l 517 406 l 311 406 l 253 0 m 336 1049 l 257 1142 l 463 1326 l 601 1326 l 758 1136 l 668 1049 l 517 1168 l 336 1049 z "},"Ḥ":{"ha":818,"x_min":11,"x_max":836,"o":"m 253 0 l 11 0 l 147 964 l 389 964 l 338 596 l 543 596 l 596 964 l 836 964 l 701 0 l 461 0 l 517 406 l 311 406 l 253 0 m 340 -81 q 428 -112 396 -81 q 460 -194 460 -143 q 417 -301 460 -258 q 311 -343 374 -343 q 224 -312 256 -343 q 192 -229 192 -281 q 235 -123 192 -165 q 340 -81 278 -81 z "},"Ɦ":{"ha":1028,"x_min":57,"x_max":1046,"o":"m 1046 964 l 911 0 l 671 0 l 726 406 l 521 406 l 463 0 l 221 0 l 332 790 l 299 790 q 253 771 269 790 q 238 714 238 751 q 247 640 238 685 l 88 582 q 57 721 57 653 q 128 898 57 832 q 317 964 200 964 l 599 964 l 547 596 l 753 596 l 806 964 l 1046 964 z "},"Ɥ":{"ha":774,"x_min":47,"x_max":792,"o":"m 792 964 l 657 0 l 417 0 l 465 346 q 376 295 421 311 q 276 279 331 279 q 107 347 167 279 q 47 528 47 414 q 53 597 47 550 l 104 964 l 340 964 l 289 592 q 286 551 286 564 q 306 481 286 504 q 369 458 325 458 q 488 508 440 458 l 551 964 l 792 964 z "},"Ƕ":{"ha":1168,"x_min":13,"x_max":1142,"o":"m 751 -25 q 607 6 665 -25 q 520 89 549 38 q 492 201 492 140 q 494 236 492 214 l 517 406 l 311 406 l 254 0 l 13 0 l 147 964 l 389 964 l 338 596 l 544 596 l 596 964 l 838 964 l 735 235 q 733 204 733 224 q 743 162 733 176 q 778 147 753 147 q 887 295 856 147 q 918 617 918 443 q 914 739 918 681 l 1133 739 q 1142 599 1142 672 q 1110 271 1142 406 q 993 56 1079 136 q 751 -25 907 -25 z "},"I":{"ha":371,"x_min":13,"x_max":389,"o":"m 389 964 l 254 0 l 13 0 l 147 964 l 389 964 z "},"Ĳ":{"ha":775,"x_min":13,"x_max":796,"o":"m 389 964 l 254 0 l 13 0 l 147 964 l 389 964 m 682 143 q 614 -53 665 24 q 493 -171 563 -129 q 328 -244 424 -212 l 285 -72 q 397 13 365 -37 q 442 158 428 63 l 556 964 l 796 964 l 682 143 z "},"Í":{"ha":371,"x_min":13,"x_max":497,"o":"m 389 964 l 254 0 l 13 0 l 147 964 l 389 964 m 422 1325 l 497 1154 l 174 1035 l 122 1147 l 422 1325 z "},"Ĭ":{"ha":371,"x_min":13,"x_max":533,"o":"m 389 964 l 254 0 l 13 0 l 147 964 l 389 964 m 282 1040 q 130 1110 179 1040 q 88 1278 81 1179 l 208 1296 q 233 1228 211 1254 q 294 1203 256 1203 q 410 1300 371 1203 l 533 1274 q 448 1107 513 1174 q 282 1040 383 1040 z "},"Ǐ":{"ha":371,"x_min":13,"x_max":553,"o":"m 389 964 l 254 0 l 13 0 l 147 964 l 389 964 m 475 1318 l 553 1225 l 349 1040 l 208 1040 l 51 1232 l 142 1318 l 294 1200 l 475 1318 z "},"Î":{"ha":371,"x_min":13,"x_max":533,"o":"m 389 964 l 254 0 l 13 0 l 147 964 l 389 964 m 111 1049 l 32 1142 l 238 1326 l 376 1326 l 533 1136 l 443 1049 l 292 1168 l 111 1049 z "},"Ȉ":{"ha":371,"x_min":-6,"x_max":464,"o":"m 389 964 l 254 0 l 13 0 l 147 964 l 389 964 m 157 1376 l 246 1094 l 121 1042 l -6 1306 l 157 1376 m 386 1376 l 464 1093 l 339 1047 l 222 1311 l 386 1376 z "},"Ï":{"ha":371,"x_min":13,"x_max":560,"o":"m 389 964 l 254 0 l 13 0 l 147 964 l 389 964 m 131 1063 q 56 1090 83 1063 q 28 1163 28 1118 q 65 1255 28 1218 q 157 1292 103 1292 q 232 1265 204 1292 q 260 1192 260 1238 q 222 1099 260 1136 q 131 1063 185 1063 m 431 1063 q 356 1090 383 1063 q 328 1163 328 1118 q 365 1255 328 1218 q 457 1292 403 1292 q 532 1265 504 1292 q 560 1192 560 1238 q 522 1099 560 1136 q 431 1063 485 1063 z "},"Ḯ":{"ha":371,"x_min":13,"x_max":571,"o":"m 389 964 l 254 0 l 13 0 l 147 964 l 389 964 m 431 1543 l 542 1424 l 303 1221 l 224 1296 l 431 1543 m 121 1040 q 46 1068 74 1040 q 18 1140 18 1096 q 56 1232 18 1194 q 149 1269 94 1269 q 224 1242 196 1269 q 251 1169 251 1215 q 213 1078 251 1115 q 121 1040 175 1040 m 442 1040 q 367 1068 394 1040 q 339 1140 339 1096 q 376 1232 339 1194 q 468 1269 414 1269 q 543 1242 515 1269 q 571 1169 571 1215 q 533 1077 571 1114 q 442 1040 496 1040 z "},"İ":{"ha":371,"x_min":13,"x_max":436,"o":"m 389 964 l 254 0 l 13 0 l 147 964 l 389 964 m 288 1046 q 200 1077 232 1046 q 168 1160 168 1108 q 211 1266 168 1224 q 317 1308 254 1308 q 404 1277 372 1308 q 436 1194 436 1246 q 393 1088 436 1131 q 288 1046 350 1046 z "},"Ị":{"ha":371,"x_min":-32,"x_max":389,"o":"m 389 964 l 254 0 l 13 0 l 147 964 l 389 964 m 117 -81 q 204 -112 172 -81 q 236 -194 236 -143 q 193 -301 236 -258 q 88 -343 150 -343 q 0 -312 32 -343 q -32 -229 -32 -281 q 11 -123 -32 -165 q 117 -81 54 -81 z "},"Ì":{"ha":371,"x_min":13,"x_max":488,"o":"m 389 964 l 254 0 l 13 0 l 147 964 l 389 964 m 226 1321 l 488 1144 l 422 1036 l 129 1153 l 226 1321 z "},"Ỉ":{"ha":371,"x_min":13,"x_max":481,"o":"m 389 964 l 254 0 l 13 0 l 147 964 l 389 964 m 232 1186 q 305 1203 282 1189 q 328 1246 328 1217 q 286 1281 328 1281 q 251 1276 267 1281 q 211 1261 235 1271 l 188 1358 q 326 1393 250 1393 q 440 1356 400 1393 q 481 1261 481 1319 q 447 1167 481 1203 q 354 1118 414 1131 l 347 1061 l 218 1061 l 232 1186 z "},"Ȋ":{"ha":371,"x_min":13,"x_max":514,"o":"m 389 964 l 254 0 l 13 0 l 147 964 l 389 964 m 57 1081 q 148 1260 82 1190 q 317 1329 214 1329 q 470 1258 421 1329 q 513 1078 519 1186 l 386 1060 q 300 1165 379 1165 q 179 1056 218 1165 l 57 1081 z "},"Ī":{"ha":371,"x_min":13,"x_max":501,"o":"m 389 964 l 254 0 l 13 0 l 147 964 l 389 964 m 478 1082 l 85 1082 l 108 1244 l 501 1244 l 478 1082 z "},"Į":{"ha":371,"x_min":-133,"x_max":389,"o":"m 389 964 l 254 0 l 197 0 q 68 -78 103 -37 q 33 -156 33 -118 q 89 -201 33 -201 q 163 -193 122 -201 l 131 -333 q 40 -344 89 -344 q -85 -303 -36 -344 q -133 -192 -133 -262 q 14 14 -133 -67 l 147 964 l 389 964 z "},"Ɩ":{"ha":497,"x_min":31,"x_max":467,"o":"m 467 33 q 271 -24 383 -24 q 94 32 157 -24 q 31 194 31 88 q 33 243 31 226 l 39 286 l 135 964 l 376 964 l 281 286 l 279 286 l 272 224 q 271 206 271 217 q 321 153 271 153 q 362 158 344 153 q 410 176 379 163 l 467 33 z "},"Ɨ":{"ha":424,"x_min":11,"x_max":449,"o":"m 449 589 l 424 410 l 340 410 l 283 0 l 42 0 l 99 410 l 11 410 l 36 589 l 124 589 l 176 964 l 418 964 l 365 589 l 449 589 z "},"Ĩ":{"ha":371,"x_min":13,"x_max":549,"o":"m 389 964 l 254 0 l 13 0 l 147 964 l 389 964 m 360 1051 q 317 1061 336 1051 q 274 1088 299 1071 q 258 1098 269 1090 q 238 1109 247 1106 q 221 1113 229 1113 q 184 1098 200 1113 q 147 1051 168 1083 l 44 1110 q 130 1232 81 1185 q 233 1279 179 1279 q 282 1269 261 1279 q 326 1242 303 1260 q 353 1224 342 1229 q 375 1218 364 1218 q 410 1233 394 1218 q 446 1278 426 1247 l 549 1221 q 463 1099 513 1146 q 360 1051 413 1051 z "},"J":{"ha":404,"x_min":-86,"x_max":425,"o":"m 311 143 q 243 -53 294 24 q 122 -171 192 -129 q -43 -244 53 -212 l -86 -72 q 26 13 -6 -37 q 71 158 57 63 l 185 964 l 425 964 l 311 143 z "},"Ĵ":{"ha":404,"x_min":-86,"x_max":569,"o":"m 311 143 q 243 -53 294 24 q 122 -171 192 -129 q -43 -244 53 -212 l -86 -72 q 26 13 -6 -37 q 71 158 57 63 l 185 964 l 425 964 l 311 143 m 147 1049 l 68 1142 l 274 1326 l 413 1326 l 569 1136 l 479 1049 l 328 1168 l 147 1049 z "},"Ʝ":{"ha":475,"x_min":-168,"x_max":494,"o":"m 358 -12 q 467 -65 419 -33 l 414 -157 q 331 -121 394 -144 q 222 -263 294 -217 q 31 -310 150 -310 q -116 -268 -64 -310 q -168 -150 -168 -226 q -106 -15 -168 -64 q 49 33 -44 33 q 122 29 97 33 l 253 964 l 494 964 l 363 11 l 358 -12 m 19 -190 q 76 -165 57 -190 q 107 -81 96 -139 q 46 -76 82 -76 q -9 -94 10 -76 q -28 -143 -28 -112 q 19 -190 -28 -190 z "},"Ɉ":{"ha":426,"x_min":-87,"x_max":451,"o":"m 426 386 l 343 386 l 310 143 q 242 -53 293 24 q 121 -171 190 -129 q -44 -244 51 -212 l -87 -72 q 24 13 -7 -37 q 69 158 56 63 l 101 386 l 14 386 l 39 567 l 128 567 l 183 964 l 424 964 l 368 567 l 451 567 l 426 386 z "},"K":{"ha":815,"x_min":13,"x_max":890,"o":"m 13 0 l 147 964 l 389 964 l 254 0 l 13 0 m 511 0 l 333 514 l 642 964 l 890 964 l 579 519 l 778 0 l 511 0 z "},"Ǩ":{"ha":815,"x_min":13,"x_max":890,"o":"m 13 0 l 147 964 l 389 964 l 254 0 l 13 0 m 511 0 l 333 514 l 642 964 l 890 964 l 579 519 l 778 0 l 511 0 m 700 1318 l 778 1225 l 574 1040 l 433 1040 l 276 1232 l 367 1318 l 519 1200 l 700 1318 z "},"Ķ":{"ha":815,"x_min":13,"x_max":890,"o":"m 13 0 l 147 964 l 389 964 l 254 0 l 13 0 m 511 0 l 333 514 l 642 964 l 890 964 l 579 519 l 778 0 l 511 0 m 347 -92 q 422 -119 393 -92 q 450 -190 450 -147 q 439 -251 450 -224 q 399 -328 428 -279 l 319 -458 l 208 -458 l 267 -296 q 226 -221 226 -269 q 261 -128 226 -164 q 347 -92 296 -92 z "},"Ƙ":{"ha":835,"x_min":13,"x_max":931,"o":"m 333 514 l 540 833 q 648 954 594 919 q 782 989 701 989 q 867 975 832 989 q 931 936 901 961 l 851 803 q 806 815 826 815 q 767 803 783 815 q 729 760 751 792 l 581 521 l 778 0 l 510 0 l 333 514 m 13 0 l 147 964 l 389 964 l 254 0 l 13 0 z "},"L":{"ha":640,"x_min":13,"x_max":607,"o":"m 389 964 l 281 192 l 607 192 l 554 0 l 13 0 l 147 964 l 389 964 z "},"Ǉ":{"ha":1011,"x_min":13,"x_max":1032,"o":"m 389 964 l 281 192 l 607 192 l 554 0 l 13 0 l 147 964 l 389 964 m 918 143 q 850 -53 901 24 q 729 -171 799 -129 q 564 -244 660 -212 l 521 -72 q 633 13 601 -37 q 678 158 664 63 l 792 964 l 1032 964 l 918 143 z "},"Ĺ":{"ha":640,"x_min":13,"x_max":607,"o":"m 389 964 l 281 192 l 607 192 l 554 0 l 13 0 l 147 964 l 389 964 m 422 1325 l 497 1154 l 174 1035 l 122 1147 l 422 1325 z "},"Ƚ":{"ha":664,"x_min":13,"x_max":631,"o":"m 304 192 l 631 192 l 578 0 l 36 0 l 94 414 l 13 414 l 38 594 l 119 594 l 171 964 l 413 964 l 361 594 l 450 594 l 425 414 l 335 414 l 304 192 z "},"Ɬ":{"ha":794,"x_min":19,"x_max":761,"o":"m 761 192 l 708 0 l 167 0 l 215 349 q 69 397 119 351 q 19 517 19 442 q 73 649 19 600 q 213 699 126 699 q 264 693 246 699 l 301 964 l 543 964 l 476 485 q 606 499 542 489 l 608 372 q 457 354 539 358 l 435 192 l 761 192 m 172 528 q 233 481 172 481 l 247 575 q 218 579 236 579 q 185 565 197 579 q 172 528 172 551 z "},"Ľ":{"ha":640,"x_min":13,"x_max":619,"o":"m 389 964 l 281 192 l 607 192 l 554 0 l 13 0 l 147 964 l 389 964 m 454 985 l 619 964 l 517 656 l 400 667 l 454 985 z "},"Ḽ":{"ha":640,"x_min":-10,"x_max":607,"o":"m 389 964 l 281 192 l 607 192 l 554 0 l 13 0 l 147 964 l 389 964 m 65 -375 l -10 -282 l 196 -86 l 336 -86 l 492 -289 l 397 -375 l 250 -246 l 65 -375 z "},"Ļ":{"ha":640,"x_min":13,"x_max":607,"o":"m 389 964 l 281 192 l 607 192 l 554 0 l 13 0 l 147 964 l 389 964 m 274 -92 q 348 -119 319 -92 q 376 -190 376 -147 q 365 -251 376 -224 q 325 -328 354 -279 l 246 -458 l 135 -458 l 193 -296 q 153 -221 153 -269 q 188 -128 153 -164 q 274 -92 222 -92 z "},"Ŀ":{"ha":640,"x_min":13,"x_max":660,"o":"m 389 964 l 281 192 l 607 192 l 554 0 l 13 0 l 147 964 l 389 964 m 511 424 q 424 455 456 424 q 392 538 392 486 q 435 644 392 601 q 540 686 478 686 q 628 655 596 686 q 660 572 660 624 q 617 466 660 508 q 511 424 574 424 z "},"Ḷ":{"ha":640,"x_min":13,"x_max":607,"o":"m 389 964 l 281 192 l 607 192 l 554 0 l 13 0 l 147 964 l 389 964 m 267 -81 q 354 -112 322 -81 q 386 -194 386 -143 q 343 -301 386 -258 q 238 -343 300 -343 q 150 -312 182 -343 q 118 -229 118 -281 q 161 -123 118 -165 q 267 -81 204 -81 z "},"ǈ":{"ha":971,"x_min":13,"x_max":1018,"o":"m 389 964 l 281 192 l 607 192 l 554 0 l 13 0 l 147 964 l 389 964 m 474 -142 q 589 -63 551 -110 q 639 78 626 -17 l 731 739 l 964 739 l 872 88 q 806 -112 854 -35 q 691 -232 758 -189 q 528 -310 624 -275 l 474 -142 m 869 871 q 782 902 814 871 q 750 985 750 933 q 793 1091 750 1049 q 899 1133 836 1133 q 986 1102 954 1133 q 1018 1019 1018 1071 q 975 913 1018 956 q 869 871 932 871 z "},"Ł":{"ha":696,"x_min":4,"x_max":663,"o":"m 336 192 l 663 192 l 610 0 l 68 0 l 110 303 l 63 272 l 4 393 l 135 474 l 203 964 l 444 964 l 399 636 l 550 729 l 610 610 l 375 465 l 336 192 z "},"M":{"ha":989,"x_min":-19,"x_max":976,"o":"m 904 0 l 668 0 l 708 367 q 769 781 731 557 l 571 100 l 339 100 l 313 779 q 272 363 300 544 l 215 0 l -19 0 l 176 964 l 467 964 l 482 300 l 667 964 l 976 964 l 904 0 z "},"Ḿ":{"ha":989,"x_min":-19,"x_max":976,"o":"m 904 0 l 668 0 l 708 367 q 769 781 731 557 l 571 100 l 339 100 l 313 779 q 272 363 300 544 l 215 0 l -19 0 l 176 964 l 467 964 l 482 300 l 667 964 l 976 964 l 904 0 m 722 1325 l 797 1154 l 474 1035 l 422 1147 l 722 1325 z "},"Ṁ":{"ha":989,"x_min":-19,"x_max":976,"o":"m 904 0 l 668 0 l 708 367 q 769 781 731 557 l 571 100 l 339 100 l 313 779 q 272 363 300 544 l 215 0 l -19 0 l 176 964 l 467 964 l 482 300 l 667 964 l 976 964 l 904 0 m 588 1046 q 500 1077 532 1046 q 468 1160 468 1108 q 511 1266 468 1224 q 617 1308 554 1308 q 704 1277 672 1308 q 736 1194 736 1246 q 693 1088 736 1131 q 588 1046 650 1046 z "},"Ɯ":{"ha":1124,"x_min":26,"x_max":1142,"o":"m 1142 964 l 1007 0 l 794 0 l 789 83 q 691 0 738 25 q 589 -25 644 -25 q 484 6 526 -25 q 424 92 442 38 q 321 3 374 31 q 206 -25 268 -25 q 74 32 121 -25 q 26 179 26 89 q 31 228 26 203 l 135 964 l 376 964 l 274 235 q 272 213 272 226 q 283 171 272 186 q 314 156 294 156 q 365 176 340 156 q 415 238 389 196 l 517 964 l 758 964 l 657 238 q 656 214 656 229 q 667 171 656 186 q 697 156 678 156 q 747 176 722 156 q 797 239 771 196 l 900 964 l 1142 964 z "},"N":{"ha":814,"x_min":13,"x_max":832,"o":"m 697 0 l 401 0 l 283 761 l 285 715 q 288 617 288 651 q 267 325 288 481 l 224 0 l 13 0 l 147 964 l 442 964 l 560 203 l 558 260 q 556 349 556 321 q 574 613 556 463 l 621 964 l 832 964 l 697 0 z "},"Ǌ":{"ha":1218,"x_min":13,"x_max":1239,"o":"m 697 0 l 401 0 l 283 761 l 285 715 q 288 617 288 651 q 267 325 288 481 l 224 0 l 13 0 l 147 964 l 442 964 l 560 203 l 558 260 q 556 349 556 321 q 574 613 556 463 l 621 964 l 832 964 l 697 0 m 1125 143 q 1057 -53 1108 24 q 936 -171 1006 -129 q 771 -244 867 -212 l 728 -72 q 840 13 808 -37 q 885 158 871 63 l 999 964 l 1239 964 l 1125 143 z "},"Ń":{"ha":814,"x_min":13,"x_max":832,"o":"m 697 0 l 401 0 l 283 761 l 285 715 q 288 617 288 651 q 267 325 288 481 l 224 0 l 13 0 l 147 964 l 442 964 l 560 203 l 558 260 q 556 349 556 321 q 574 613 556 463 l 621 964 l 832 964 l 697 0 m 646 1325 l 721 1154 l 397 1035 l 346 1147 l 646 1325 z "},"Ň":{"ha":814,"x_min":13,"x_max":832,"o":"m 697 0 l 401 0 l 283 761 l 285 715 q 288 617 288 651 q 267 325 288 481 l 224 0 l 13 0 l 147 964 l 442 964 l 560 203 l 558 260 q 556 349 556 321 q 574 613 556 463 l 621 964 l 832 964 l 697 0 m 699 1318 l 776 1225 l 572 1040 l 432 1040 l 275 1232 l 365 1318 l 518 1200 l 699 1318 z "},"Ṋ":{"ha":814,"x_min":13,"x_max":832,"o":"m 697 0 l 401 0 l 283 761 l 285 715 q 288 617 288 651 q 267 325 288 481 l 224 0 l 13 0 l 147 964 l 442 964 l 560 203 l 558 260 q 556 349 556 321 q 574 613 556 463 l 621 964 l 832 964 l 697 0 m 138 -375 l 63 -282 l 268 -86 l 408 -86 l 564 -289 l 469 -375 l 322 -246 l 138 -375 z "},"Ņ":{"ha":814,"x_min":13,"x_max":832,"o":"m 697 0 l 401 0 l 283 761 l 285 715 q 288 617 288 651 q 267 325 288 481 l 224 0 l 13 0 l 147 964 l 442 964 l 560 203 l 558 260 q 556 349 556 321 q 574 613 556 463 l 621 964 l 832 964 l 697 0 m 346 -92 q 420 -119 392 -92 q 449 -190 449 -147 q 438 -251 449 -224 q 397 -328 426 -279 l 318 -458 l 207 -458 l 265 -296 q 225 -221 225 -269 q 260 -128 225 -164 q 346 -92 294 -92 z "},"Ṅ":{"ha":814,"x_min":13,"x_max":832,"o":"m 697 0 l 401 0 l 283 761 l 285 715 q 288 617 288 651 q 267 325 288 481 l 224 0 l 13 0 l 147 964 l 442 964 l 560 203 l 558 260 q 556 349 556 321 q 574 613 556 463 l 621 964 l 832 964 l 697 0 m 511 1046 q 424 1077 456 1046 q 392 1160 392 1108 q 435 1266 392 1224 q 540 1308 478 1308 q 628 1277 596 1308 q 660 1194 660 1246 q 617 1088 660 1131 q 511 1046 574 1046 z "},"Ṇ":{"ha":814,"x_min":13,"x_max":832,"o":"m 697 0 l 401 0 l 283 761 l 285 715 q 288 617 288 651 q 267 325 288 481 l 224 0 l 13 0 l 147 964 l 442 964 l 560 203 l 558 260 q 556 349 556 321 q 574 613 556 463 l 621 964 l 832 964 l 697 0 m 339 -81 q 426 -112 394 -81 q 458 -194 458 -143 q 415 -301 458 -258 q 310 -343 372 -343 q 222 -312 254 -343 q 190 -229 190 -281 q 233 -123 190 -165 q 339 -81 276 -81 z "},"Ǹ":{"ha":814,"x_min":13,"x_max":832,"o":"m 697 0 l 401 0 l 283 761 l 285 715 q 288 617 288 651 q 267 325 288 481 l 224 0 l 13 0 l 147 964 l 442 964 l 560 203 l 558 260 q 556 349 556 321 q 574 613 556 463 l 621 964 l 832 964 l 697 0 m 450 1321 l 711 1144 l 646 1036 l 353 1153 l 450 1321 z "},"Ŋ":{"ha":814,"x_min":13,"x_max":832,"o":"m 832 964 l 697 0 l 690 -47 q 588 -244 669 -176 q 383 -311 507 -311 q 199 -249 267 -311 l 294 -108 q 333 -128 317 -122 q 372 -133 349 -133 q 449 -58 436 -133 l 456 0 l 401 0 l 283 761 l 285 715 q 288 617 288 651 q 267 325 288 481 l 224 0 l 13 0 l 147 964 l 442 964 l 560 203 l 558 260 q 556 349 556 321 q 574 613 556 463 l 621 964 l 832 964 z "},"Ɲ":{"ha":814,"x_min":-244,"x_max":832,"o":"m 832 964 l 697 0 l 401 0 l 283 761 l 285 715 q 288 617 288 651 q 267 325 288 481 l 224 0 l 215 -56 q 126 -245 197 -181 q -62 -310 54 -310 q -244 -249 -174 -310 l -149 -117 q -109 -136 -125 -131 q -71 -142 -93 -142 q -19 -121 -39 -142 q 6 -58 0 -100 l 13 0 l 147 964 l 442 964 l 560 203 l 558 260 q 556 349 556 321 q 574 613 556 463 l 621 964 l 832 964 z "},"ǋ":{"ha":1165,"x_min":13,"x_max":1213,"o":"m 697 0 l 401 0 l 283 761 l 285 715 q 288 617 288 651 q 267 325 288 481 l 224 0 l 13 0 l 147 964 l 442 964 l 560 203 l 558 260 q 556 349 556 321 q 574 613 556 463 l 621 964 l 832 964 l 697 0 m 668 -142 q 783 -63 746 -110 q 833 78 821 -17 l 925 739 l 1158 739 l 1067 88 q 1001 -112 1049 -35 q 885 -232 953 -189 q 722 -310 818 -275 l 668 -142 m 1064 871 q 976 902 1008 871 q 944 985 944 933 q 988 1091 944 1049 q 1093 1133 1031 1133 q 1181 1102 1149 1133 q 1213 1019 1213 1071 q 1169 913 1213 956 q 1064 871 1126 871 z "},"Ƞ":{"ha":803,"x_min":13,"x_max":797,"o":"m 600 990 q 747 933 696 990 q 797 785 797 876 q 794 738 797 754 l 653 -294 l 411 -294 l 550 715 q 551 743 551 725 q 496 808 551 808 q 429 790 463 808 q 357 735 396 772 l 253 0 l 13 0 l 147 964 l 358 964 l 364 888 q 477 965 419 939 q 600 990 535 990 z "},"Ñ":{"ha":814,"x_min":13,"x_max":832,"o":"m 697 0 l 401 0 l 283 761 l 285 715 q 288 617 288 651 q 267 325 288 481 l 224 0 l 13 0 l 147 964 l 442 964 l 560 203 l 558 260 q 556 349 556 321 q 574 613 556 463 l 621 964 l 832 964 l 697 0 m 583 1051 q 541 1061 560 1051 q 497 1088 522 1071 q 482 1098 493 1090 q 462 1109 471 1106 q 444 1113 453 1113 q 408 1098 424 1113 q 371 1051 392 1083 l 268 1110 q 353 1232 304 1185 q 457 1279 403 1279 q 506 1269 485 1279 q 550 1242 526 1260 q 576 1224 565 1229 q 599 1218 588 1218 q 634 1233 618 1218 q 669 1278 650 1247 l 772 1221 q 686 1099 736 1146 q 583 1051 636 1051 z "},"O":{"ha":867,"x_min":43,"x_max":856,"o":"m 517 990 q 769 893 682 990 q 856 611 856 796 q 807 304 856 449 q 651 67 758 160 q 381 -25 544 -25 q 130 72 217 -25 q 43 353 43 169 q 92 660 43 515 q 247 898 140 806 q 517 990 353 990 m 501 811 q 377 729 425 811 q 309 533 329 647 q 289 318 289 419 q 316 192 289 231 q 397 153 343 153 q 522 234 475 153 q 589 428 569 315 q 608 646 608 542 q 582 772 608 733 q 501 811 556 811 z "},"Ȣ":{"ha":813,"x_min":24,"x_max":815,"o":"m 785 746 q 633 551 765 610 q 771 346 771 493 q 717 152 771 236 q 569 22 664 68 q 357 -25 475 -25 q 178 13 253 -25 q 63 115 103 50 q 24 261 24 181 q 78 440 24 367 q 229 550 132 513 q 157 613 182 574 q 132 711 132 651 q 135 749 132 721 l 164 964 l 406 964 l 372 732 q 369 699 369 707 q 387 644 369 661 q 442 626 404 626 q 512 655 489 626 q 542 736 535 683 l 574 964 l 815 964 l 785 746 m 376 153 q 481 203 442 153 q 519 339 519 254 q 494 426 519 394 q 419 457 468 457 q 315 405 356 457 q 275 268 275 353 q 301 183 275 213 q 376 153 326 153 z "},"Ó":{"ha":867,"x_min":43,"x_max":856,"o":"m 517 990 q 769 893 682 990 q 856 611 856 796 q 807 304 856 449 q 651 67 758 160 q 381 -25 544 -25 q 130 72 217 -25 q 43 353 43 169 q 92 660 43 515 q 247 898 140 806 q 517 990 353 990 m 501 811 q 377 729 425 811 q 309 533 329 647 q 289 318 289 419 q 316 192 289 231 q 397 153 343 153 q 522 234 475 153 q 589 428 569 315 q 608 646 608 542 q 582 772 608 733 q 501 811 556 811 m 671 1325 l 746 1154 l 422 1035 l 371 1147 l 671 1325 z "},"Ŏ":{"ha":867,"x_min":43,"x_max":856,"o":"m 517 990 q 769 893 682 990 q 856 611 856 796 q 807 304 856 449 q 651 67 758 160 q 381 -25 544 -25 q 130 72 217 -25 q 43 353 43 169 q 92 660 43 515 q 247 898 140 806 q 517 990 353 990 m 501 811 q 377 729 425 811 q 309 533 329 647 q 289 318 289 419 q 316 192 289 231 q 397 153 343 153 q 522 234 475 153 q 589 428 569 315 q 608 646 608 542 q 582 772 608 733 q 501 811 556 811 m 531 1040 q 378 1110 428 1040 q 336 1278 329 1179 l 457 1296 q 482 1228 460 1254 q 543 1203 504 1203 q 658 1300 619 1203 l 782 1274 q 697 1107 761 1174 q 531 1040 632 1040 z "},"Ǒ":{"ha":867,"x_min":43,"x_max":856,"o":"m 517 990 q 769 893 682 990 q 856 611 856 796 q 807 304 856 449 q 651 67 758 160 q 381 -25 544 -25 q 130 72 217 -25 q 43 353 43 169 q 92 660 43 515 q 247 898 140 806 q 517 990 353 990 m 501 811 q 377 729 425 811 q 309 533 329 647 q 289 318 289 419 q 316 192 289 231 q 397 153 343 153 q 522 234 475 153 q 589 428 569 315 q 608 646 608 542 q 582 772 608 733 q 501 811 556 811 m 724 1318 l 801 1225 l 597 1040 l 457 1040 l 300 1232 l 390 1318 l 543 1200 l 724 1318 z "},"Ɵ":{"ha":867,"x_min":43,"x_max":856,"o":"m 517 990 q 769 893 682 990 q 856 611 856 796 q 807 304 856 449 q 651 67 758 160 q 381 -25 544 -25 q 130 72 217 -25 q 43 353 43 169 q 92 660 43 515 q 247 898 140 806 q 517 990 353 990 m 506 817 q 377 743 426 817 q 303 554 328 669 l 618 554 q 621 643 621 618 q 593 776 621 736 q 506 817 565 817 m 393 147 q 526 224 475 147 q 600 421 576 300 l 282 421 q 278 319 278 365 q 306 188 278 228 q 393 147 333 147 z "},"Ô":{"ha":867,"x_min":43,"x_max":856,"o":"m 517 990 q 769 893 682 990 q 856 611 856 796 q 807 304 856 449 q 651 67 758 160 q 381 -25 544 -25 q 130 72 217 -25 q 43 353 43 169 q 92 660 43 515 q 247 898 140 806 q 517 990 353 990 m 501 811 q 377 729 425 811 q 309 533 329 647 q 289 318 289 419 q 316 192 289 231 q 397 153 343 153 q 522 234 475 153 q 589 428 569 315 q 608 646 608 542 q 582 772 608 733 q 501 811 556 811 m 360 1049 l 281 1142 l 486 1326 l 625 1326 l 782 1136 l 692 1049 l 540 1168 l 360 1049 z "},"Ố":{"ha":867,"x_min":43,"x_max":988,"o":"m 876 1538 l 988 1418 l 749 1215 l 669 1290 l 876 1538 m 356 1004 l 276 1097 l 482 1282 l 621 1282 l 778 1092 l 688 1004 l 536 1124 l 356 1004 m 517 990 q 769 893 682 990 q 856 611 856 796 q 807 304 856 449 q 651 67 758 160 q 381 -25 544 -25 q 130 72 217 -25 q 43 353 43 169 q 92 660 43 515 q 247 898 140 806 q 517 990 353 990 m 501 811 q 377 729 425 811 q 309 533 329 647 q 289 318 289 419 q 316 192 289 231 q 397 153 343 153 q 522 234 475 153 q 589 428 569 315 q 608 646 608 542 q 582 772 608 733 q 501 811 556 811 z "},"Ộ":{"ha":867,"x_min":43,"x_max":856,"o":"m 517 990 q 769 893 682 990 q 856 611 856 796 q 807 304 856 449 q 651 67 758 160 q 381 -25 544 -25 q 130 72 217 -25 q 43 353 43 169 q 92 660 43 515 q 247 898 140 806 q 517 990 353 990 m 501 811 q 377 729 425 811 q 309 533 329 647 q 289 318 289 419 q 316 192 289 231 q 397 153 343 153 q 522 234 475 153 q 589 428 569 315 q 608 646 608 542 q 582 772 608 733 q 501 811 556 811 m 360 1049 l 281 1142 l 486 1326 l 625 1326 l 782 1136 l 692 1049 l 540 1168 l 360 1049 m 365 -81 q 453 -112 421 -81 q 485 -194 485 -143 q 442 -301 485 -258 q 336 -343 399 -343 q 249 -312 281 -343 q 217 -229 217 -281 q 260 -123 217 -165 q 365 -81 303 -81 z "},"Ồ":{"ha":867,"x_min":43,"x_max":856,"o":"m 290 1535 l 428 1283 l 332 1215 l 151 1426 l 290 1535 m 357 1004 l 278 1097 l 483 1282 l 622 1282 l 779 1092 l 689 1004 l 538 1124 l 357 1004 m 517 990 q 769 893 682 990 q 856 611 856 796 q 807 304 856 449 q 651 67 758 160 q 381 -25 544 -25 q 130 72 217 -25 q 43 353 43 169 q 92 660 43 515 q 247 898 140 806 q 517 990 353 990 m 501 811 q 377 729 425 811 q 309 533 329 647 q 289 318 289 419 q 316 192 289 231 q 397 153 343 153 q 522 234 475 153 q 589 428 569 315 q 608 646 608 542 q 582 772 608 733 q 501 811 556 811 z "},"Ổ":{"ha":867,"x_min":43,"x_max":958,"o":"m 517 990 q 769 893 682 990 q 856 611 856 796 q 807 304 856 449 q 651 67 758 160 q 381 -25 544 -25 q 130 72 217 -25 q 43 353 43 169 q 92 660 43 515 q 247 898 140 806 q 517 990 353 990 m 501 811 q 377 729 425 811 q 309 533 329 647 q 289 318 289 419 q 316 192 289 231 q 397 153 343 153 q 522 234 475 153 q 589 428 569 315 q 608 646 608 542 q 582 772 608 733 q 501 811 556 811 m 353 1004 l 274 1097 l 479 1282 l 618 1282 l 775 1092 l 685 1004 l 533 1124 l 353 1004 m 710 1324 q 783 1340 760 1326 q 806 1383 806 1354 q 764 1418 806 1418 q 728 1413 744 1418 q 689 1399 713 1408 l 665 1496 q 804 1531 728 1531 q 918 1494 878 1531 q 958 1399 958 1457 q 925 1304 958 1340 q 832 1256 892 1268 l 825 1199 l 696 1199 l 710 1324 z "},"Ỗ":{"ha":867,"x_min":43,"x_max":856,"o":"m 638 1319 q 597 1328 615 1319 q 553 1353 578 1336 q 524 1371 536 1365 q 501 1376 513 1376 q 465 1363 481 1376 q 428 1319 449 1349 l 328 1374 q 411 1485 363 1442 q 514 1529 460 1529 q 561 1520 542 1529 q 604 1496 581 1511 q 653 1474 633 1474 q 686 1486 671 1474 q 722 1528 701 1499 l 824 1476 q 740 1363 789 1407 q 638 1319 690 1319 m 356 1004 l 276 1097 l 482 1282 l 621 1282 l 778 1092 l 688 1004 l 536 1124 l 356 1004 m 517 990 q 769 893 682 990 q 856 611 856 796 q 807 304 856 449 q 651 67 758 160 q 381 -25 544 -25 q 130 72 217 -25 q 43 353 43 169 q 92 660 43 515 q 247 898 140 806 q 517 990 353 990 m 501 811 q 377 729 425 811 q 309 533 329 647 q 289 318 289 419 q 316 192 289 231 q 397 153 343 153 q 522 234 475 153 q 589 428 569 315 q 608 646 608 542 q 582 772 608 733 q 501 811 556 811 z "},"Ȍ":{"ha":867,"x_min":43,"x_max":856,"o":"m 517 990 q 769 893 682 990 q 856 611 856 796 q 807 304 856 449 q 651 67 758 160 q 381 -25 544 -25 q 130 72 217 -25 q 43 353 43 169 q 92 660 43 515 q 247 898 140 806 q 517 990 353 990 m 501 811 q 377 729 425 811 q 309 533 329 647 q 289 318 289 419 q 316 192 289 231 q 397 153 343 153 q 522 234 475 153 q 589 428 569 315 q 608 646 608 542 q 582 772 608 733 q 501 811 556 811 m 406 1376 l 494 1094 l 369 1042 l 243 1306 l 406 1376 m 635 1376 l 713 1093 l 588 1047 l 471 1311 l 635 1376 z "},"Ö":{"ha":867,"x_min":43,"x_max":856,"o":"m 517 990 q 769 893 682 990 q 856 611 856 796 q 807 304 856 449 q 651 67 758 160 q 381 -25 544 -25 q 130 72 217 -25 q 43 353 43 169 q 92 660 43 515 q 247 898 140 806 q 517 990 353 990 m 501 811 q 377 729 425 811 q 309 533 329 647 q 289 318 289 419 q 316 192 289 231 q 397 153 343 153 q 522 234 475 153 q 589 428 569 315 q 608 646 608 542 q 582 772 608 733 q 501 811 556 811 m 379 1063 q 304 1090 332 1063 q 276 1163 276 1118 q 314 1255 276 1218 q 406 1292 351 1292 q 481 1265 453 1292 q 508 1192 508 1238 q 471 1099 508 1136 q 379 1063 433 1063 m 679 1063 q 604 1090 632 1063 q 576 1163 576 1118 q 614 1255 576 1218 q 706 1292 651 1292 q 781 1265 753 1292 q 808 1192 808 1238 q 771 1099 808 1136 q 679 1063 733 1063 z "},"Ȫ":{"ha":867,"x_min":43,"x_max":856,"o":"m 517 990 q 769 893 682 990 q 856 611 856 796 q 807 304 856 449 q 651 67 758 160 q 381 -25 544 -25 q 130 72 217 -25 q 43 353 43 169 q 92 660 43 515 q 247 898 140 806 q 517 990 353 990 m 501 811 q 377 729 425 811 q 309 533 329 647 q 289 318 289 419 q 316 192 289 231 q 397 153 343 153 q 522 234 475 153 q 589 428 569 315 q 608 646 608 542 q 582 772 608 733 q 501 811 556 811 m 376 1036 q 301 1064 329 1036 q 274 1136 274 1092 q 311 1228 274 1192 q 403 1265 349 1265 q 478 1238 450 1265 q 506 1165 506 1211 q 468 1073 506 1110 q 376 1036 431 1036 m 676 1036 q 601 1064 629 1036 q 574 1136 574 1092 q 611 1228 574 1192 q 703 1265 649 1265 q 778 1238 750 1265 q 806 1165 806 1211 q 768 1073 806 1110 q 676 1036 731 1036 m 753 1319 l 360 1319 l 383 1482 l 776 1482 l 753 1319 z "},"Ȯ":{"ha":867,"x_min":43,"x_max":856,"o":"m 517 990 q 769 893 682 990 q 856 611 856 796 q 807 304 856 449 q 651 67 758 160 q 381 -25 544 -25 q 130 72 217 -25 q 43 353 43 169 q 92 660 43 515 q 247 898 140 806 q 517 990 353 990 m 501 811 q 377 729 425 811 q 309 533 329 647 q 289 318 289 419 q 316 192 289 231 q 397 153 343 153 q 522 234 475 153 q 589 428 569 315 q 608 646 608 542 q 582 772 608 733 q 501 811 556 811 m 536 1046 q 449 1077 481 1046 q 417 1160 417 1108 q 460 1266 417 1224 q 565 1308 503 1308 q 653 1277 621 1308 q 685 1194 685 1246 q 642 1088 685 1131 q 536 1046 599 1046 z "},"Ȱ":{"ha":867,"x_min":43,"x_max":856,"o":"m 517 990 q 769 893 682 990 q 856 611 856 796 q 807 304 856 449 q 651 67 758 160 q 381 -25 544 -25 q 130 72 217 -25 q 43 353 43 169 q 92 660 43 515 q 247 898 140 806 q 517 990 353 990 m 501 811 q 377 729 425 811 q 309 533 329 647 q 289 318 289 419 q 316 192 289 231 q 397 153 343 153 q 522 234 475 153 q 589 428 569 315 q 608 646 608 542 q 582 772 608 733 q 501 811 556 811 m 525 1021 q 438 1052 469 1021 q 406 1135 406 1083 q 449 1241 406 1199 q 554 1283 492 1283 q 642 1252 610 1283 q 674 1169 674 1221 q 631 1063 674 1106 q 525 1021 588 1021 m 763 1321 l 369 1321 l 393 1483 l 786 1483 l 763 1321 z "},"Ọ":{"ha":867,"x_min":43,"x_max":856,"o":"m 517 990 q 769 893 682 990 q 856 611 856 796 q 807 304 856 449 q 651 67 758 160 q 381 -25 544 -25 q 130 72 217 -25 q 43 353 43 169 q 92 660 43 515 q 247 898 140 806 q 517 990 353 990 m 501 811 q 377 729 425 811 q 309 533 329 647 q 289 318 289 419 q 316 192 289 231 q 397 153 343 153 q 522 234 475 153 q 589 428 569 315 q 608 646 608 542 q 582 772 608 733 q 501 811 556 811 m 365 -81 q 453 -112 421 -81 q 485 -194 485 -143 q 442 -301 485 -258 q 336 -343 399 -343 q 249 -312 281 -343 q 217 -229 217 -281 q 260 -123 217 -165 q 365 -81 303 -81 z "},"Ò":{"ha":867,"x_min":43,"x_max":856,"o":"m 517 990 q 769 893 682 990 q 856 611 856 796 q 807 304 856 449 q 651 67 758 160 q 381 -25 544 -25 q 130 72 217 -25 q 43 353 43 169 q 92 660 43 515 q 247 898 140 806 q 517 990 353 990 m 501 811 q 377 729 425 811 q 309 533 329 647 q 289 318 289 419 q 316 192 289 231 q 397 153 343 153 q 522 234 475 153 q 589 428 569 315 q 608 646 608 542 q 582 772 608 733 q 501 811 556 811 m 475 1321 l 736 1144 l 671 1036 l 378 1153 l 475 1321 z "},"Ỏ":{"ha":867,"x_min":43,"x_max":856,"o":"m 517 990 q 769 893 682 990 q 856 611 856 796 q 807 304 856 449 q 651 67 758 160 q 381 -25 544 -25 q 130 72 217 -25 q 43 353 43 169 q 92 660 43 515 q 247 898 140 806 q 517 990 353 990 m 501 811 q 377 729 425 811 q 309 533 329 647 q 289 318 289 419 q 316 192 289 231 q 397 153 343 153 q 522 234 475 153 q 589 428 569 315 q 608 646 608 542 q 582 772 608 733 q 501 811 556 811 m 481 1186 q 553 1203 531 1189 q 576 1246 576 1217 q 535 1281 576 1281 q 499 1276 515 1281 q 460 1261 483 1271 l 436 1358 q 575 1393 499 1393 q 689 1356 649 1393 q 729 1261 729 1319 q 696 1167 729 1203 q 603 1118 663 1131 l 596 1061 l 467 1061 l 481 1186 z "},"Ơ":{"ha":913,"x_min":43,"x_max":1000,"o":"m 1000 990 q 957 844 1000 899 q 833 774 914 789 q 856 611 856 706 q 807 304 856 449 q 651 67 758 160 q 381 -25 544 -25 q 130 72 217 -25 q 43 353 43 169 q 92 660 43 515 q 247 898 140 806 q 517 990 353 990 q 779 882 692 990 q 833 914 817 888 q 849 989 849 940 q 843 1054 849 1018 l 990 1072 q 1000 990 1000 1036 m 397 153 q 522 234 475 153 q 589 428 569 315 q 608 646 608 542 q 582 772 608 733 q 501 811 556 811 q 377 729 425 811 q 309 533 329 647 q 289 318 289 419 q 316 192 289 231 q 397 153 343 153 z "},"Ớ":{"ha":913,"x_min":43,"x_max":1000,"o":"m 746 1154 l 422 1035 l 371 1147 l 671 1325 l 746 1154 m 1000 990 q 957 844 1000 899 q 833 774 914 789 q 856 611 856 706 q 807 304 856 449 q 651 67 758 160 q 381 -25 544 -25 q 130 72 217 -25 q 43 353 43 169 q 92 660 43 515 q 247 898 140 806 q 517 990 353 990 q 779 882 692 990 q 833 914 817 888 q 849 989 849 940 q 843 1054 849 1018 l 990 1072 q 1000 990 1000 1036 m 397 153 q 522 234 475 153 q 589 428 569 315 q 608 646 608 542 q 582 772 608 733 q 501 811 556 811 q 377 729 425 811 q 309 533 329 647 q 289 318 289 419 q 316 192 289 231 q 397 153 343 153 z "},"Ợ":{"ha":913,"x_min":43,"x_max":1000,"o":"m 1000 990 q 957 844 1000 899 q 833 774 914 789 q 856 611 856 706 q 807 304 856 449 q 651 67 758 160 q 381 -25 544 -25 q 130 72 217 -25 q 43 353 43 169 q 92 660 43 515 q 247 898 140 806 q 517 990 353 990 q 779 882 692 990 q 833 914 817 888 q 849 989 849 940 q 843 1054 849 1018 l 990 1072 q 1000 990 1000 1036 m 397 153 q 522 234 475 153 q 589 428 569 315 q 608 646 608 542 q 582 772 608 733 q 501 811 556 811 q 377 729 425 811 q 309 533 329 647 q 289 318 289 419 q 316 192 289 231 q 397 153 343 153 m 365 -81 q 453 -112 421 -81 q 485 -194 485 -143 q 442 -301 485 -258 q 336 -343 399 -343 q 249 -312 281 -343 q 217 -229 217 -281 q 260 -123 217 -165 q 365 -81 303 -81 z "},"Ờ":{"ha":913,"x_min":43,"x_max":1000,"o":"m 736 1144 l 671 1036 l 378 1153 l 475 1321 l 736 1144 m 1000 990 q 957 844 1000 899 q 833 774 914 789 q 856 611 856 706 q 807 304 856 449 q 651 67 758 160 q 381 -25 544 -25 q 130 72 217 -25 q 43 353 43 169 q 92 660 43 515 q 247 898 140 806 q 517 990 353 990 q 779 882 692 990 q 833 914 817 888 q 849 989 849 940 q 843 1054 849 1018 l 990 1072 q 1000 990 1000 1036 m 397 153 q 522 234 475 153 q 589 428 569 315 q 608 646 608 542 q 582 772 608 733 q 501 811 556 811 q 377 729 425 811 q 309 533 329 647 q 289 318 289 419 q 316 192 289 231 q 397 153 343 153 z "},"Ở":{"ha":913,"x_min":43,"x_max":1000,"o":"m 535 1281 q 499 1276 515 1281 q 460 1261 483 1271 l 436 1358 q 575 1393 499 1393 q 689 1356 649 1393 q 729 1261 729 1319 q 696 1167 729 1203 q 603 1118 663 1131 l 596 1061 l 467 1061 l 481 1186 q 553 1203 531 1189 q 576 1246 576 1217 q 535 1281 576 1281 m 1000 990 q 957 844 1000 899 q 833 774 914 789 q 856 611 856 706 q 807 304 856 449 q 651 67 758 160 q 381 -25 544 -25 q 130 72 217 -25 q 43 353 43 169 q 92 660 43 515 q 247 898 140 806 q 517 990 353 990 q 779 882 692 990 q 833 914 817 888 q 849 989 849 940 q 843 1054 849 1018 l 990 1072 q 1000 990 1000 1036 m 397 153 q 522 234 475 153 q 589 428 569 315 q 608 646 608 542 q 582 772 608 733 q 501 811 556 811 q 377 729 425 811 q 309 533 329 647 q 289 318 289 419 q 316 192 289 231 q 397 153 343 153 z "},"Ỡ":{"ha":913,"x_min":43,"x_max":1000,"o":"m 469 1113 q 433 1098 449 1113 q 396 1051 417 1083 l 293 1110 q 378 1232 329 1185 q 482 1279 428 1279 q 531 1269 510 1279 q 575 1242 551 1260 q 601 1224 590 1229 q 624 1218 613 1218 q 659 1233 643 1218 q 694 1278 675 1247 l 797 1221 q 711 1099 761 1146 q 608 1051 661 1051 q 566 1061 585 1051 q 522 1088 547 1071 q 507 1098 518 1090 q 487 1109 496 1106 q 469 1113 478 1113 m 1000 990 q 957 844 1000 899 q 833 774 914 789 q 856 611 856 706 q 807 304 856 449 q 651 67 758 160 q 381 -25 544 -25 q 130 72 217 -25 q 43 353 43 169 q 92 660 43 515 q 247 898 140 806 q 517 990 353 990 q 779 882 692 990 q 833 914 817 888 q 849 989 849 940 q 843 1054 849 1018 l 990 1072 q 1000 990 1000 1036 m 397 153 q 522 234 475 153 q 589 428 569 315 q 608 646 608 542 q 582 772 608 733 q 501 811 556 811 q 377 729 425 811 q 309 533 329 647 q 289 318 289 419 q 316 192 289 231 q 397 153 343 153 z "},"Ő":{"ha":867,"x_min":43,"x_max":865,"o":"m 517 990 q 769 893 682 990 q 856 611 856 796 q 807 304 856 449 q 651 67 758 160 q 381 -25 544 -25 q 130 72 217 -25 q 43 353 43 169 q 92 660 43 515 q 247 898 140 806 q 517 990 353 990 m 501 811 q 377 729 425 811 q 309 533 329 647 q 289 318 289 419 q 316 192 289 231 q 397 153 343 153 q 522 234 475 153 q 589 428 569 315 q 608 646 608 542 q 582 772 608 733 q 501 811 556 811 m 501 1376 l 639 1304 l 454 1047 l 344 1096 l 501 1376 m 729 1376 l 865 1299 l 671 1042 l 564 1097 l 729 1376 z "},"Ƣ":{"ha":1213,"x_min":43,"x_max":1203,"o":"m 961 990 q 1139 934 1075 990 q 1203 776 1203 878 q 1199 728 1203 753 l 1056 -294 l 814 -294 l 958 739 q 960 763 960 747 q 906 819 960 819 q 864 813 882 819 q 824 794 846 807 q 856 611 856 715 q 807 304 856 449 q 651 67 758 160 q 381 -25 544 -25 q 130 72 217 -25 q 43 353 43 169 q 92 660 43 515 q 247 898 140 806 q 517 990 353 990 q 736 918 649 990 q 961 990 835 990 m 397 153 q 522 234 475 153 q 589 428 569 315 q 608 646 608 542 q 582 772 608 733 q 501 811 556 811 q 377 729 425 811 q 309 533 329 647 q 289 318 289 419 q 316 192 289 231 q 397 153 343 153 z "},"Ȏ":{"ha":867,"x_min":43,"x_max":856,"o":"m 517 990 q 769 893 682 990 q 856 611 856 796 q 807 304 856 449 q 651 67 758 160 q 381 -25 544 -25 q 130 72 217 -25 q 43 353 43 169 q 92 660 43 515 q 247 898 140 806 q 517 990 353 990 m 501 811 q 377 729 425 811 q 309 533 329 647 q 289 318 289 419 q 316 192 289 231 q 397 153 343 153 q 522 234 475 153 q 589 428 569 315 q 608 646 608 542 q 582 772 608 733 q 501 811 556 811 m 306 1081 q 397 1260 331 1190 q 565 1329 463 1329 q 719 1258 669 1329 q 761 1078 768 1186 l 635 1060 q 549 1165 628 1165 q 428 1056 467 1165 l 306 1081 z "},"Ō":{"ha":867,"x_min":43,"x_max":856,"o":"m 517 990 q 769 893 682 990 q 856 611 856 796 q 807 304 856 449 q 651 67 758 160 q 381 -25 544 -25 q 130 72 217 -25 q 43 353 43 169 q 92 660 43 515 q 247 898 140 806 q 517 990 353 990 m 501 811 q 377 729 425 811 q 309 533 329 647 q 289 318 289 419 q 316 192 289 231 q 397 153 343 153 q 522 234 475 153 q 589 428 569 315 q 608 646 608 542 q 582 772 608 733 q 501 811 556 811 m 726 1082 l 333 1082 l 357 1244 l 750 1244 l 726 1082 z "},"Ṓ":{"ha":867,"x_min":43,"x_max":856,"o":"m 517 990 q 769 893 682 990 q 856 611 856 796 q 807 304 856 449 q 651 67 758 160 q 381 -25 544 -25 q 130 72 217 -25 q 43 353 43 169 q 92 660 43 515 q 247 898 140 806 q 517 990 353 990 m 501 811 q 377 729 425 811 q 309 533 329 647 q 289 318 289 419 q 316 192 289 231 q 397 153 343 153 q 522 234 475 153 q 589 428 569 315 q 608 646 608 542 q 582 772 608 733 q 501 811 556 811 m 733 1057 l 340 1057 l 364 1219 l 757 1219 l 733 1057 m 682 1543 l 757 1372 l 433 1253 l 382 1365 l 682 1543 z "},"Ṑ":{"ha":867,"x_min":43,"x_max":856,"o":"m 517 990 q 769 893 682 990 q 856 611 856 796 q 807 304 856 449 q 651 67 758 160 q 381 -25 544 -25 q 130 72 217 -25 q 43 353 43 169 q 92 660 43 515 q 247 898 140 806 q 517 990 353 990 m 501 811 q 377 729 425 811 q 309 533 329 647 q 289 318 289 419 q 316 192 289 231 q 397 153 343 153 q 522 234 475 153 q 589 428 569 315 q 608 646 608 542 q 582 772 608 733 q 501 811 556 811 m 729 1057 l 336 1057 l 360 1219 l 753 1219 l 729 1057 m 494 1539 l 756 1363 l 690 1254 l 397 1371 l 494 1539 z "},"Ꞷ":{"ha":1119,"x_min":49,"x_max":1092,"o":"m 297 -25 q 110 49 172 -25 q 49 276 49 122 q 97 622 49 444 q 232 964 146 800 l 454 964 q 333 599 378 769 q 289 272 289 429 q 303 181 289 208 q 347 153 317 153 q 426 258 411 153 l 467 554 l 706 554 l 664 254 q 660 213 660 232 q 707 153 660 153 q 791 234 758 153 q 838 431 824 315 q 851 656 851 547 q 844 800 851 735 q 819 964 836 865 l 1050 964 q 1092 653 1092 817 q 1006 166 1092 357 q 726 -25 921 -25 q 590 17 640 -25 q 529 146 539 58 q 434 17 496 58 q 297 -25 372 -25 z "},"Ǫ":{"ha":867,"x_min":43,"x_max":856,"o":"m 526 -3 q 368 -156 368 -65 q 424 -201 368 -201 q 497 -193 457 -201 l 465 -333 q 375 -344 424 -344 q 250 -303 299 -344 q 201 -192 201 -262 q 299 -18 201 -89 q 108 99 174 6 q 43 353 43 193 q 92 660 43 515 q 247 898 140 806 q 517 990 353 990 q 769 893 682 990 q 856 611 856 796 q 822 351 856 476 q 713 131 788 225 q 526 -3 639 36 m 501 811 q 377 729 425 811 q 309 533 329 647 q 289 318 289 419 q 316 192 289 231 q 397 153 343 153 q 522 234 475 153 q 589 428 569 315 q 608 646 608 542 q 582 772 608 733 q 501 811 556 811 z "},"Ǭ":{"ha":867,"x_min":43,"x_max":856,"o":"m 750 1244 l 726 1082 l 333 1082 l 357 1244 l 750 1244 m 526 -3 q 368 -156 368 -65 q 424 -201 368 -201 q 497 -193 457 -201 l 465 -333 q 375 -344 424 -344 q 250 -303 299 -344 q 201 -192 201 -262 q 299 -18 201 -89 q 108 99 174 6 q 43 353 43 193 q 92 660 43 515 q 247 898 140 806 q 517 990 353 990 q 769 893 682 990 q 856 611 856 796 q 822 351 856 476 q 713 131 788 225 q 526 -3 639 36 m 501 811 q 377 729 425 811 q 309 533 329 647 q 289 318 289 419 q 316 192 289 231 q 397 153 343 153 q 522 234 475 153 q 589 428 569 315 q 608 646 608 542 q 582 772 608 733 q 501 811 556 811 z "},"Ɔ":{"ha":724,"x_min":-36,"x_max":713,"o":"m 379 990 q 624 892 535 990 q 713 606 713 793 q 657 286 713 429 q 494 59 601 143 q 236 -25 386 -25 q 78 11 146 -25 q -36 104 10 47 l 88 236 q 161 181 128 200 q 239 163 194 163 q 366 231 315 163 q 440 403 417 300 q 464 614 464 507 q 435 765 464 719 q 347 810 406 810 q 265 793 304 810 q 183 744 226 776 l 83 882 q 222 963 150 936 q 379 990 293 990 z "},"Ø":{"ha":867,"x_min":43,"x_max":856,"o":"m 731 925 q 856 611 856 828 q 807 304 856 449 q 651 67 758 160 q 381 -25 544 -25 q 331 -22 364 -25 l 265 -189 l 93 -140 l 167 42 q 43 353 43 140 q 92 660 43 515 q 247 898 140 806 q 517 990 353 990 q 565 988 535 990 l 632 1151 l 801 1103 l 731 925 m 501 814 q 372 731 421 814 q 301 533 322 649 q 281 314 281 418 q 292 218 281 256 l 519 814 l 501 814 m 397 150 q 527 232 478 150 q 597 428 576 314 q 617 649 617 542 q 607 740 617 707 l 381 150 l 397 150 z "},"Ǿ":{"ha":867,"x_min":43,"x_max":856,"o":"m 731 925 q 856 611 856 828 q 807 304 856 449 q 651 67 758 160 q 381 -25 544 -25 q 331 -22 364 -25 l 265 -189 l 93 -140 l 167 42 q 43 353 43 140 q 92 660 43 515 q 247 898 140 806 q 517 990 353 990 q 565 988 535 990 l 632 1151 l 801 1103 l 731 925 m 501 814 q 372 731 421 814 q 301 533 322 649 q 281 314 281 418 q 292 218 281 256 l 519 814 l 501 814 m 397 150 q 527 232 478 150 q 597 428 576 314 q 617 649 617 542 q 607 740 617 707 l 381 150 l 397 150 m 660 1376 l 735 1206 l 411 1086 l 360 1199 l 660 1376 z "},"Õ":{"ha":867,"x_min":43,"x_max":856,"o":"m 517 990 q 769 893 682 990 q 856 611 856 796 q 807 304 856 449 q 651 67 758 160 q 381 -25 544 -25 q 130 72 217 -25 q 43 353 43 169 q 92 660 43 515 q 247 898 140 806 q 517 990 353 990 m 501 811 q 377 729 425 811 q 309 533 329 647 q 289 318 289 419 q 316 192 289 231 q 397 153 343 153 q 522 234 475 153 q 589 428 569 315 q 608 646 608 542 q 582 772 608 733 q 501 811 556 811 m 608 1051 q 566 1061 585 1051 q 522 1088 547 1071 q 507 1098 518 1090 q 487 1109 496 1106 q 469 1113 478 1113 q 433 1098 449 1113 q 396 1051 417 1083 l 293 1110 q 378 1232 329 1185 q 482 1279 428 1279 q 531 1269 510 1279 q 575 1242 551 1260 q 601 1224 590 1229 q 624 1218 613 1218 q 659 1233 643 1218 q 694 1278 675 1247 l 797 1221 q 711 1099 761 1146 q 608 1051 661 1051 z "},"Ṍ":{"ha":867,"x_min":43,"x_max":856,"o":"m 517 990 q 769 893 682 990 q 856 611 856 796 q 807 304 856 449 q 651 67 758 160 q 381 -25 544 -25 q 130 72 217 -25 q 43 353 43 169 q 92 660 43 515 q 247 898 140 806 q 517 990 353 990 m 501 811 q 377 729 425 811 q 309 533 329 647 q 289 318 289 419 q 316 192 289 231 q 397 153 343 153 q 522 234 475 153 q 589 428 569 315 q 608 646 608 542 q 582 772 608 733 q 501 811 556 811 m 600 1049 q 558 1058 576 1049 q 514 1085 539 1068 q 499 1095 510 1088 q 478 1106 488 1103 q 461 1110 469 1110 q 424 1095 440 1110 q 388 1049 408 1081 l 285 1107 q 370 1229 321 1182 q 474 1276 419 1276 q 522 1267 501 1276 q 567 1239 543 1257 q 593 1221 582 1226 q 615 1215 604 1215 q 651 1230 635 1215 q 686 1275 667 1244 l 789 1218 q 703 1096 753 1143 q 600 1049 653 1049 m 669 1586 l 744 1415 l 421 1296 l 369 1408 l 669 1586 z "},"Ȭ":{"ha":867,"x_min":43,"x_max":856,"o":"m 750 1321 l 357 1321 l 381 1483 l 774 1483 l 750 1321 m 601 1049 q 559 1058 578 1049 q 515 1085 540 1068 q 500 1095 511 1088 q 480 1106 489 1103 q 463 1110 471 1110 q 426 1095 442 1110 q 389 1049 410 1081 l 286 1107 q 372 1229 322 1182 q 475 1276 421 1276 q 524 1267 503 1276 q 568 1239 544 1257 q 594 1221 583 1226 q 617 1215 606 1215 q 652 1230 636 1215 q 688 1275 668 1244 l 790 1218 q 704 1096 754 1143 q 601 1049 654 1049 m 517 990 q 769 893 682 990 q 856 611 856 796 q 807 304 856 449 q 651 67 758 160 q 381 -25 544 -25 q 130 72 217 -25 q 43 353 43 169 q 92 660 43 515 q 247 898 140 806 q 517 990 353 990 m 501 811 q 377 729 425 811 q 309 533 329 647 q 289 318 289 419 q 316 192 289 231 q 397 153 343 153 q 522 234 475 153 q 589 428 569 315 q 608 646 608 542 q 582 772 608 733 q 501 811 556 811 z "},"Œ":{"ha":1121,"x_min":43,"x_max":1176,"o":"m 1126 790 l 788 790 q 825 600 825 711 l 825 575 l 1063 575 l 1039 404 l 806 404 q 704 175 776 268 l 1065 175 l 1038 0 l 492 0 q 358 -25 432 -25 q 126 72 208 -25 q 43 353 43 169 q 91 658 43 513 q 241 897 139 804 q 497 990 343 990 q 632 964 579 990 l 1176 964 l 1126 790 m 383 153 q 497 231 453 153 q 561 424 542 310 q 581 651 581 539 q 557 773 581 735 q 486 811 533 811 q 372 732 417 811 q 308 538 328 653 q 289 313 289 422 q 313 191 289 229 q 383 153 338 153 z "},"P":{"ha":750,"x_min":13,"x_max":775,"o":"m 433 964 q 687 895 599 964 q 775 694 775 826 q 731 504 775 590 q 594 367 686 418 q 369 315 503 315 l 297 315 l 254 0 l 13 0 l 147 964 l 433 964 m 369 490 q 492 547 456 490 q 528 686 528 604 q 501 766 528 740 q 415 792 474 792 l 364 792 l 322 490 l 369 490 z "},"Ṕ":{"ha":750,"x_min":13,"x_max":775,"o":"m 433 964 q 687 895 599 964 q 775 694 775 826 q 731 504 775 590 q 594 367 686 418 q 369 315 503 315 l 297 315 l 254 0 l 13 0 l 147 964 l 433 964 m 369 490 q 492 547 456 490 q 528 686 528 604 q 501 766 528 740 q 415 792 474 792 l 364 792 l 322 490 l 369 490 m 613 1325 l 688 1154 l 364 1035 l 313 1147 l 613 1325 z "},"Ṗ":{"ha":750,"x_min":13,"x_max":775,"o":"m 433 964 q 687 895 599 964 q 775 694 775 826 q 731 504 775 590 q 594 367 686 418 q 369 315 503 315 l 297 315 l 254 0 l 13 0 l 147 964 l 433 964 m 369 490 q 492 547 456 490 q 528 686 528 604 q 501 766 528 740 q 415 792 474 792 l 364 792 l 322 490 l 369 490 m 478 1046 q 390 1077 422 1046 q 358 1160 358 1108 q 401 1266 358 1224 q 507 1308 444 1308 q 594 1277 563 1308 q 626 1194 626 1246 q 583 1088 626 1131 q 478 1046 540 1046 z "},"Ƥ":{"ha":960,"x_min":57,"x_max":985,"o":"m 643 964 q 897 895 808 964 q 985 694 985 826 q 940 504 985 590 q 804 367 896 418 q 579 315 713 315 l 507 315 l 464 0 l 222 0 l 333 790 l 299 790 q 253 771 269 790 q 238 714 238 751 q 247 640 238 685 l 88 582 q 57 721 57 653 q 128 898 57 832 q 317 964 200 964 l 643 964 m 579 490 q 701 547 665 490 q 738 686 738 604 q 710 766 738 740 q 625 792 683 792 l 574 792 l 532 490 l 579 490 z "},"Þ":{"ha":751,"x_min":13,"x_max":756,"o":"m 415 815 q 668 746 581 815 q 756 539 756 676 q 713 349 756 436 q 578 209 669 263 q 350 156 486 156 l 276 156 l 254 0 l 13 0 l 147 964 l 389 964 l 368 815 l 415 815 m 349 331 q 472 390 435 331 q 508 533 508 449 q 481 616 508 590 q 396 642 454 642 l 344 642 l 300 331 l 349 331 z "},"Q":{"ha":865,"x_min":43,"x_max":856,"o":"m 856 611 q 792 279 856 429 q 592 61 728 129 q 738 35 679 58 q 843 -35 796 11 l 674 -217 q 553 -75 622 -128 q 381 -22 485 -22 q 129 74 215 -22 q 43 353 43 169 q 92 660 43 515 q 247 898 140 806 q 517 990 353 990 q 769 893 682 990 q 856 611 856 796 m 289 314 q 316 191 289 229 q 397 153 343 153 q 522 234 475 153 q 589 429 569 315 q 608 649 608 543 q 582 772 608 733 q 501 811 556 811 q 377 728 425 811 q 309 531 329 646 q 289 314 289 417 z "},"Ɋ":{"ha":854,"x_min":40,"x_max":919,"o":"m 919 -253 q 724 -310 836 -310 q 547 -254 610 -310 q 483 -92 483 -199 q 486 -43 483 -60 l 492 0 l 490 0 l 496 40 q 326 -25 424 -25 q 116 72 192 -25 q 42 338 40 168 q 92 660 40 510 q 240 900 144 810 q 460 990 336 990 q 563 966 521 990 q 636 899 604 942 l 657 964 l 867 964 l 732 0 l 725 -62 q 724 -81 724 -69 q 774 -133 724 -133 q 815 -128 797 -133 q 863 -110 832 -124 l 919 -253 m 397 149 q 519 208 464 149 l 596 754 q 496 811 553 811 q 382 740 429 811 q 312 559 335 669 q 289 331 289 449 q 317 191 289 233 q 397 149 344 149 z "},"R":{"ha":772,"x_min":13,"x_max":778,"o":"m 778 707 q 733 531 778 606 q 585 404 688 457 l 739 0 l 482 0 l 365 360 l 304 360 l 254 0 l 13 0 l 147 964 l 436 964 q 692 897 607 964 q 778 707 778 831 m 328 528 l 386 528 q 497 577 463 528 q 531 697 531 626 q 503 770 531 747 q 419 793 475 793 l 365 793 l 328 528 z "},"Ŕ":{"ha":772,"x_min":13,"x_max":778,"o":"m 778 707 q 733 531 778 606 q 585 404 688 457 l 739 0 l 482 0 l 365 360 l 304 360 l 254 0 l 13 0 l 147 964 l 436 964 q 692 897 607 964 q 778 707 778 831 m 328 528 l 386 528 q 497 577 463 528 q 531 697 531 626 q 503 770 531 747 q 419 793 475 793 l 365 793 l 328 528 m 614 1325 l 689 1154 l 365 1035 l 314 1147 l 614 1325 z "},"Ř":{"ha":772,"x_min":13,"x_max":778,"o":"m 778 707 q 733 531 778 606 q 585 404 688 457 l 739 0 l 482 0 l 365 360 l 304 360 l 254 0 l 13 0 l 147 964 l 436 964 q 692 897 607 964 q 778 707 778 831 m 328 528 l 386 528 q 497 577 463 528 q 531 697 531 626 q 503 770 531 747 q 419 793 475 793 l 365 793 l 328 528 m 667 1318 l 744 1225 l 540 1040 l 400 1040 l 243 1232 l 333 1318 l 486 1200 l 667 1318 z "},"Ŗ":{"ha":772,"x_min":13,"x_max":778,"o":"m 778 707 q 733 531 778 606 q 585 404 688 457 l 739 0 l 482 0 l 365 360 l 304 360 l 254 0 l 13 0 l 147 964 l 436 964 q 692 897 607 964 q 778 707 778 831 m 328 528 l 386 528 q 497 577 463 528 q 531 697 531 626 q 503 770 531 747 q 419 793 475 793 l 365 793 l 328 528 m 343 -92 q 417 -119 389 -92 q 446 -190 446 -147 q 435 -251 446 -224 q 394 -328 424 -279 l 315 -458 l 204 -458 l 263 -296 q 222 -221 222 -269 q 257 -128 222 -164 q 343 -92 292 -92 z "},"Ȑ":{"ha":772,"x_min":13,"x_max":778,"o":"m 778 707 q 733 531 778 606 q 585 404 688 457 l 739 0 l 482 0 l 365 360 l 304 360 l 254 0 l 13 0 l 147 964 l 436 964 q 692 897 607 964 q 778 707 778 831 m 328 528 l 386 528 q 497 577 463 528 q 531 697 531 626 q 503 770 531 747 q 419 793 475 793 l 365 793 l 328 528 m 349 1376 l 438 1094 l 313 1042 l 186 1306 l 349 1376 m 578 1376 l 656 1093 l 531 1047 l 414 1311 l 578 1376 z "},"Ṛ":{"ha":772,"x_min":13,"x_max":778,"o":"m 778 707 q 733 531 778 606 q 585 404 688 457 l 739 0 l 482 0 l 365 360 l 304 360 l 254 0 l 13 0 l 147 964 l 436 964 q 692 897 607 964 q 778 707 778 831 m 328 528 l 386 528 q 497 577 463 528 q 531 697 531 626 q 503 770 531 747 q 419 793 475 793 l 365 793 l 328 528 m 336 -81 q 424 -112 392 -81 q 456 -194 456 -143 q 413 -301 456 -258 q 307 -343 369 -343 q 219 -312 251 -343 q 188 -229 188 -281 q 231 -123 188 -165 q 336 -81 274 -81 z "},"Ȓ":{"ha":772,"x_min":13,"x_max":778,"o":"m 778 707 q 733 531 778 606 q 585 404 688 457 l 739 0 l 482 0 l 365 360 l 304 360 l 254 0 l 13 0 l 147 964 l 436 964 q 692 897 607 964 q 778 707 778 831 m 328 528 l 386 528 q 497 577 463 528 q 531 697 531 626 q 503 770 531 747 q 419 793 475 793 l 365 793 l 328 528 m 249 1081 q 340 1260 274 1190 q 508 1329 406 1329 q 662 1258 613 1329 q 704 1078 711 1186 l 578 1060 q 492 1165 571 1165 q 371 1056 410 1165 l 249 1081 z "},"Ɍ":{"ha":786,"x_min":10,"x_max":792,"o":"m 792 707 q 747 531 792 606 q 599 404 701 457 l 753 0 l 496 0 l 379 360 l 318 360 l 268 0 l 26 0 l 76 360 l 10 360 l 33 528 l 100 528 l 161 964 l 450 964 q 706 897 621 964 q 792 707 792 831 m 379 793 l 342 528 l 400 528 q 510 577 476 528 q 544 697 544 626 q 517 770 544 747 q 433 793 489 793 l 379 793 z "},"Ɽ":{"ha":772,"x_min":4,"x_max":778,"o":"m 778 707 q 733 531 778 606 q 585 404 688 457 l 739 0 l 482 0 l 365 360 l 304 360 l 254 0 l 253 0 l 246 -62 q 244 -81 244 -69 q 294 -133 244 -133 q 335 -128 318 -133 q 383 -110 353 -124 l 440 -253 q 244 -310 357 -310 q 67 -254 131 -310 q 4 -92 4 -199 q 7 -43 4 -60 l 13 0 l 147 964 l 436 964 q 692 897 607 964 q 778 707 778 831 m 328 528 l 386 528 q 497 577 463 528 q 531 697 531 626 q 503 770 531 747 q 419 793 475 793 l 365 793 l 328 528 z "},"S":{"ha":721,"x_min":-35,"x_max":749,"o":"m 446 990 q 749 861 635 990 l 626 736 q 546 793 588 775 q 454 811 504 811 q 365 784 397 811 q 333 714 333 757 q 363 650 333 675 q 478 589 392 625 q 636 483 585 544 q 688 319 688 421 q 642 148 688 226 q 508 22 597 69 q 296 -25 419 -25 q -35 117 89 -25 l 99 247 q 190 180 143 203 q 299 157 238 157 q 401 190 364 157 q 438 278 438 222 q 407 353 438 324 q 296 418 376 383 q 134 524 183 464 q 85 676 85 583 q 128 835 85 764 q 253 949 171 907 q 446 990 335 990 z "},"Ś":{"ha":721,"x_min":-35,"x_max":749,"o":"m 446 990 q 749 861 635 990 l 626 736 q 546 793 588 775 q 454 811 504 811 q 365 784 397 811 q 333 714 333 757 q 363 650 333 675 q 478 589 392 625 q 636 483 585 544 q 688 319 688 421 q 642 148 688 226 q 508 22 597 69 q 296 -25 419 -25 q -35 117 89 -25 l 99 247 q 190 180 143 203 q 299 157 238 157 q 401 190 364 157 q 438 278 438 222 q 407 353 438 324 q 296 418 376 383 q 134 524 183 464 q 85 676 85 583 q 128 835 85 764 q 253 949 171 907 q 446 990 335 990 m 607 1325 l 682 1154 l 358 1035 l 307 1147 l 607 1325 z "},"Ꞌ":{"ha":326,"x_min":94,"x_max":354,"o":"m 94 461 l 139 964 l 354 964 l 254 461 l 94 461 z "},"Š":{"ha":721,"x_min":-35,"x_max":749,"o":"m 446 990 q 749 861 635 990 l 626 736 q 546 793 588 775 q 454 811 504 811 q 365 784 397 811 q 333 714 333 757 q 363 650 333 675 q 478 589 392 625 q 636 483 585 544 q 688 319 688 421 q 642 148 688 226 q 508 22 597 69 q 296 -25 419 -25 q -35 117 89 -25 l 99 247 q 190 180 143 203 q 299 157 238 157 q 401 190 364 157 q 438 278 438 222 q 407 353 438 324 q 296 418 376 383 q 134 524 183 464 q 85 676 85 583 q 128 835 85 764 q 253 949 171 907 q 446 990 335 990 m 660 1318 l 738 1225 l 533 1040 l 393 1040 l 236 1232 l 326 1318 l 479 1200 l 660 1318 z "},"Ş":{"ha":721,"x_min":-35,"x_max":749,"o":"m 478 589 q 636 483 585 544 q 688 319 688 421 q 651 163 688 236 q 542 42 614 90 q 368 -21 469 -7 l 360 -68 q 448 -106 418 -75 q 478 -190 478 -137 q 456 -273 478 -232 q 385 -342 435 -314 q 258 -369 336 -369 q 175 -357 213 -369 q 113 -324 138 -344 l 178 -224 q 253 -243 214 -243 q 297 -233 281 -243 q 315 -200 314 -222 q 290 -168 315 -178 q 206 -158 265 -158 l 239 -22 q -35 117 71 -4 l 99 247 q 190 180 143 203 q 299 157 238 157 q 401 190 364 157 q 438 278 438 222 q 407 353 438 324 q 296 418 376 383 q 134 524 183 464 q 85 676 85 583 q 128 835 85 764 q 253 949 171 907 q 446 990 335 990 q 749 861 635 990 l 626 736 q 546 793 588 775 q 454 811 504 811 q 365 784 397 811 q 333 714 333 757 q 363 650 333 675 q 478 589 392 625 z "},"Ŝ":{"ha":721,"x_min":-35,"x_max":749,"o":"m 446 990 q 749 861 635 990 l 626 736 q 546 793 588 775 q 454 811 504 811 q 365 784 397 811 q 333 714 333 757 q 363 650 333 675 q 478 589 392 625 q 636 483 585 544 q 688 319 688 421 q 642 148 688 226 q 508 22 597 69 q 296 -25 419 -25 q -35 117 89 -25 l 99 247 q 190 180 143 203 q 299 157 238 157 q 401 190 364 157 q 438 278 438 222 q 407 353 438 324 q 296 418 376 383 q 134 524 183 464 q 85 676 85 583 q 128 835 85 764 q 253 949 171 907 q 446 990 335 990 m 296 1049 l 217 1142 l 422 1326 l 561 1326 l 718 1136 l 628 1049 l 476 1168 l 296 1049 z "},"Ș":{"ha":721,"x_min":-35,"x_max":749,"o":"m 446 990 q 749 861 635 990 l 626 736 q 546 793 588 775 q 454 811 504 811 q 365 784 397 811 q 333 714 333 757 q 363 650 333 675 q 478 589 392 625 q 636 483 585 544 q 688 319 688 421 q 642 148 688 226 q 508 22 597 69 q 296 -25 419 -25 q -35 117 89 -25 l 99 247 q 190 180 143 203 q 299 157 238 157 q 401 190 364 157 q 438 278 438 222 q 407 353 438 324 q 296 418 376 383 q 134 524 183 464 q 85 676 85 583 q 128 835 85 764 q 253 949 171 907 q 446 990 335 990 m 293 -92 q 367 -119 339 -92 q 396 -190 396 -147 q 385 -251 396 -224 q 344 -328 374 -279 l 265 -458 l 154 -458 l 213 -296 q 172 -221 172 -269 q 207 -128 172 -164 q 293 -92 242 -92 z "},"Ṡ":{"ha":721,"x_min":-35,"x_max":749,"o":"m 446 990 q 749 861 635 990 l 626 736 q 546 793 588 775 q 454 811 504 811 q 365 784 397 811 q 333 714 333 757 q 363 650 333 675 q 478 589 392 625 q 636 483 585 544 q 688 319 688 421 q 642 148 688 226 q 508 22 597 69 q 296 -25 419 -25 q -35 117 89 -25 l 99 247 q 190 180 143 203 q 299 157 238 157 q 401 190 364 157 q 438 278 438 222 q 407 353 438 324 q 296 418 376 383 q 134 524 183 464 q 85 676 85 583 q 128 835 85 764 q 253 949 171 907 q 446 990 335 990 m 472 1046 q 385 1077 417 1046 q 353 1160 353 1108 q 396 1266 353 1224 q 501 1308 439 1308 q 589 1277 557 1308 q 621 1194 621 1246 q 578 1088 621 1131 q 472 1046 535 1046 z "},"Ṣ":{"ha":721,"x_min":-35,"x_max":749,"o":"m 446 990 q 749 861 635 990 l 626 736 q 546 793 588 775 q 454 811 504 811 q 365 784 397 811 q 333 714 333 757 q 363 650 333 675 q 478 589 392 625 q 636 483 585 544 q 688 319 688 421 q 642 148 688 226 q 508 22 597 69 q 296 -25 419 -25 q -35 117 89 -25 l 99 247 q 190 180 143 203 q 299 157 238 157 q 401 190 364 157 q 438 278 438 222 q 407 353 438 324 q 296 418 376 383 q 134 524 183 464 q 85 676 85 583 q 128 835 85 764 q 253 949 171 907 q 446 990 335 990 m 286 -81 q 374 -112 342 -81 q 406 -194 406 -143 q 363 -301 406 -258 q 257 -343 319 -343 q 169 -312 201 -343 q 138 -229 138 -281 q 181 -123 138 -165 q 286 -81 224 -81 z "},"ẞ":{"ha":836,"x_min":13,"x_max":835,"o":"m 467 989 q 659 960 569 989 q 835 881 749 931 l 819 776 l 613 538 q 803 315 803 493 q 758 135 803 213 q 635 17 714 58 q 457 -25 557 -25 q 292 14 357 -25 l 382 169 q 443 158 411 158 q 523 199 494 158 q 551 307 551 240 q 515 397 551 367 q 394 433 478 428 l 413 557 l 610 788 q 464 811 535 811 q 387 783 414 811 q 351 694 360 756 l 256 0 l 13 0 l 108 683 q 219 910 129 832 q 467 989 308 989 z "},"Ə":{"ha":799,"x_min":24,"x_max":789,"o":"m 467 990 q 703 899 618 990 q 789 632 789 807 q 738 296 789 444 q 585 61 688 147 q 336 -25 483 -25 q 103 67 183 -25 q 24 324 24 160 q 60 569 24 446 l 546 567 q 550 646 550 613 q 519 772 550 733 q 428 811 489 811 q 328 791 372 811 q 236 735 283 771 l 146 867 q 297 960 221 929 q 467 990 374 990 m 346 153 q 453 208 410 153 q 521 400 496 264 l 254 399 q 247 301 247 343 q 272 188 247 224 q 346 153 297 153 z "},"T":{"ha":678,"x_min":63,"x_max":765,"o":"m 765 964 l 714 778 l 517 778 l 408 0 l 167 0 l 275 778 l 63 778 l 89 964 l 765 964 z "},"Ŧ":{"ha":678,"x_min":63,"x_max":765,"o":"m 714 778 l 517 778 l 483 543 l 619 543 l 601 408 l 465 408 l 408 0 l 167 0 l 224 408 l 88 408 l 106 543 l 242 543 l 275 778 l 63 778 l 89 964 l 765 964 l 714 778 z "},"Ť":{"ha":678,"x_min":63,"x_max":765,"o":"m 765 964 l 714 778 l 517 778 l 408 0 l 167 0 l 275 778 l 63 778 l 89 964 l 765 964 m 629 1318 l 707 1225 l 503 1040 l 363 1040 l 206 1232 l 296 1318 l 449 1200 l 629 1318 z "},"Ţ":{"ha":678,"x_min":63,"x_max":765,"o":"m 765 964 l 714 778 l 517 778 l 408 0 l 400 -64 q 485 -104 456 -72 q 515 -189 515 -136 q 494 -272 515 -231 q 422 -341 472 -312 q 294 -369 372 -369 q 149 -324 207 -369 l 214 -221 q 289 -243 251 -243 q 351 -199 351 -243 q 326 -167 351 -176 q 243 -158 301 -158 l 282 0 l 167 0 l 275 778 l 63 778 l 89 964 l 765 964 z "},"Ṱ":{"ha":678,"x_min":-6,"x_max":765,"o":"m 765 964 l 714 778 l 517 778 l 408 0 l 167 0 l 275 778 l 63 778 l 89 964 l 765 964 m 69 -375 l -6 -282 l 200 -86 l 340 -86 l 496 -289 l 401 -375 l 254 -246 l 69 -375 z "},"Ț":{"ha":678,"x_min":63,"x_max":765,"o":"m 765 964 l 714 778 l 517 778 l 408 0 l 167 0 l 275 778 l 63 778 l 89 964 l 765 964 m 278 -92 q 352 -119 324 -92 q 381 -190 381 -147 q 369 -251 381 -224 q 329 -328 358 -279 l 250 -458 l 139 -458 l 197 -296 q 157 -221 157 -269 q 192 -128 157 -164 q 278 -92 226 -92 z "},"Ⱦ":{"ha":679,"x_min":65,"x_max":767,"o":"m 717 788 l 619 788 l 463 500 l 393 0 l 190 0 l 133 -104 l 72 -72 l 211 182 l 294 788 l 65 788 l 90 964 l 638 964 l 685 1050 l 746 1019 l 715 964 l 767 964 l 717 788 m 489 692 l 542 788 l 503 788 l 489 692 z "},"Ṫ":{"ha":678,"x_min":63,"x_max":765,"o":"m 765 964 l 714 778 l 517 778 l 408 0 l 167 0 l 275 778 l 63 778 l 89 964 l 765 964 m 442 1046 q 354 1077 386 1046 q 322 1160 322 1108 q 365 1266 322 1224 q 471 1308 408 1308 q 558 1277 526 1308 q 590 1194 590 1246 q 547 1088 590 1131 q 442 1046 504 1046 z "},"Ṭ":{"ha":678,"x_min":63,"x_max":765,"o":"m 765 964 l 714 778 l 517 778 l 408 0 l 167 0 l 275 778 l 63 778 l 89 964 l 765 964 m 271 -81 q 358 -112 326 -81 q 390 -194 390 -143 q 347 -301 390 -258 q 242 -343 304 -343 q 154 -312 186 -343 q 122 -229 122 -281 q 165 -123 122 -165 q 271 -81 208 -81 z "},"Ƭ":{"ha":758,"x_min":57,"x_max":846,"o":"m 794 778 l 597 778 l 489 0 l 247 0 l 356 778 l 296 778 q 238 713 238 778 q 247 640 238 685 l 88 582 q 57 721 57 653 q 128 898 57 832 q 311 964 199 964 l 846 964 l 794 778 z "},"Ṯ":{"ha":678,"x_min":63,"x_max":765,"o":"m 765 964 l 714 778 l 517 778 l 408 0 l 167 0 l 275 778 l 63 778 l 89 964 l 765 964 m 88 -107 l 481 -107 l 457 -269 l 64 -269 l 88 -107 z "},"Ƽ":{"ha":688,"x_min":-26,"x_max":692,"o":"m 250 -25 q -26 122 71 -25 l 114 233 q 178 172 143 193 q 260 151 213 151 q 378 218 342 151 q 414 375 414 285 q 393 452 414 429 q 333 475 372 475 q 283 467 307 475 q 228 440 260 460 l 74 442 l 147 964 l 692 964 l 643 797 l 342 797 l 314 603 q 447 636 381 636 q 595 572 539 636 q 651 389 651 507 q 607 184 651 278 q 472 33 563 90 q 250 -25 382 -25 z "},"Ƅ":{"ha":772,"x_min":39,"x_max":758,"o":"m 439 640 q 674 572 589 640 q 758 371 758 503 q 718 191 758 275 q 589 53 678 107 q 365 0 500 0 l 39 0 l 132 674 l 46 747 q 217 964 135 829 l 414 964 l 369 640 l 439 640 m 360 176 q 470 230 436 176 q 504 360 504 283 q 480 443 504 415 q 403 471 456 471 l 346 471 l 304 176 l 360 176 z "},"Ƨ":{"ha":703,"x_min":7,"x_max":740,"o":"m 460 989 q 664 924 588 989 q 740 751 740 860 q 662 544 740 619 q 422 414 583 469 q 293 344 331 383 q 256 244 256 304 q 279 181 256 204 q 350 158 303 158 q 564 247 451 158 l 665 114 q 510 13 600 50 q 308 -25 421 -25 q 88 46 168 -25 q 7 233 7 117 q 83 454 7 372 q 307 586 158 536 q 419 631 381 611 q 475 677 458 651 q 493 740 492 703 q 411 811 492 811 q 310 792 358 811 q 211 733 263 772 l 122 864 q 460 989 271 989 z "},"Ʈ":{"ha":678,"x_min":63,"x_max":765,"o":"m 400 -62 q 399 -81 399 -69 q 449 -133 399 -133 q 490 -128 472 -133 q 538 -110 507 -124 l 594 -253 q 399 -310 511 -310 q 222 -254 285 -310 q 158 -92 158 -199 q 161 -43 158 -60 l 167 0 l 275 778 l 63 778 l 89 964 l 765 964 l 714 778 l 517 778 l 408 0 l 407 0 l 400 -62 z "},"U":{"ha":800,"x_min":36,"x_max":832,"o":"m 739 296 q 678 131 726 204 q 546 17 629 58 q 350 -25 463 -25 q 116 49 196 -25 q 36 247 36 124 q 40 303 36 274 l 133 964 l 375 964 l 281 289 q 278 251 278 261 q 367 156 278 156 q 496 293 478 156 l 590 964 l 832 964 l 739 296 z "},"Ú":{"ha":800,"x_min":36,"x_max":832,"o":"m 739 296 q 678 131 726 204 q 546 17 629 58 q 350 -25 463 -25 q 116 49 196 -25 q 36 247 36 124 q 40 303 36 274 l 133 964 l 375 964 l 281 289 q 278 251 278 261 q 367 156 278 156 q 496 293 478 156 l 590 964 l 832 964 l 739 296 m 636 1325 l 711 1154 l 388 1035 l 336 1147 l 636 1325 z "},"Ʉ":{"ha":849,"x_min":57,"x_max":900,"o":"m 881 692 l 817 692 l 761 296 q 700 131 749 204 q 568 17 651 58 q 372 -25 485 -25 q 138 49 218 -25 q 58 247 58 124 q 63 303 58 274 l 117 692 l 57 692 l 75 826 l 136 826 l 156 964 l 397 964 l 378 826 l 593 826 l 613 964 l 854 964 l 835 826 l 900 826 l 881 692 m 574 692 l 360 692 l 303 289 q 300 251 300 261 q 389 156 300 156 q 518 293 500 156 l 574 692 z "},"Ŭ":{"ha":800,"x_min":36,"x_max":832,"o":"m 739 296 q 678 131 726 204 q 546 17 629 58 q 350 -25 463 -25 q 116 49 196 -25 q 36 247 36 124 q 40 303 36 274 l 133 964 l 375 964 l 281 289 q 278 251 278 261 q 367 156 278 156 q 496 293 478 156 l 590 964 l 832 964 l 739 296 m 496 1040 q 344 1110 393 1040 q 301 1278 294 1179 l 422 1296 q 447 1228 425 1254 q 508 1203 469 1203 q 624 1300 585 1203 l 747 1274 q 662 1107 726 1174 q 496 1040 597 1040 z "},"Ǔ":{"ha":800,"x_min":36,"x_max":832,"o":"m 739 296 q 678 131 726 204 q 546 17 629 58 q 350 -25 463 -25 q 116 49 196 -25 q 36 247 36 124 q 40 303 36 274 l 133 964 l 375 964 l 281 289 q 278 251 278 261 q 367 156 278 156 q 496 293 478 156 l 590 964 l 832 964 l 739 296 m 689 1318 l 767 1225 l 563 1040 l 422 1040 l 265 1232 l 356 1318 l 508 1200 l 689 1318 z "},"Û":{"ha":800,"x_min":36,"x_max":832,"o":"m 739 296 q 678 131 726 204 q 546 17 629 58 q 350 -25 463 -25 q 116 49 196 -25 q 36 247 36 124 q 40 303 36 274 l 133 964 l 375 964 l 281 289 q 278 251 278 261 q 367 156 278 156 q 496 293 478 156 l 590 964 l 832 964 l 739 296 m 325 1049 l 246 1142 l 451 1326 l 590 1326 l 747 1136 l 657 1049 l 506 1168 l 325 1049 z "},"Ȕ":{"ha":800,"x_min":36,"x_max":832,"o":"m 739 296 q 678 131 726 204 q 546 17 629 58 q 350 -25 463 -25 q 116 49 196 -25 q 36 247 36 124 q 40 303 36 274 l 133 964 l 375 964 l 281 289 q 278 251 278 261 q 367 156 278 156 q 496 293 478 156 l 590 964 l 832 964 l 739 296 m 371 1376 l 460 1094 l 335 1042 l 208 1306 l 371 1376 m 600 1376 l 678 1093 l 553 1047 l 436 1311 l 600 1376 z "},"Ü":{"ha":800,"x_min":36,"x_max":832,"o":"m 739 296 q 678 131 726 204 q 546 17 629 58 q 350 -25 463 -25 q 116 49 196 -25 q 36 247 36 124 q 40 303 36 274 l 133 964 l 375 964 l 281 289 q 278 251 278 261 q 367 156 278 156 q 496 293 478 156 l 590 964 l 832 964 l 739 296 m 344 1063 q 269 1090 297 1063 q 242 1163 242 1118 q 279 1255 242 1218 q 371 1292 317 1292 q 446 1265 418 1292 q 474 1192 474 1238 q 436 1099 474 1136 q 344 1063 399 1063 m 644 1063 q 569 1090 597 1063 q 542 1163 542 1118 q 579 1255 542 1218 q 671 1292 617 1292 q 746 1265 718 1292 q 774 1192 774 1238 q 736 1099 774 1136 q 644 1063 699 1063 z "},"Ǘ":{"ha":800,"x_min":36,"x_max":832,"o":"m 739 296 q 678 131 726 204 q 546 17 629 58 q 350 -25 463 -25 q 116 49 196 -25 q 36 247 36 124 q 40 303 36 274 l 133 964 l 375 964 l 281 289 q 278 251 278 261 q 367 156 278 156 q 496 293 478 156 l 590 964 l 832 964 l 739 296 m 644 1543 l 756 1424 l 517 1221 l 438 1296 l 644 1543 m 335 1040 q 260 1068 288 1040 q 232 1140 232 1096 q 270 1232 232 1194 q 363 1269 308 1269 q 438 1242 410 1269 q 465 1169 465 1215 q 427 1078 465 1115 q 335 1040 389 1040 m 656 1040 q 581 1068 608 1040 q 553 1140 553 1096 q 590 1232 553 1194 q 682 1269 628 1269 q 757 1242 729 1269 q 785 1169 785 1215 q 747 1077 785 1114 q 656 1040 710 1040 z "},"Ǚ":{"ha":800,"x_min":36,"x_max":832,"o":"m 739 296 q 678 131 726 204 q 546 17 629 58 q 350 -25 463 -25 q 116 49 196 -25 q 36 247 36 124 q 40 303 36 274 l 133 964 l 375 964 l 281 289 q 278 251 278 261 q 367 156 278 156 q 496 293 478 156 l 590 964 l 832 964 l 739 296 m 715 1546 l 793 1453 l 589 1268 l 449 1268 l 292 1460 l 382 1546 l 535 1428 l 715 1546 m 332 1040 q 257 1068 285 1040 q 229 1140 229 1096 q 267 1232 229 1194 q 360 1269 306 1269 q 435 1242 407 1269 q 463 1169 463 1215 q 424 1078 463 1115 q 332 1040 386 1040 m 653 1040 q 578 1068 606 1040 q 550 1140 550 1096 q 588 1232 550 1194 q 681 1269 626 1269 q 756 1242 728 1269 q 783 1169 783 1215 q 745 1078 783 1115 q 653 1040 707 1040 z "},"Ǜ":{"ha":800,"x_min":36,"x_max":832,"o":"m 739 296 q 678 131 726 204 q 546 17 629 58 q 350 -25 463 -25 q 116 49 196 -25 q 36 247 36 124 q 40 303 36 274 l 133 964 l 375 964 l 281 289 q 278 251 278 261 q 367 156 278 156 q 496 293 478 156 l 590 964 l 832 964 l 739 296 m 465 1540 l 603 1289 l 507 1221 l 326 1432 l 465 1540 m 331 1040 q 256 1068 283 1040 q 228 1140 228 1096 q 266 1232 228 1194 q 358 1269 304 1269 q 433 1242 406 1269 q 461 1169 461 1215 q 423 1078 461 1115 q 331 1040 385 1040 m 651 1040 q 576 1068 604 1040 q 549 1140 549 1096 q 586 1232 549 1194 q 678 1269 624 1269 q 753 1242 725 1269 q 781 1169 781 1215 q 743 1077 781 1114 q 651 1040 706 1040 z "},"Ǖ":{"ha":800,"x_min":36,"x_max":832,"o":"m 739 296 q 678 131 726 204 q 546 17 629 58 q 350 -25 463 -25 q 116 49 196 -25 q 36 247 36 124 q 40 303 36 274 l 133 964 l 375 964 l 281 289 q 278 251 278 261 q 367 156 278 156 q 496 293 478 156 l 590 964 l 832 964 l 739 296 m 342 1036 q 267 1064 294 1036 q 239 1136 239 1092 q 276 1228 239 1192 q 368 1265 314 1265 q 443 1238 415 1265 q 471 1165 471 1211 q 433 1073 471 1110 q 342 1036 396 1036 m 642 1036 q 567 1064 594 1036 q 539 1136 539 1092 q 576 1228 539 1192 q 668 1265 614 1265 q 743 1238 715 1265 q 771 1165 771 1211 q 733 1073 771 1110 q 642 1036 696 1036 m 718 1319 l 325 1319 l 349 1482 l 742 1482 l 718 1319 z "},"Ụ":{"ha":800,"x_min":36,"x_max":832,"o":"m 739 296 q 678 131 726 204 q 546 17 629 58 q 350 -25 463 -25 q 116 49 196 -25 q 36 247 36 124 q 40 303 36 274 l 133 964 l 375 964 l 281 289 q 278 251 278 261 q 367 156 278 156 q 496 293 478 156 l 590 964 l 832 964 l 739 296 m 331 -81 q 418 -112 386 -81 q 450 -194 450 -143 q 407 -301 450 -258 q 301 -343 364 -343 q 214 -312 246 -343 q 182 -229 182 -281 q 225 -123 182 -165 q 331 -81 268 -81 z "},"Ù":{"ha":800,"x_min":36,"x_max":832,"o":"m 739 296 q 678 131 726 204 q 546 17 629 58 q 350 -25 463 -25 q 116 49 196 -25 q 36 247 36 124 q 40 303 36 274 l 133 964 l 375 964 l 281 289 q 278 251 278 261 q 367 156 278 156 q 496 293 478 156 l 590 964 l 832 964 l 739 296 m 440 1321 l 701 1144 l 636 1036 l 343 1153 l 440 1321 z "},"Ủ":{"ha":800,"x_min":36,"x_max":832,"o":"m 739 296 q 678 131 726 204 q 546 17 629 58 q 350 -25 463 -25 q 116 49 196 -25 q 36 247 36 124 q 40 303 36 274 l 133 964 l 375 964 l 281 289 q 278 251 278 261 q 367 156 278 156 q 496 293 478 156 l 590 964 l 832 964 l 739 296 m 446 1186 q 519 1203 496 1189 q 542 1246 542 1217 q 500 1281 542 1281 q 465 1276 481 1281 q 425 1261 449 1271 l 401 1358 q 540 1393 464 1393 q 654 1356 614 1393 q 694 1261 694 1319 q 661 1167 694 1203 q 568 1118 628 1131 l 561 1061 l 432 1061 l 446 1186 z "},"Ư":{"ha":924,"x_min":36,"x_max":1028,"o":"m 1028 990 q 969 827 1028 883 q 804 768 911 771 l 739 296 q 678 131 726 204 q 546 17 629 58 q 350 -25 463 -25 q 116 49 196 -25 q 36 247 36 124 q 40 303 36 274 l 133 964 l 375 964 l 281 289 q 278 251 278 261 q 367 156 278 156 q 496 293 478 156 l 590 964 l 832 964 l 821 885 q 863 919 850 894 q 876 989 876 944 q 871 1054 876 1018 l 1018 1072 q 1028 990 1028 1036 z "},"Ứ":{"ha":924,"x_min":36,"x_max":1028,"o":"m 711 1154 l 388 1035 l 336 1147 l 636 1325 l 711 1154 m 1028 990 q 969 827 1028 883 q 804 768 911 771 l 739 296 q 678 131 726 204 q 546 17 629 58 q 350 -25 463 -25 q 116 49 196 -25 q 36 247 36 124 q 40 303 36 274 l 133 964 l 375 964 l 281 289 q 278 251 278 261 q 367 156 278 156 q 496 293 478 156 l 590 964 l 832 964 l 821 885 q 863 919 850 894 q 876 989 876 944 q 871 1054 876 1018 l 1018 1072 q 1028 990 1028 1036 z "},"Ự":{"ha":924,"x_min":36,"x_max":1028,"o":"m 1028 990 q 969 827 1028 883 q 804 768 911 771 l 739 296 q 678 131 726 204 q 546 17 629 58 q 350 -25 463 -25 q 116 49 196 -25 q 36 247 36 124 q 40 303 36 274 l 133 964 l 375 964 l 281 289 q 278 251 278 261 q 367 156 278 156 q 496 293 478 156 l 590 964 l 832 964 l 821 885 q 863 919 850 894 q 876 989 876 944 q 871 1054 876 1018 l 1018 1072 q 1028 990 1028 1036 m 331 -81 q 418 -112 386 -81 q 450 -194 450 -143 q 407 -301 450 -258 q 301 -343 364 -343 q 214 -312 246 -343 q 182 -229 182 -281 q 225 -123 182 -165 q 331 -81 268 -81 z "},"Ừ":{"ha":924,"x_min":36,"x_max":1028,"o":"m 701 1144 l 636 1036 l 343 1153 l 440 1321 l 701 1144 m 1028 990 q 969 827 1028 883 q 804 768 911 771 l 739 296 q 678 131 726 204 q 546 17 629 58 q 350 -25 463 -25 q 116 49 196 -25 q 36 247 36 124 q 40 303 36 274 l 133 964 l 375 964 l 281 289 q 278 251 278 261 q 367 156 278 156 q 496 293 478 156 l 590 964 l 832 964 l 821 885 q 863 919 850 894 q 876 989 876 944 q 871 1054 876 1018 l 1018 1072 q 1028 990 1028 1036 z "},"Ử":{"ha":924,"x_min":36,"x_max":1028,"o":"m 500 1281 q 465 1276 481 1281 q 425 1261 449 1271 l 401 1358 q 540 1393 464 1393 q 654 1356 614 1393 q 694 1261 694 1319 q 661 1167 694 1203 q 568 1118 628 1131 l 561 1061 l 432 1061 l 446 1186 q 519 1203 496 1189 q 542 1246 542 1217 q 500 1281 542 1281 m 1028 990 q 969 827 1028 883 q 804 768 911 771 l 739 296 q 678 131 726 204 q 546 17 629 58 q 350 -25 463 -25 q 116 49 196 -25 q 36 247 36 124 q 40 303 36 274 l 133 964 l 375 964 l 281 289 q 278 251 278 261 q 367 156 278 156 q 496 293 478 156 l 590 964 l 832 964 l 821 885 q 863 919 850 894 q 876 989 876 944 q 871 1054 876 1018 l 1018 1072 q 1028 990 1028 1036 z "},"Ữ":{"ha":924,"x_min":36,"x_max":1028,"o":"m 435 1113 q 398 1098 414 1113 q 361 1051 382 1083 l 258 1110 q 344 1232 294 1185 q 447 1279 393 1279 q 496 1269 475 1279 q 540 1242 517 1260 q 567 1224 556 1229 q 589 1218 578 1218 q 624 1233 608 1218 q 660 1278 640 1247 l 763 1221 q 676 1099 726 1146 q 574 1051 626 1051 q 531 1061 550 1051 q 488 1088 513 1071 q 472 1098 483 1090 q 452 1109 461 1106 q 435 1113 443 1113 m 1028 990 q 969 827 1028 883 q 804 768 911 771 l 739 296 q 678 131 726 204 q 546 17 629 58 q 350 -25 463 -25 q 116 49 196 -25 q 36 247 36 124 q 40 303 36 274 l 133 964 l 375 964 l 281 289 q 278 251 278 261 q 367 156 278 156 q 496 293 478 156 l 590 964 l 832 964 l 821 885 q 863 919 850 894 q 876 989 876 944 q 871 1054 876 1018 l 1018 1072 q 1028 990 1028 1036 z "},"Ű":{"ha":800,"x_min":36,"x_max":832,"o":"m 739 296 q 678 131 726 204 q 546 17 629 58 q 350 -25 463 -25 q 116 49 196 -25 q 36 247 36 124 q 40 303 36 274 l 133 964 l 375 964 l 281 289 q 278 251 278 261 q 367 156 278 156 q 496 293 478 156 l 590 964 l 832 964 l 739 296 m 467 1376 l 604 1304 l 419 1047 l 310 1096 l 467 1376 m 694 1376 l 831 1299 l 636 1042 l 529 1097 l 694 1376 z "},"Ȗ":{"ha":800,"x_min":36,"x_max":832,"o":"m 739 296 q 678 131 726 204 q 546 17 629 58 q 350 -25 463 -25 q 116 49 196 -25 q 36 247 36 124 q 40 303 36 274 l 133 964 l 375 964 l 281 289 q 278 251 278 261 q 367 156 278 156 q 496 293 478 156 l 590 964 l 832 964 l 739 296 m 271 1081 q 362 1260 296 1190 q 531 1329 428 1329 q 684 1258 635 1329 q 726 1078 733 1186 l 600 1060 q 514 1165 593 1165 q 393 1056 432 1165 l 271 1081 z "},"Ū":{"ha":800,"x_min":36,"x_max":832,"o":"m 739 296 q 678 131 726 204 q 546 17 629 58 q 350 -25 463 -25 q 116 49 196 -25 q 36 247 36 124 q 40 303 36 274 l 133 964 l 375 964 l 281 289 q 278 251 278 261 q 367 156 278 156 q 496 293 478 156 l 590 964 l 832 964 l 739 296 m 692 1082 l 299 1082 l 322 1244 l 715 1244 l 692 1082 z "},"Ų":{"ha":800,"x_min":36,"x_max":832,"o":"m 832 964 l 739 296 q 658 106 724 186 q 485 -7 593 25 q 336 -154 336 -68 q 392 -201 336 -201 q 471 -190 426 -201 l 438 -333 q 346 -344 393 -344 q 217 -306 267 -344 q 168 -200 168 -267 q 297 -22 168 -87 q 102 63 168 -10 q 36 247 36 135 q 40 303 36 274 l 133 964 l 375 964 l 281 289 q 278 251 278 261 q 367 156 278 156 q 496 293 478 156 l 590 964 l 832 964 z "},"Ʊ":{"ha":865,"x_min":38,"x_max":886,"o":"m 378 -25 q 193 22 269 -25 q 77 150 117 68 q 38 338 38 232 q 271 792 38 649 l 121 792 l 146 964 l 468 964 l 444 800 q 324 600 364 738 q 285 318 285 463 q 312 193 285 233 q 394 153 339 153 q 516 222 468 153 q 585 393 564 290 q 606 603 606 496 q 590 721 606 676 q 542 803 575 765 l 565 964 l 886 964 l 861 790 l 714 790 q 811 677 778 743 q 844 517 844 611 q 788 243 844 367 q 624 47 731 119 q 378 -25 518 -25 z "},"Ů":{"ha":800,"x_min":36,"x_max":832,"o":"m 739 296 q 678 131 726 204 q 546 17 629 58 q 350 -25 463 -25 q 116 49 196 -25 q 36 247 36 124 q 40 303 36 274 l 133 964 l 375 964 l 281 289 q 278 251 278 261 q 367 156 278 156 q 496 293 478 156 l 590 964 l 832 964 l 739 296 m 538 1386 q 659 1340 615 1386 q 703 1218 703 1293 q 676 1115 703 1163 q 602 1040 650 1068 q 492 1011 554 1011 q 371 1058 414 1011 q 328 1178 328 1104 q 354 1281 328 1233 q 428 1358 381 1329 q 538 1386 476 1386 m 526 1269 q 476 1244 494 1269 q 458 1185 458 1218 q 503 1129 458 1129 q 553 1154 535 1129 q 571 1213 571 1179 q 526 1269 571 1269 z "},"Ũ":{"ha":800,"x_min":36,"x_max":832,"o":"m 739 296 q 678 131 726 204 q 546 17 629 58 q 350 -25 463 -25 q 116 49 196 -25 q 36 247 36 124 q 40 303 36 274 l 133 964 l 375 964 l 281 289 q 278 251 278 261 q 367 156 278 156 q 496 293 478 156 l 590 964 l 832 964 l 739 296 m 574 1051 q 531 1061 550 1051 q 488 1088 513 1071 q 472 1098 483 1090 q 452 1109 461 1106 q 435 1113 443 1113 q 398 1098 414 1113 q 361 1051 382 1083 l 258 1110 q 344 1232 294 1185 q 447 1279 393 1279 q 496 1269 475 1279 q 540 1242 517 1260 q 567 1224 556 1229 q 589 1218 578 1218 q 624 1233 608 1218 q 660 1278 640 1247 l 763 1221 q 676 1099 726 1146 q 574 1051 626 1051 z "},"Ṹ":{"ha":800,"x_min":36,"x_max":832,"o":"m 739 296 q 678 131 726 204 q 546 17 629 58 q 350 -25 463 -25 q 116 49 196 -25 q 36 247 36 124 q 40 303 36 274 l 133 964 l 375 964 l 281 289 q 278 251 278 261 q 367 156 278 156 q 496 293 478 156 l 590 964 l 832 964 l 739 296 m 565 1049 q 523 1058 542 1049 q 479 1085 504 1068 q 464 1095 475 1088 q 444 1106 453 1103 q 426 1110 435 1110 q 390 1095 406 1110 q 353 1049 374 1081 l 250 1107 q 335 1229 286 1182 q 439 1276 385 1276 q 488 1267 467 1276 q 532 1239 508 1257 q 558 1221 547 1226 q 581 1215 569 1215 q 616 1230 600 1215 q 651 1275 632 1244 l 754 1218 q 668 1096 718 1143 q 565 1049 618 1049 m 635 1586 l 710 1415 l 386 1296 l 335 1408 l 635 1586 z "},"V":{"ha":719,"x_min":61,"x_max":825,"o":"m 825 964 l 471 0 l 160 0 l 61 964 l 310 964 l 342 183 l 576 964 l 825 964 z "},"Ʋ":{"ha":794,"x_min":35,"x_max":806,"o":"m 624 990 q 806 808 806 990 q 801 746 806 779 l 751 376 q 613 79 725 183 q 328 -25 501 -25 q 113 48 190 -25 q 35 239 35 121 q 39 289 35 264 l 135 964 l 376 964 l 281 276 q 278 242 278 251 q 297 178 278 200 q 350 156 315 156 q 451 209 408 156 q 508 376 493 263 l 563 775 q 564 789 564 781 q 539 817 564 817 q 510 811 529 817 l 497 967 q 624 990 557 990 z "},"Ʌ":{"ha":747,"x_min":-75,"x_max":717,"o":"m 601 964 l 717 0 l 469 0 l 432 790 l 181 0 l -75 0 l 311 964 l 601 964 z "},"W":{"ha":1063,"x_min":81,"x_max":1138,"o":"m 1138 964 l 875 0 l 560 0 l 578 726 l 392 0 l 81 0 l 92 964 l 328 964 l 283 183 l 490 964 l 739 964 l 717 183 l 906 964 l 1138 964 z "},"Ẃ":{"ha":1063,"x_min":81,"x_max":1138,"o":"m 1138 964 l 875 0 l 560 0 l 578 726 l 392 0 l 81 0 l 92 964 l 328 964 l 283 183 l 490 964 l 739 964 l 717 183 l 906 964 l 1138 964 m 772 1325 l 847 1154 l 524 1035 l 472 1147 l 772 1325 z "},"Ŵ":{"ha":1063,"x_min":81,"x_max":1138,"o":"m 1138 964 l 875 0 l 560 0 l 578 726 l 392 0 l 81 0 l 92 964 l 328 964 l 283 183 l 490 964 l 739 964 l 717 183 l 906 964 l 1138 964 m 461 1049 l 382 1142 l 588 1326 l 726 1326 l 883 1136 l 793 1049 l 642 1168 l 461 1049 z "},"Ẅ":{"ha":1063,"x_min":81,"x_max":1138,"o":"m 1138 964 l 875 0 l 560 0 l 578 726 l 392 0 l 81 0 l 92 964 l 328 964 l 283 183 l 490 964 l 739 964 l 717 183 l 906 964 l 1138 964 m 481 1063 q 406 1090 433 1063 q 378 1163 378 1118 q 415 1255 378 1218 q 507 1292 453 1292 q 582 1265 554 1292 q 610 1192 610 1238 q 572 1099 610 1136 q 481 1063 535 1063 m 781 1063 q 706 1090 733 1063 q 678 1163 678 1118 q 715 1255 678 1218 q 807 1292 753 1292 q 882 1265 854 1292 q 910 1192 910 1238 q 872 1099 910 1136 q 781 1063 835 1063 z "},"Ẁ":{"ha":1063,"x_min":81,"x_max":1138,"o":"m 1138 964 l 875 0 l 560 0 l 578 726 l 392 0 l 81 0 l 92 964 l 328 964 l 283 183 l 490 964 l 739 964 l 717 183 l 906 964 l 1138 964 m 576 1321 l 838 1144 l 772 1036 l 479 1153 l 576 1321 z "},"Ⱳ":{"ha":1126,"x_min":81,"x_max":1253,"o":"m 392 0 l 578 726 l 560 0 l 872 0 l 1053 756 q 1118 817 1068 817 q 1171 800 1144 817 l 1253 936 q 1092 989 1182 989 q 934 938 993 989 q 849 767 875 888 l 717 183 l 739 964 l 490 964 l 283 183 l 328 964 l 92 964 l 81 0 l 392 0 z "},"Ƿ":{"ha":751,"x_min":13,"x_max":785,"o":"m 576 990 q 728 928 671 990 q 785 757 785 865 q 734 560 785 640 q 599 424 683 479 q 386 318 514 369 l 293 282 l 254 0 l 13 0 l 147 964 l 389 964 l 382 915 q 576 990 465 990 m 351 472 q 533 732 533 568 q 467 817 533 817 q 361 769 413 817 l 318 456 l 351 472 z "},"X":{"ha":736,"x_min":-64,"x_max":811,"o":"m 811 964 l 528 519 l 694 0 l 439 0 l 364 367 l 197 0 l -64 0 l 239 513 l 88 964 l 343 964 l 400 650 l 551 964 l 811 964 z "},"Y":{"ha":753,"x_min":67,"x_max":853,"o":"m 853 964 l 496 360 l 446 0 l 204 0 l 254 358 l 67 964 l 322 964 l 403 546 l 594 964 l 853 964 z "},"Ý":{"ha":753,"x_min":67,"x_max":853,"o":"m 853 964 l 496 360 l 446 0 l 204 0 l 254 358 l 67 964 l 322 964 l 403 546 l 594 964 l 853 964 m 613 1325 l 688 1154 l 364 1035 l 313 1147 l 613 1325 z "},"Ŷ":{"ha":753,"x_min":67,"x_max":853,"o":"m 853 964 l 496 360 l 446 0 l 204 0 l 254 358 l 67 964 l 322 964 l 403 546 l 594 964 l 853 964 m 301 1049 l 222 1142 l 428 1326 l 567 1326 l 724 1136 l 633 1049 l 482 1168 l 301 1049 z "},"Ÿ":{"ha":753,"x_min":67,"x_max":853,"o":"m 853 964 l 496 360 l 446 0 l 204 0 l 254 358 l 67 964 l 322 964 l 403 546 l 594 964 l 853 964 m 321 1063 q 246 1090 274 1063 q 218 1163 218 1118 q 256 1255 218 1218 q 347 1292 293 1292 q 422 1265 394 1292 q 450 1192 450 1238 q 413 1099 450 1136 q 321 1063 375 1063 m 621 1063 q 546 1090 574 1063 q 518 1163 518 1118 q 556 1255 518 1218 q 647 1292 593 1292 q 722 1265 694 1292 q 750 1192 750 1238 q 713 1099 750 1136 q 621 1063 675 1063 z "},"Ỵ":{"ha":753,"x_min":67,"x_max":853,"o":"m 853 964 l 496 360 l 446 0 l 204 0 l 254 358 l 67 964 l 322 964 l 403 546 l 594 964 l 853 964 m 308 -81 q 396 -112 364 -81 q 428 -194 428 -143 q 385 -301 428 -258 q 279 -343 342 -343 q 192 -312 224 -343 q 160 -229 160 -281 q 203 -123 160 -165 q 308 -81 246 -81 z "},"Ỳ":{"ha":753,"x_min":67,"x_max":853,"o":"m 853 964 l 496 360 l 446 0 l 204 0 l 254 358 l 67 964 l 322 964 l 403 546 l 594 964 l 853 964 m 417 1321 l 678 1144 l 613 1036 l 319 1153 l 417 1321 z "},"Ƴ":{"ha":789,"x_min":67,"x_max":915,"o":"m 254 358 l 67 965 l 322 965 l 401 546 l 508 800 q 606 946 550 901 q 756 990 663 990 q 843 976 806 990 q 915 936 881 963 l 833 800 q 781 817 804 817 q 743 804 758 817 q 710 760 728 792 l 496 360 l 446 0 l 204 0 l 254 358 z "},"Ỷ":{"ha":753,"x_min":67,"x_max":853,"o":"m 853 964 l 496 360 l 446 0 l 204 0 l 254 358 l 67 964 l 322 964 l 403 546 l 594 964 l 853 964 m 422 1186 q 495 1203 472 1189 q 518 1246 518 1217 q 476 1281 518 1281 q 441 1276 457 1281 q 401 1261 425 1271 l 378 1358 q 517 1393 440 1393 q 631 1356 590 1393 q 671 1261 671 1319 q 638 1167 671 1203 q 544 1118 604 1131 l 538 1061 l 408 1061 l 422 1186 z "},"Ȳ":{"ha":753,"x_min":67,"x_max":853,"o":"m 853 964 l 496 360 l 446 0 l 204 0 l 254 358 l 67 964 l 322 964 l 403 546 l 594 964 l 853 964 m 668 1082 l 275 1082 l 299 1244 l 692 1244 l 668 1082 z "},"Ʀ":{"ha":774,"x_min":14,"x_max":757,"o":"m 757 556 q 712 376 757 451 q 564 247 667 301 l 718 -157 l 464 -157 l 344 203 l 283 203 l 256 0 l 14 0 l 149 964 l 390 964 l 368 807 l 415 807 q 757 556 757 807 m 307 371 l 367 371 q 476 421 443 371 q 510 542 510 471 q 483 614 510 592 q 399 636 456 636 l 344 636 l 307 371 z "},"Ɏ":{"ha":754,"x_min":33,"x_max":856,"o":"m 856 964 l 793 857 l 839 857 l 819 724 l 714 724 l 499 360 l 449 0 l 206 0 l 257 358 l 143 724 l 33 724 l 53 857 l 101 857 l 68 964 l 303 964 l 326 857 l 567 857 l 619 964 l 856 964 m 403 524 l 501 724 l 357 724 l 403 524 z "},"Ỹ":{"ha":753,"x_min":67,"x_max":853,"o":"m 853 964 l 496 360 l 446 0 l 204 0 l 254 358 l 67 964 l 322 964 l 403 546 l 594 964 l 853 964 m 550 1051 q 508 1061 526 1051 q 464 1088 489 1071 q 449 1098 460 1090 q 428 1109 438 1106 q 411 1113 419 1113 q 374 1098 390 1113 q 338 1051 358 1083 l 235 1110 q 320 1232 271 1185 q 424 1279 369 1279 q 472 1269 451 1279 q 517 1242 493 1260 q 543 1224 532 1229 q 565 1218 554 1218 q 601 1233 585 1218 q 636 1278 617 1247 l 739 1221 q 653 1099 703 1146 q 550 1051 603 1051 z "},"Z":{"ha":679,"x_min":-37,"x_max":729,"o":"m -37 0 l -12 182 l 432 775 l 104 775 l 132 964 l 729 964 l 703 779 l 261 194 l 635 194 l 582 0 l -37 0 z "},"Ź":{"ha":679,"x_min":-37,"x_max":729,"o":"m -37 0 l -12 182 l 432 775 l 104 775 l 132 964 l 729 964 l 703 779 l 261 194 l 635 194 l 582 0 l -37 0 m 579 1325 l 654 1154 l 331 1035 l 279 1147 l 579 1325 z "},"Ž":{"ha":679,"x_min":-37,"x_max":729,"o":"m -37 0 l -12 182 l 432 775 l 104 775 l 132 964 l 729 964 l 703 779 l 261 194 l 635 194 l 582 0 l -37 0 m 632 1318 l 710 1225 l 506 1040 l 365 1040 l 208 1232 l 299 1318 l 451 1200 l 632 1318 z "},"Ż":{"ha":679,"x_min":-37,"x_max":729,"o":"m -37 0 l -12 182 l 432 775 l 104 775 l 132 964 l 729 964 l 703 779 l 261 194 l 635 194 l 582 0 l -37 0 m 444 1046 q 357 1077 389 1046 q 325 1160 325 1108 q 368 1266 325 1224 q 474 1308 411 1308 q 561 1277 529 1308 q 593 1194 593 1246 q 550 1088 593 1131 q 444 1046 507 1046 z "},"Ẓ":{"ha":679,"x_min":-37,"x_max":729,"o":"m -37 0 l -12 182 l 432 775 l 104 775 l 132 964 l 729 964 l 703 779 l 261 194 l 635 194 l 582 0 l -37 0 m 256 -81 q 343 -112 311 -81 q 375 -194 375 -143 q 332 -301 375 -258 q 226 -343 289 -343 q 139 -312 171 -343 q 107 -229 107 -281 q 150 -123 107 -165 q 256 -81 193 -81 z "},"Ȥ":{"ha":665,"x_min":-37,"x_max":729,"o":"m 703 779 l 263 194 l 619 194 l 592 0 l 582 -57 q 484 -246 563 -181 q 288 -311 406 -311 q 104 -249 174 -311 l 197 -114 q 237 -133 219 -126 q 278 -139 254 -139 q 353 -58 343 -139 l 361 0 l -37 0 l -12 182 l 432 775 l 104 775 l 132 964 l 729 964 l 703 779 z "},"Ƶ":{"ha":679,"x_min":-37,"x_max":729,"o":"m 729 964 l 703 779 l 526 554 l 615 554 l 594 406 l 410 406 l 243 194 l 635 194 l 582 0 l -37 0 l -12 182 l 163 406 l 65 406 l 88 554 l 279 554 l 451 775 l 104 775 l 132 964 l 729 964 z "},"ʙ":{"ha":675,"x_min":8,"x_max":658,"o":"m 486 406 q 638 258 638 388 q 546 65 638 131 q 299 0 454 0 l 8 0 l 110 732 q 388 764 257 764 q 586 716 514 764 q 658 583 658 668 q 614 469 657 514 q 486 406 571 424 m 342 451 q 406 480 382 451 q 429 560 429 508 q 415 602 429 589 q 368 615 400 615 q 321 613 351 615 l 299 451 l 342 451 m 301 151 q 378 183 350 151 q 407 272 407 214 q 390 318 407 304 q 336 332 374 332 l 281 332 l 256 151 l 301 151 z "},"ɢ":{"ha":704,"x_min":25,"x_max":694,"o":"m 435 765 q 584 737 522 765 q 694 660 646 708 l 569 542 q 506 585 538 571 q 435 599 474 599 q 305 503 346 599 q 264 269 264 407 q 283 172 264 201 q 344 143 303 143 q 419 160 382 143 l 436 285 l 367 285 l 368 436 l 671 436 l 619 67 q 483 1 560 25 q 322 -22 407 -22 q 25 269 25 -22 q 77 529 25 417 q 222 703 129 642 q 435 765 315 765 z "},"ʛ":{"ha":703,"x_min":25,"x_max":938,"o":"m 764 1056 q 938 1003 867 1056 l 856 861 q 782 883 815 883 q 736 865 751 883 q 715 806 721 846 l 693 660 l 582 554 q 508 588 542 576 q 435 599 474 599 q 304 502 346 599 q 263 269 263 406 q 283 172 263 201 q 344 143 303 143 q 419 160 382 143 l 436 285 l 367 285 l 368 436 l 671 436 l 619 67 q 483 1 560 25 q 322 -22 407 -22 q 25 269 25 -22 q 77 528 25 415 q 219 703 129 642 q 417 765 308 765 q 508 750 465 765 l 522 839 q 599 999 539 943 q 764 1056 658 1056 z "},"ʜ":{"ha":721,"x_min":8,"x_max":713,"o":"m 378 0 l 418 288 l 281 288 l 240 0 l 8 0 l 111 739 l 343 739 l 306 461 l 442 461 l 481 739 l 713 739 l 610 0 l 378 0 z "},"ɪ":{"ha":417,"x_min":-37,"x_max":454,"o":"m 432 575 l 353 575 l 294 164 l 374 164 l 351 0 l -37 0 l -15 164 l 63 164 l 121 575 l 43 575 l 65 739 l 454 739 l 432 575 z "},"ʟ":{"ha":564,"x_min":8,"x_max":533,"o":"m 343 739 l 268 181 l 533 181 l 482 0 l 8 0 l 111 739 l 343 739 z "},"ɴ":{"ha":722,"x_min":8,"x_max":714,"o":"m 611 0 l 340 0 l 249 535 l 250 443 q 233 193 250 310 l 206 0 l 8 0 l 111 739 l 382 739 l 475 204 l 474 318 q 486 513 474 418 l 518 739 l 714 739 l 611 0 z "},"ɶ":{"ha":953,"x_min":26,"x_max":988,"o":"m 665 579 q 696 453 694 518 l 896 453 l 875 296 l 676 296 q 610 163 657 225 l 901 163 l 879 0 l 440 0 q 310 -25 385 -25 q 101 53 176 -25 q 26 279 26 132 q 67 515 26 404 q 197 696 108 626 q 417 765 285 765 q 544 739 489 765 l 988 739 l 942 579 l 665 579 m 331 147 q 438 256 404 147 q 471 486 471 365 q 454 567 471 543 q 401 592 438 592 q 294 483 328 592 q 261 254 261 375 q 278 172 261 197 q 331 147 296 147 z "},"ʀ":{"ha":678,"x_min":8,"x_max":638,"o":"m 638 522 q 501 290 638 363 l 617 0 l 388 0 l 304 250 l 264 250 l 229 0 l 8 0 l 111 739 l 360 739 q 568 686 499 739 q 638 522 638 633 m 285 403 l 319 403 q 390 433 365 403 q 414 514 414 463 q 397 565 414 550 q 344 579 379 579 l 310 579 l 285 403 z "},"ʁ":{"ha":675,"x_min":8,"x_max":719,"o":"m 522 443 q 604 279 604 390 q 515 71 604 142 q 272 0 426 0 l 8 0 l 111 739 l 332 739 l 297 489 l 342 489 l 489 739 l 719 739 l 522 443 m 282 161 q 379 268 379 161 q 362 319 379 303 q 310 335 344 335 l 275 335 l 251 161 l 282 161 z "},"ʏ":{"ha":650,"x_min":39,"x_max":715,"o":"m 715 739 l 426 267 l 389 0 l 157 0 l 194 265 l 39 739 l 282 739 l 331 426 l 471 739 l 715 739 z "},"a":{"ha":726,"x_min":22,"x_max":714,"o":"m 433 765 q 714 689 579 765 l 647 221 q 644 183 644 193 q 651 152 644 164 q 675 132 658 140 l 606 -21 q 498 13 543 -15 q 436 92 453 40 q 348 5 396 35 q 236 -25 300 -25 q 78 49 133 -25 q 22 253 22 124 q 64 499 22 382 q 198 690 106 615 q 433 765 290 765 m 418 599 q 299 492 339 599 q 258 250 258 386 q 274 170 258 193 q 317 147 289 147 q 419 233 365 147 l 471 590 q 418 599 443 599 z "},"á":{"ha":726,"x_min":22,"x_max":714,"o":"m 433 765 q 714 689 579 765 l 647 221 q 644 183 644 193 q 651 152 644 164 q 675 132 658 140 l 606 -21 q 498 13 543 -15 q 436 92 453 40 q 348 5 396 35 q 236 -25 300 -25 q 78 49 133 -25 q 22 253 22 124 q 64 499 22 382 q 198 690 106 615 q 433 765 290 765 m 418 599 q 299 492 339 599 q 258 250 258 386 q 274 170 258 193 q 317 147 289 147 q 419 233 365 147 l 471 590 q 418 599 443 599 m 593 1164 l 668 993 l 344 861 l 289 975 l 593 1164 z "},"ă":{"ha":726,"x_min":22,"x_max":714,"o":"m 433 765 q 714 689 579 765 l 647 221 q 644 183 644 193 q 651 152 644 164 q 675 132 658 140 l 606 -21 q 498 13 543 -15 q 436 92 453 40 q 348 5 396 35 q 236 -25 300 -25 q 78 49 133 -25 q 22 253 22 124 q 64 499 22 382 q 198 690 106 615 q 433 765 290 765 m 418 599 q 299 492 339 599 q 258 250 258 386 q 274 170 258 193 q 317 147 289 147 q 419 233 365 147 l 471 590 q 418 599 443 599 m 463 875 q 315 938 365 875 q 265 1100 265 1001 l 267 1128 l 389 1146 q 413 1067 392 1094 q 475 1039 435 1039 q 547 1068 517 1039 q 594 1149 578 1097 l 713 1122 q 627 944 692 1014 q 463 875 563 875 z "},"ắ":{"ha":726,"x_min":22,"x_max":732,"o":"m 621 1388 l 732 1268 l 493 1065 l 414 1140 l 621 1388 m 467 836 q 315 906 364 836 q 272 1074 265 975 l 393 1092 q 418 1024 396 1050 q 479 999 440 999 q 594 1096 556 999 l 718 1069 q 633 903 697 969 q 467 836 568 836 m 433 765 q 714 689 579 765 l 647 221 q 644 183 644 193 q 651 152 644 164 q 675 132 658 140 l 606 -21 q 498 13 543 -15 q 436 92 453 40 q 348 5 396 35 q 236 -25 300 -25 q 78 49 133 -25 q 22 253 22 124 q 64 499 22 382 q 198 690 106 615 q 433 765 290 765 m 418 599 q 299 492 339 599 q 258 250 258 386 q 274 170 258 193 q 317 147 289 147 q 419 233 365 147 l 471 590 q 418 599 443 599 z "},"ặ":{"ha":726,"x_min":22,"x_max":714,"o":"m 433 765 q 714 689 579 765 l 647 221 q 644 183 644 193 q 651 152 644 164 q 675 132 658 140 l 606 -21 q 498 13 543 -15 q 436 92 453 40 q 348 5 396 35 q 236 -25 300 -25 q 78 49 133 -25 q 22 253 22 124 q 64 499 22 382 q 198 690 106 615 q 433 765 290 765 m 418 599 q 299 492 339 599 q 258 250 258 386 q 274 170 258 193 q 317 147 289 147 q 419 233 365 147 l 471 590 q 418 599 443 599 m 463 875 q 315 938 365 875 q 265 1100 265 1001 l 267 1128 l 389 1146 q 413 1067 392 1094 q 475 1039 435 1039 q 547 1068 517 1039 q 594 1149 578 1097 l 713 1122 q 627 944 692 1014 q 463 875 563 875 m 325 -81 q 413 -112 381 -81 q 444 -194 444 -143 q 401 -301 444 -258 q 296 -343 358 -343 q 208 -312 240 -343 q 176 -229 176 -281 q 219 -123 176 -165 q 325 -81 263 -81 z "},"ằ":{"ha":726,"x_min":22,"x_max":718,"o":"m 436 1385 l 574 1133 l 478 1065 l 297 1276 l 436 1385 m 467 836 q 315 906 364 836 q 272 1074 265 975 l 393 1092 q 418 1024 396 1050 q 479 999 440 999 q 594 1096 556 999 l 718 1069 q 633 903 697 969 q 467 836 568 836 m 433 765 q 714 689 579 765 l 647 221 q 644 183 644 193 q 651 152 644 164 q 675 132 658 140 l 606 -21 q 498 13 543 -15 q 436 92 453 40 q 348 5 396 35 q 236 -25 300 -25 q 78 49 133 -25 q 22 253 22 124 q 64 499 22 382 q 198 690 106 615 q 433 765 290 765 m 418 599 q 299 492 339 599 q 258 250 258 386 q 274 170 258 193 q 317 147 289 147 q 419 233 365 147 l 471 590 q 418 599 443 599 z "},"ẳ":{"ha":726,"x_min":22,"x_max":719,"o":"m 433 765 q 714 689 579 765 l 647 221 q 644 183 644 193 q 651 152 644 164 q 675 132 658 140 l 606 -21 q 498 13 543 -15 q 436 92 453 40 q 348 5 396 35 q 236 -25 300 -25 q 78 49 133 -25 q 22 253 22 124 q 64 499 22 382 q 198 690 106 615 q 433 765 290 765 m 418 599 q 299 492 339 599 q 258 250 258 386 q 274 170 258 193 q 317 147 289 147 q 419 233 365 147 l 471 590 q 418 599 443 599 m 468 836 q 316 906 365 836 q 274 1074 267 975 l 394 1092 q 419 1024 397 1050 q 481 999 442 999 q 596 1096 557 999 l 719 1069 q 634 903 699 969 q 468 836 569 836 m 443 1208 q 516 1225 493 1211 q 539 1268 539 1239 q 529 1294 539 1286 q 497 1301 519 1301 q 422 1283 465 1301 l 399 1381 q 538 1415 461 1415 q 651 1378 611 1415 q 692 1282 692 1342 q 658 1188 692 1224 q 565 1140 625 1153 l 556 1069 l 425 1069 l 443 1208 z "},"ẵ":{"ha":726,"x_min":22,"x_max":764,"o":"m 578 1121 q 537 1129 556 1121 q 493 1154 518 1138 q 465 1172 476 1167 q 442 1178 453 1178 q 405 1164 421 1178 q 368 1121 389 1150 l 268 1175 q 351 1287 303 1243 q 454 1331 400 1331 q 501 1322 482 1331 q 544 1297 521 1313 q 593 1275 574 1275 q 626 1288 611 1275 q 663 1329 642 1300 l 764 1278 q 680 1165 729 1208 q 578 1121 631 1121 m 469 836 q 317 906 367 836 q 275 1074 268 975 l 396 1092 q 421 1024 399 1050 q 482 999 443 999 q 597 1096 558 999 l 721 1069 q 635 903 700 969 q 469 836 571 836 m 433 765 q 714 689 579 765 l 647 221 q 644 183 644 193 q 651 152 644 164 q 675 132 658 140 l 606 -21 q 498 13 543 -15 q 436 92 453 40 q 348 5 396 35 q 236 -25 300 -25 q 78 49 133 -25 q 22 253 22 124 q 64 499 22 382 q 198 690 106 615 q 433 765 290 765 m 418 599 q 299 492 339 599 q 258 250 258 386 q 274 170 258 193 q 317 147 289 147 q 419 233 365 147 l 471 590 q 418 599 443 599 z "},"ǎ":{"ha":726,"x_min":22,"x_max":736,"o":"m 433 765 q 714 689 579 765 l 647 221 q 644 183 644 193 q 651 152 644 164 q 675 132 658 140 l 606 -21 q 498 13 543 -15 q 436 92 453 40 q 348 5 396 35 q 236 -25 300 -25 q 78 49 133 -25 q 22 253 22 124 q 64 499 22 382 q 198 690 106 615 q 433 765 290 765 m 418 599 q 299 492 339 599 q 258 250 258 386 q 274 170 258 193 q 317 147 289 147 q 419 233 365 147 l 471 590 q 418 599 443 599 m 661 1135 l 736 1042 l 531 846 l 390 846 l 240 1042 l 326 1135 l 475 1004 l 661 1135 z "},"â":{"ha":726,"x_min":22,"x_max":726,"o":"m 433 765 q 714 689 579 765 l 647 221 q 644 183 644 193 q 651 152 644 164 q 675 132 658 140 l 606 -21 q 498 13 543 -15 q 436 92 453 40 q 348 5 396 35 q 236 -25 300 -25 q 78 49 133 -25 q 22 253 22 124 q 64 499 22 382 q 198 690 106 615 q 433 765 290 765 m 418 599 q 299 492 339 599 q 258 250 258 386 q 274 170 258 193 q 317 147 289 147 q 419 233 365 147 l 471 590 q 418 599 443 599 m 300 860 l 225 953 l 431 1149 l 569 1149 l 726 947 l 631 860 l 483 990 l 300 860 z "},"ấ":{"ha":726,"x_min":22,"x_max":919,"o":"m 808 1346 l 919 1226 l 681 1024 l 601 1099 l 808 1346 m 288 813 l 208 906 l 414 1090 l 553 1090 l 710 900 l 619 813 l 468 932 l 288 813 m 433 765 q 714 689 579 765 l 647 221 q 644 183 644 193 q 651 152 644 164 q 675 132 658 140 l 606 -21 q 498 13 543 -15 q 436 92 453 40 q 348 5 396 35 q 236 -25 300 -25 q 78 49 133 -25 q 22 253 22 124 q 64 499 22 382 q 198 690 106 615 q 433 765 290 765 m 418 599 q 299 492 339 599 q 258 250 258 386 q 274 170 258 193 q 317 147 289 147 q 419 233 365 147 l 471 590 q 418 599 443 599 z "},"ậ":{"ha":726,"x_min":22,"x_max":726,"o":"m 433 765 q 714 689 579 765 l 647 221 q 644 183 644 193 q 651 152 644 164 q 675 132 658 140 l 606 -21 q 498 13 543 -15 q 436 92 453 40 q 348 5 396 35 q 236 -25 300 -25 q 78 49 133 -25 q 22 253 22 124 q 64 499 22 382 q 198 690 106 615 q 433 765 290 765 m 418 599 q 299 492 339 599 q 258 250 258 386 q 274 170 258 193 q 317 147 289 147 q 419 233 365 147 l 471 590 q 418 599 443 599 m 300 860 l 225 953 l 431 1149 l 569 1149 l 726 947 l 631 860 l 483 990 l 300 860 m 325 -81 q 413 -112 381 -81 q 444 -194 444 -143 q 401 -301 444 -258 q 296 -343 358 -343 q 208 -312 240 -343 q 176 -229 176 -281 q 219 -123 176 -165 q 325 -81 263 -81 z "},"ầ":{"ha":726,"x_min":22,"x_max":714,"o":"m 222 1343 l 360 1092 l 264 1024 l 83 1235 l 222 1343 m 289 813 l 210 906 l 415 1090 l 554 1090 l 711 900 l 621 813 l 469 932 l 289 813 m 433 765 q 714 689 579 765 l 647 221 q 644 183 644 193 q 651 152 644 164 q 675 132 658 140 l 606 -21 q 498 13 543 -15 q 436 92 453 40 q 348 5 396 35 q 236 -25 300 -25 q 78 49 133 -25 q 22 253 22 124 q 64 499 22 382 q 198 690 106 615 q 433 765 290 765 m 418 599 q 299 492 339 599 q 258 250 258 386 q 274 170 258 193 q 317 147 289 147 q 419 233 365 147 l 471 590 q 418 599 443 599 z "},"ẩ":{"ha":726,"x_min":22,"x_max":889,"o":"m 433 765 q 714 689 579 765 l 647 221 q 644 183 644 193 q 651 152 644 164 q 675 132 658 140 l 606 -21 q 498 13 543 -15 q 436 92 453 40 q 348 5 396 35 q 236 -25 300 -25 q 78 49 133 -25 q 22 253 22 124 q 64 499 22 382 q 198 690 106 615 q 433 765 290 765 m 418 599 q 299 492 339 599 q 258 250 258 386 q 274 170 258 193 q 317 147 289 147 q 419 233 365 147 l 471 590 q 418 599 443 599 m 286 813 l 207 906 l 413 1090 l 551 1090 l 708 900 l 618 813 l 467 932 l 286 813 m 640 1196 q 713 1213 690 1199 q 736 1256 736 1226 q 726 1281 736 1274 q 694 1289 717 1289 q 619 1271 663 1289 l 596 1368 q 735 1403 658 1403 q 849 1366 808 1403 q 889 1269 889 1329 q 856 1176 889 1211 q 763 1128 822 1140 l 753 1057 l 622 1057 l 640 1196 z "},"ẫ":{"ha":726,"x_min":22,"x_max":758,"o":"m 572 1124 q 531 1132 550 1124 q 488 1157 513 1140 q 459 1175 471 1169 q 436 1181 447 1181 q 399 1167 415 1181 q 363 1124 383 1153 l 263 1178 q 346 1290 297 1246 q 449 1333 394 1333 q 496 1324 476 1333 q 539 1300 515 1315 q 588 1278 568 1278 q 621 1290 606 1278 q 657 1332 636 1303 l 758 1281 q 674 1167 724 1211 q 572 1124 625 1124 m 286 808 l 207 901 l 413 1086 l 551 1086 l 708 896 l 618 808 l 467 928 l 286 808 m 433 765 q 714 689 579 765 l 647 221 q 644 183 644 193 q 651 152 644 164 q 675 132 658 140 l 606 -21 q 498 13 543 -15 q 436 92 453 40 q 348 5 396 35 q 236 -25 300 -25 q 78 49 133 -25 q 22 253 22 124 q 64 499 22 382 q 198 690 106 615 q 433 765 290 765 m 418 599 q 299 492 339 599 q 258 250 258 386 q 274 170 258 193 q 317 147 289 147 q 419 233 365 147 l 471 590 q 418 599 443 599 z "},"ȁ":{"ha":726,"x_min":22,"x_max":714,"o":"m 433 765 q 714 689 579 765 l 647 221 q 644 183 644 193 q 651 152 644 164 q 675 132 658 140 l 606 -21 q 498 13 543 -15 q 436 92 453 40 q 348 5 396 35 q 236 -25 300 -25 q 78 49 133 -25 q 22 253 22 124 q 64 499 22 382 q 198 690 106 615 q 433 765 290 765 m 418 599 q 299 492 339 599 q 258 250 258 386 q 274 170 258 193 q 317 147 289 147 q 419 233 365 147 l 471 590 q 418 599 443 599 m 344 1201 l 433 919 l 308 867 l 182 1131 l 344 1201 m 574 1201 l 651 918 l 526 872 l 410 1136 l 574 1201 z "},"ä":{"ha":726,"x_min":22,"x_max":747,"o":"m 433 765 q 714 689 579 765 l 647 221 q 644 183 644 193 q 651 152 644 164 q 675 132 658 140 l 606 -21 q 498 13 543 -15 q 436 92 453 40 q 348 5 396 35 q 236 -25 300 -25 q 78 49 133 -25 q 22 253 22 124 q 64 499 22 382 q 198 690 106 615 q 433 765 290 765 m 418 599 q 299 492 339 599 q 258 250 258 386 q 274 170 258 193 q 317 147 289 147 q 419 233 365 147 l 471 590 q 418 599 443 599 m 318 888 q 243 915 271 888 q 215 988 215 943 q 253 1080 215 1043 q 344 1117 290 1117 q 419 1090 392 1117 q 447 1017 447 1063 q 410 924 447 961 q 318 888 372 888 m 618 888 q 543 915 571 888 q 515 988 515 943 q 553 1080 515 1043 q 644 1117 590 1117 q 719 1090 692 1117 q 747 1017 747 1063 q 710 924 747 961 q 618 888 672 888 z "},"ǟ":{"ha":726,"x_min":22,"x_max":740,"o":"m 433 765 q 714 689 579 765 l 647 221 q 644 183 644 193 q 651 152 644 164 q 675 132 658 140 l 606 -21 q 498 13 543 -15 q 436 92 453 40 q 348 5 396 35 q 236 -25 300 -25 q 78 49 133 -25 q 22 253 22 124 q 64 499 22 382 q 198 690 106 615 q 433 765 290 765 m 418 599 q 299 492 339 599 q 258 250 258 386 q 274 170 258 193 q 317 147 289 147 q 419 233 365 147 l 471 590 q 418 599 443 599 m 311 831 q 236 858 264 831 q 208 931 208 886 q 246 1023 208 986 q 338 1060 283 1060 q 413 1033 385 1060 q 440 960 440 1006 q 403 867 440 904 q 311 831 365 831 m 611 831 q 536 858 564 831 q 508 931 508 886 q 546 1023 508 986 q 638 1060 583 1060 q 713 1033 685 1060 q 740 960 740 1006 q 703 867 740 904 q 611 831 665 831 m 690 1117 l 297 1117 l 321 1279 l 714 1279 l 690 1117 z "},"ȧ":{"ha":726,"x_min":22,"x_max":714,"o":"m 433 765 q 714 689 579 765 l 647 221 q 644 183 644 193 q 651 152 644 164 q 675 132 658 140 l 606 -21 q 498 13 543 -15 q 436 92 453 40 q 348 5 396 35 q 236 -25 300 -25 q 78 49 133 -25 q 22 253 22 124 q 64 499 22 382 q 198 690 106 615 q 433 765 290 765 m 418 599 q 299 492 339 599 q 258 250 258 386 q 274 170 258 193 q 317 147 289 147 q 419 233 365 147 l 471 590 q 418 599 443 599 m 468 871 q 381 902 413 871 q 349 985 349 933 q 392 1091 349 1049 q 497 1133 435 1133 q 585 1102 553 1133 q 617 1019 617 1071 q 574 913 617 956 q 468 871 531 871 z "},"ạ":{"ha":726,"x_min":22,"x_max":714,"o":"m 433 765 q 714 689 579 765 l 647 221 q 644 183 644 193 q 651 152 644 164 q 675 132 658 140 l 606 -21 q 498 13 543 -15 q 436 92 453 40 q 348 5 396 35 q 236 -25 300 -25 q 78 49 133 -25 q 22 253 22 124 q 64 499 22 382 q 198 690 106 615 q 433 765 290 765 m 418 599 q 299 492 339 599 q 258 250 258 386 q 274 170 258 193 q 317 147 289 147 q 419 233 365 147 l 471 590 q 418 599 443 599 m 325 -81 q 413 -112 381 -81 q 444 -194 444 -143 q 401 -301 444 -258 q 296 -343 358 -343 q 208 -312 240 -343 q 176 -229 176 -281 q 219 -123 176 -165 q 325 -81 263 -81 z "},"ǡ":{"ha":726,"x_min":22,"x_max":715,"o":"m 433 765 q 714 689 579 765 l 647 221 q 644 183 644 193 q 651 152 644 164 q 675 132 658 140 l 606 -21 q 498 13 543 -15 q 436 92 453 40 q 348 5 396 35 q 236 -25 300 -25 q 78 49 133 -25 q 22 253 22 124 q 64 499 22 382 q 198 690 106 615 q 433 765 290 765 m 418 599 q 299 492 339 599 q 258 250 258 386 q 274 170 258 193 q 317 147 289 147 q 419 233 365 147 l 471 590 q 418 599 443 599 m 458 822 q 371 853 403 822 q 339 936 339 885 q 382 1042 339 1000 q 488 1085 425 1085 q 575 1053 543 1085 q 607 971 607 1022 q 564 865 607 907 q 458 822 521 822 m 692 1129 l 299 1129 l 322 1292 l 715 1292 l 692 1129 z "},"à":{"ha":726,"x_min":22,"x_max":714,"o":"m 433 765 q 714 689 579 765 l 647 221 q 644 183 644 193 q 651 152 644 164 q 675 132 658 140 l 606 -21 q 498 13 543 -15 q 436 92 453 40 q 348 5 396 35 q 236 -25 300 -25 q 78 49 133 -25 q 22 253 22 124 q 64 499 22 382 q 198 690 106 615 q 433 765 290 765 m 418 599 q 299 492 339 599 q 258 250 258 386 q 274 170 258 193 q 317 147 289 147 q 419 233 365 147 l 471 590 q 418 599 443 599 m 415 1163 l 674 971 l 607 864 l 314 993 l 415 1163 z "},"ả":{"ha":726,"x_min":22,"x_max":714,"o":"m 433 765 q 714 689 579 765 l 647 221 q 644 183 644 193 q 651 152 644 164 q 675 132 658 140 l 606 -21 q 498 13 543 -15 q 436 92 453 40 q 348 5 396 35 q 236 -25 300 -25 q 78 49 133 -25 q 22 253 22 124 q 64 499 22 382 q 198 690 106 615 q 433 765 290 765 m 418 599 q 299 492 339 599 q 258 250 258 386 q 274 170 258 193 q 317 147 289 147 q 419 233 365 147 l 471 590 q 418 599 443 599 m 413 978 q 485 994 463 981 q 508 1038 508 1008 q 499 1063 508 1056 q 467 1071 489 1071 q 392 1053 435 1071 l 368 1150 q 507 1185 431 1185 q 621 1148 581 1185 q 661 1051 661 1111 q 628 958 661 993 q 535 910 594 922 l 525 839 l 394 839 l 413 978 z "},"ȃ":{"ha":726,"x_min":22,"x_max":714,"o":"m 433 765 q 714 689 579 765 l 647 221 q 644 183 644 193 q 651 152 644 164 q 675 132 658 140 l 606 -21 q 498 13 543 -15 q 436 92 453 40 q 348 5 396 35 q 236 -25 300 -25 q 78 49 133 -25 q 22 253 22 124 q 64 499 22 382 q 198 690 106 615 q 433 765 290 765 m 418 599 q 299 492 339 599 q 258 250 258 386 q 274 170 258 193 q 317 147 289 147 q 419 233 365 147 l 471 590 q 418 599 443 599 m 235 856 q 326 1035 260 965 q 494 1104 392 1104 q 648 1033 599 1104 q 690 853 697 961 l 564 835 q 478 940 557 940 q 357 831 396 940 l 235 856 z "},"ɑ":{"ha":726,"x_min":24,"x_max":721,"o":"m 647 221 q 644 185 644 193 q 651 152 644 164 q 676 132 658 140 l 607 -21 q 499 13 544 -15 q 436 92 453 40 q 349 5 397 35 q 238 -25 301 -25 q 78 49 133 -25 q 24 253 24 124 q 64 502 24 385 q 181 692 104 619 q 363 764 258 764 q 459 742 419 764 q 524 672 499 721 l 557 739 l 721 739 l 647 221 m 463 539 q 390 599 439 599 q 294 493 329 599 q 260 250 260 388 q 274 170 260 193 q 317 147 289 147 q 419 233 365 147 l 463 539 z "},"ɒ":{"ha":726,"x_min":6,"x_max":703,"o":"m 489 764 q 648 690 593 764 q 703 486 703 615 q 663 237 703 354 q 545 47 622 119 q 364 -25 468 -25 q 267 -3 307 -25 q 203 67 228 18 l 169 0 l 6 0 l 79 518 q 82 554 82 546 q 75 587 82 575 q 50 607 68 599 l 119 760 q 228 726 182 754 q 290 647 274 699 q 377 734 329 704 q 489 764 425 764 m 336 140 q 432 246 397 140 q 467 489 467 351 q 452 569 467 546 q 410 592 438 592 q 307 506 361 592 l 264 200 q 336 140 288 140 z "},"ā":{"ha":726,"x_min":22,"x_max":714,"o":"m 433 765 q 714 689 579 765 l 647 221 q 644 183 644 193 q 651 152 644 164 q 675 132 658 140 l 606 -21 q 498 13 543 -15 q 436 92 453 40 q 348 5 396 35 q 236 -25 300 -25 q 78 49 133 -25 q 22 253 22 124 q 64 499 22 382 q 198 690 106 615 q 433 765 290 765 m 418 599 q 299 492 339 599 q 258 250 258 386 q 274 170 258 193 q 317 147 289 147 q 419 233 365 147 l 471 590 q 418 599 443 599 m 665 907 l 272 907 l 296 1069 l 689 1069 l 665 907 z "},"ą":{"ha":726,"x_min":22,"x_max":714,"o":"m 647 221 q 644 183 644 193 q 651 152 644 164 q 675 132 658 140 l 606 -21 q 476 -99 511 -58 q 442 -176 442 -139 q 497 -222 442 -222 q 571 -214 532 -222 l 539 -354 q 449 -365 497 -365 q 324 -324 372 -365 q 275 -212 275 -283 q 326 -81 275 -139 q 485 22 376 -22 q 436 92 451 47 q 348 5 396 35 q 236 -25 300 -25 q 78 49 133 -25 q 22 253 22 124 q 64 499 22 382 q 198 690 106 615 q 433 765 290 765 q 714 689 579 765 l 647 221 m 471 590 q 418 599 443 599 q 299 492 339 599 q 258 250 258 386 q 274 170 258 193 q 317 147 289 147 q 419 233 365 147 l 471 590 z "},"å":{"ha":726,"x_min":22,"x_max":714,"o":"m 433 765 q 714 689 579 765 l 647 221 q 644 183 644 193 q 651 152 644 164 q 675 132 658 140 l 606 -21 q 498 13 543 -15 q 436 92 453 40 q 348 5 396 35 q 236 -25 300 -25 q 78 49 133 -25 q 22 253 22 124 q 64 499 22 382 q 198 690 106 615 q 433 765 290 765 m 418 599 q 299 492 339 599 q 258 250 258 386 q 274 170 258 193 q 317 147 289 147 q 419 233 365 147 l 471 590 q 418 599 443 599 m 507 1211 q 628 1165 585 1211 q 672 1043 672 1118 q 646 940 672 988 q 572 865 619 893 q 461 836 524 836 q 340 883 383 836 q 297 1003 297 929 q 324 1106 297 1058 q 398 1183 350 1154 q 507 1211 446 1211 m 496 1094 q 446 1069 464 1094 q 428 1010 428 1043 q 472 954 428 954 q 522 979 504 954 q 540 1038 540 1004 q 496 1094 540 1094 z "},"ǻ":{"ha":726,"x_min":22,"x_max":714,"o":"m 433 765 q 714 689 579 765 l 647 221 q 644 183 644 193 q 651 152 644 164 q 675 132 658 140 l 606 -21 q 498 13 543 -15 q 436 92 453 40 q 348 5 396 35 q 236 -25 300 -25 q 78 49 133 -25 q 22 253 22 124 q 64 499 22 382 q 198 690 106 615 q 433 765 290 765 m 418 599 q 299 492 339 599 q 258 250 258 386 q 274 170 258 193 q 317 147 289 147 q 419 233 365 147 l 471 590 q 418 599 443 599 m 501 1176 q 623 1130 579 1176 q 667 1008 667 1083 q 640 906 667 953 q 566 830 614 858 q 456 801 518 801 q 335 848 378 801 q 292 968 292 894 q 318 1072 292 1024 q 392 1148 344 1119 q 501 1176 440 1176 m 490 1060 q 440 1034 458 1060 q 422 975 422 1008 q 467 919 422 919 q 517 944 499 919 q 535 1003 535 969 q 490 1060 535 1060 m 621 1469 l 696 1299 l 372 1179 l 321 1292 l 621 1469 z "},"ⱥ":{"ha":726,"x_min":22,"x_max":714,"o":"m 647 221 q 644 183 644 193 q 651 152 644 164 q 675 132 658 140 l 606 -21 q 498 13 543 -15 q 436 92 453 40 q 353 8 399 38 q 250 -25 308 -22 l 219 -104 l 149 -85 l 174 -17 q 61 74 100 4 q 22 253 22 144 q 64 499 22 382 q 198 690 106 615 q 433 765 290 765 q 468 764 457 765 l 496 836 l 567 815 l 543 754 q 714 689 633 735 l 647 221 m 249 244 q 253 192 249 213 l 410 610 q 288 493 328 603 q 249 244 249 383 m 483 593 l 310 136 l 313 136 q 374 160 343 136 q 429 228 406 185 l 483 593 z "},"ã":{"ha":726,"x_min":22,"x_max":733,"o":"m 433 765 q 714 689 579 765 l 647 221 q 644 183 644 193 q 651 152 644 164 q 675 132 658 140 l 606 -21 q 498 13 543 -15 q 436 92 453 40 q 348 5 396 35 q 236 -25 300 -25 q 78 49 133 -25 q 22 253 22 124 q 64 499 22 382 q 198 690 106 615 q 433 765 290 765 m 418 599 q 299 492 339 599 q 258 250 258 386 q 274 170 258 193 q 317 147 289 147 q 419 233 365 147 l 471 590 q 418 599 443 599 m 544 876 q 502 886 521 876 q 458 913 483 896 q 443 923 454 915 q 423 934 432 931 q 406 938 414 938 q 369 923 385 938 q 332 876 353 908 l 229 935 q 315 1057 265 1010 q 418 1104 364 1104 q 467 1094 446 1104 q 511 1067 488 1085 q 538 1049 526 1054 q 560 1043 549 1043 q 595 1058 579 1043 q 631 1103 611 1072 l 733 1046 q 647 924 697 971 q 544 876 597 876 z "},"ɐ":{"ha":679,"x_min":35,"x_max":678,"o":"m 269 239 q 268 210 268 228 q 285 160 268 174 q 349 146 303 146 q 514 179 418 146 l 557 29 q 427 -11 497 3 q 293 -25 357 -25 q 35 176 35 -25 q 39 231 35 201 l 78 518 q 81 554 81 546 q 74 588 81 575 q 50 607 67 600 l 119 760 q 281 665 243 749 q 486 764 363 764 q 626 710 575 764 q 678 565 678 656 q 581 353 678 425 q 325 281 483 281 l 275 281 l 269 239 m 397 596 q 310 540 350 596 l 292 408 l 321 408 q 413 441 381 408 q 446 535 446 474 q 397 596 446 596 z "},"æ":{"ha":1063,"x_min":1,"x_max":1061,"o":"m 372 764 q 489 742 443 764 q 567 676 535 719 q 672 742 611 718 q 804 765 733 765 q 992 709 924 765 q 1061 565 1061 653 q 629 268 1061 311 q 656 175 631 203 q 732 147 681 147 q 812 163 774 147 q 900 213 850 178 l 981 76 q 693 -25 851 -25 q 547 4 608 -25 q 449 89 485 33 q 337 1 396 26 q 210 -25 278 -25 q 58 29 114 -25 q 1 174 1 83 q 83 371 1 292 q 363 450 164 450 l 422 450 q 446 519 431 482 q 410 573 440 554 q 335 592 379 592 q 157 556 256 592 l 125 711 q 372 764 256 764 m 779 610 q 691 552 725 610 q 642 407 657 494 q 788 458 743 415 q 833 554 833 501 q 779 610 833 610 m 363 317 q 276 290 307 317 q 246 207 246 263 q 299 143 246 143 q 350 162 325 143 q 404 218 375 181 q 401 268 401 249 l 403 317 l 363 317 z "},"ǽ":{"ha":1063,"x_min":1,"x_max":1061,"o":"m 372 764 q 489 742 443 764 q 567 676 535 719 q 672 742 611 718 q 804 765 733 765 q 992 709 924 765 q 1061 565 1061 653 q 629 268 1061 311 q 656 175 631 203 q 732 147 681 147 q 812 163 774 147 q 900 213 850 178 l 981 76 q 693 -25 851 -25 q 547 4 608 -25 q 449 89 485 33 q 337 1 396 26 q 210 -25 278 -25 q 58 29 114 -25 q 1 174 1 83 q 83 371 1 292 q 363 450 164 450 l 422 450 q 446 519 431 482 q 410 573 440 554 q 335 592 379 592 q 157 556 256 592 l 125 711 q 372 764 256 764 m 779 610 q 691 552 725 610 q 642 407 657 494 q 788 458 743 415 q 833 554 833 501 q 779 610 833 610 m 363 317 q 276 290 307 317 q 246 207 246 263 q 299 143 246 143 q 350 162 325 143 q 404 218 375 181 q 401 268 401 249 l 403 317 l 363 317 m 731 1164 l 806 993 l 482 861 l 426 975 l 731 1164 z "},"ǣ":{"ha":1063,"x_min":1,"x_max":1061,"o":"m 372 764 q 489 742 443 764 q 567 676 535 719 q 672 742 611 718 q 804 765 733 765 q 992 709 924 765 q 1061 565 1061 653 q 629 268 1061 311 q 656 175 631 203 q 732 147 681 147 q 812 163 774 147 q 900 213 850 178 l 981 76 q 693 -25 851 -25 q 547 4 608 -25 q 449 89 485 33 q 337 1 396 26 q 210 -25 278 -25 q 58 29 114 -25 q 1 174 1 83 q 83 371 1 292 q 363 450 164 450 l 422 450 q 446 519 431 482 q 410 573 440 554 q 335 592 379 592 q 157 556 256 592 l 125 711 q 372 764 256 764 m 779 610 q 691 552 725 610 q 642 407 657 494 q 788 458 743 415 q 833 554 833 501 q 779 610 833 610 m 363 317 q 276 290 307 317 q 246 207 246 263 q 299 143 246 143 q 350 162 325 143 q 404 218 375 181 q 401 268 401 249 l 403 317 l 363 317 m 803 907 l 410 907 l 433 1069 l 826 1069 l 803 907 z "},"b":{"ha":740,"x_min":13,"x_max":715,"o":"m 517 765 q 664 697 613 765 q 715 499 715 628 q 619 124 715 272 q 299 -25 522 -25 q 13 38 157 -25 l 151 1032 l 386 1057 l 335 681 q 417 742 369 719 q 517 765 465 765 m 418 593 q 313 519 367 593 l 263 158 q 329 146 297 146 q 413 199 379 146 q 463 331 447 251 q 479 488 479 410 q 463 570 479 547 q 418 593 447 593 z "},"ḃ":{"ha":740,"x_min":13,"x_max":715,"o":"m 517 765 q 664 697 613 765 q 715 499 715 628 q 619 124 715 272 q 299 -25 522 -25 q 13 38 157 -25 l 151 1032 l 386 1057 l 335 681 q 417 742 369 719 q 517 765 465 765 m 418 593 q 313 519 367 593 l 263 158 q 329 146 297 146 q 413 199 379 146 q 463 331 447 251 q 479 488 479 410 q 463 570 479 547 q 418 593 447 593 m 518 1114 q 431 1145 463 1114 q 399 1228 399 1176 q 442 1334 399 1292 q 547 1376 485 1376 q 635 1345 603 1376 q 667 1263 667 1314 q 624 1156 667 1199 q 518 1114 581 1114 z "},"ḅ":{"ha":740,"x_min":13,"x_max":715,"o":"m 517 765 q 664 697 613 765 q 715 499 715 628 q 619 124 715 272 q 299 -25 522 -25 q 13 38 157 -25 l 151 1032 l 386 1057 l 335 681 q 417 742 369 719 q 517 765 465 765 m 418 593 q 313 519 367 593 l 263 158 q 329 146 297 146 q 413 199 379 146 q 463 331 447 251 q 479 488 479 410 q 463 570 479 547 q 418 593 447 593 m 294 -81 q 382 -112 350 -81 q 414 -194 414 -143 q 371 -301 414 -258 q 265 -343 328 -343 q 178 -312 210 -343 q 146 -229 146 -281 q 189 -123 146 -165 q 294 -81 232 -81 z "},"ꞵ":{"ha":756,"x_min":-36,"x_max":722,"o":"m 115 768 q 226 981 135 906 q 454 1056 317 1056 q 651 989 579 1056 q 722 819 722 922 q 674 659 722 731 q 515 561 626 588 q 662 503 601 556 q 722 343 722 450 q 688 176 722 261 q 581 33 654 92 q 399 -25 508 -25 q 235 33 297 -25 l 192 -283 l -36 -311 l 115 768 m 349 154 q 456 215 421 154 q 490 350 490 275 q 378 474 490 474 l 339 474 l 375 632 l 393 632 q 468 685 443 632 q 493 807 493 739 q 433 892 493 892 q 339 765 357 892 l 257 183 q 349 154 293 154 z "},"ɓ":{"ha":740,"x_min":13,"x_max":715,"o":"m 515 765 q 664 697 613 765 q 715 499 715 628 q 619 124 715 272 q 299 -25 522 -25 q 13 38 157 -25 l 111 738 l 121 813 q 215 989 138 922 q 421 1056 292 1056 q 523 1042 474 1056 q 608 1007 572 1029 l 526 860 q 433 883 481 883 q 377 863 397 883 q 351 794 357 842 l 343 738 l 336 681 q 417 742 369 719 q 515 765 465 765 m 329 146 q 413 199 379 146 q 463 331 447 251 q 479 488 479 410 q 463 570 479 547 q 418 593 447 593 q 313 519 367 593 l 263 158 q 329 146 297 146 z "},"ʭ":{"ha":476,"x_min":-8,"x_max":492,"o":"m 458 554 l 324 554 l 339 674 l 222 674 l 206 554 l 69 554 l 103 786 l 492 786 l 458 554 m 381 -1 l 246 -1 l 261 118 l 144 118 l 128 -1 l -8 -1 l 25 231 l 414 231 l 381 -1 z "},"ʘ":{"ha":1001,"x_min":44,"x_max":989,"o":"m 588 990 q 801 941 710 990 q 940 801 892 892 q 989 585 989 710 q 921 266 989 404 q 730 51 853 128 q 447 -25 607 -25 q 234 24 325 -25 q 94 166 143 74 q 44 383 44 258 q 114 701 44 564 q 307 915 183 839 q 588 990 431 990 m 571 828 q 349 701 424 828 q 272 372 274 574 q 322 195 272 253 q 464 138 372 138 q 685 263 610 138 q 761 588 761 389 q 710 769 761 710 q 571 828 660 828 m 507 365 q 434 392 461 365 q 407 461 407 418 q 443 551 407 515 q 532 586 479 586 q 606 560 579 586 q 633 490 633 533 q 597 401 633 436 q 507 365 561 365 z "},"ʬ":{"ha":589,"x_min":44,"x_max":624,"o":"m 624 928 l 500 556 l 363 556 l 364 825 l 283 556 l 150 556 l 122 928 l 218 928 l 231 639 l 315 928 l 442 928 l 443 638 l 531 928 l 624 928 m 546 372 l 422 0 l 285 0 l 286 269 l 206 0 l 72 0 l 44 372 l 140 372 l 153 83 l 238 372 l 364 372 l 365 82 l 453 372 l 546 372 z "},"ƀ":{"ha":753,"x_min":26,"x_max":729,"o":"m 531 765 q 678 697 626 765 q 729 499 729 628 q 633 124 729 272 q 313 -25 536 -25 q 26 38 171 -25 l 136 826 l 71 826 l 90 961 l 156 961 l 165 1032 l 400 1057 l 388 961 l 551 961 l 514 826 l 368 826 l 349 681 q 431 742 383 719 q 531 765 479 765 m 343 146 q 427 199 393 146 q 477 331 461 251 q 493 488 493 410 q 477 570 493 547 q 432 593 461 593 q 326 519 381 593 l 276 158 q 343 146 311 146 z "},"ƃ":{"ha":742,"x_min":13,"x_max":715,"o":"m 517 743 q 665 672 614 743 q 715 467 715 601 q 617 117 714 258 q 299 -25 521 -25 q 13 38 157 -25 l 151 1032 l 653 1032 l 601 864 l 360 864 l 331 660 q 416 721 367 699 q 517 743 465 743 m 329 146 q 413 197 379 146 q 463 323 447 249 q 479 463 479 397 q 463 548 479 525 q 418 571 447 571 q 363 551 390 571 q 310 497 335 532 l 263 158 q 329 146 297 146 z "},"c":{"ha":599,"x_min":26,"x_max":647,"o":"m 421 765 q 647 669 558 765 l 535 539 q 426 585 483 585 q 306 492 343 585 q 268 281 268 400 q 291 185 268 213 q 357 158 314 158 q 413 169 386 158 q 478 204 440 181 l 561 61 q 319 -25 453 -25 q 104 58 182 -25 q 26 286 26 140 q 71 518 26 408 q 205 697 115 628 q 421 765 294 765 z "},"ć":{"ha":599,"x_min":26,"x_max":647,"o":"m 421 765 q 647 669 558 765 l 535 539 q 426 585 483 585 q 306 492 343 585 q 268 281 268 400 q 291 185 268 213 q 357 158 314 158 q 413 169 386 158 q 478 204 440 181 l 561 61 q 319 -25 453 -25 q 104 58 182 -25 q 26 286 26 140 q 71 518 26 408 q 205 697 115 628 q 421 765 294 765 m 563 1164 l 638 993 l 314 861 l 258 975 l 563 1164 z "},"č":{"ha":599,"x_min":26,"x_max":706,"o":"m 421 765 q 647 669 558 765 l 535 539 q 426 585 483 585 q 306 492 343 585 q 268 281 268 400 q 291 185 268 213 q 357 158 314 158 q 413 169 386 158 q 478 204 440 181 l 561 61 q 319 -25 453 -25 q 104 58 182 -25 q 26 286 26 140 q 71 518 26 408 q 205 697 115 628 q 421 765 294 765 m 631 1135 l 706 1042 l 500 846 l 360 846 l 210 1042 l 296 1135 l 444 1004 l 631 1135 z "},"ç":{"ha":599,"x_min":26,"x_max":647,"o":"m 561 61 q 357 -24 471 -11 l 350 -68 q 438 -106 408 -75 q 468 -190 468 -137 q 447 -273 468 -232 q 376 -342 425 -314 q 249 -369 326 -369 q 165 -357 203 -369 q 103 -324 128 -344 l 168 -224 q 243 -243 204 -243 q 288 -233 271 -243 q 306 -200 304 -222 q 281 -168 306 -178 q 196 -158 256 -158 l 231 -15 q 80 88 133 10 q 26 286 26 167 q 71 518 26 408 q 205 697 115 628 q 421 765 294 765 q 647 669 558 765 l 535 539 q 426 585 483 585 q 306 492 343 585 q 268 281 268 400 q 291 185 268 213 q 357 158 314 158 q 413 169 386 158 q 478 204 440 181 l 561 61 z "},"ĉ":{"ha":599,"x_min":26,"x_max":696,"o":"m 421 765 q 647 669 558 765 l 535 539 q 426 585 483 585 q 306 492 343 585 q 268 281 268 400 q 291 185 268 213 q 357 158 314 158 q 413 169 386 158 q 478 204 440 181 l 561 61 q 319 -25 453 -25 q 104 58 182 -25 q 26 286 26 140 q 71 518 26 408 q 205 697 115 628 q 421 765 294 765 m 269 860 l 194 953 l 400 1149 l 539 1149 l 696 947 l 600 860 l 453 990 l 269 860 z "},"ɕ":{"ha":642,"x_min":26,"x_max":647,"o":"m 463 357 q 569 318 529 357 q 610 208 610 279 q 533 36 610 97 q 339 -25 457 -25 q 251 -17 296 -25 l 196 -119 l 99 -75 l 154 24 q 59 129 92 61 q 26 290 26 197 q 71 520 26 411 q 205 697 115 629 q 421 765 294 765 q 647 669 558 765 l 535 539 q 426 585 483 585 q 306 492 343 585 q 268 281 268 400 q 272 224 268 247 q 356 326 310 294 q 463 357 403 357 m 388 142 q 438 158 419 142 q 458 206 457 175 q 431 236 458 236 q 342 147 385 236 q 388 142 363 142 z "},"ċ":{"ha":599,"x_min":26,"x_max":647,"o":"m 421 765 q 647 669 558 765 l 535 539 q 426 585 483 585 q 306 492 343 585 q 268 281 268 400 q 291 185 268 213 q 357 158 314 158 q 413 169 386 158 q 478 204 440 181 l 561 61 q 319 -25 453 -25 q 104 58 182 -25 q 26 286 26 140 q 71 518 26 408 q 205 697 115 628 q 421 765 294 765 m 438 871 q 350 902 382 871 q 318 985 318 933 q 361 1091 318 1049 q 467 1133 404 1133 q 554 1102 522 1133 q 586 1019 586 1071 q 543 913 586 956 q 438 871 500 871 z "},"ƈ":{"ha":599,"x_min":26,"x_max":889,"o":"m 715 1056 q 889 1003 818 1056 l 807 861 q 733 883 767 883 q 688 863 703 883 q 665 800 672 843 l 647 669 l 546 550 q 426 585 486 585 q 306 492 343 585 q 268 281 268 400 q 291 185 268 213 q 357 158 314 158 q 413 169 386 158 q 478 204 440 181 l 561 61 q 319 -25 453 -25 q 104 58 182 -25 q 26 286 26 140 q 70 517 26 407 q 197 697 114 628 q 390 765 279 765 q 461 754 425 765 l 474 839 q 550 999 490 943 q 715 1056 610 1056 z "},"ʗ":{"ha":617,"x_min":10,"x_max":665,"o":"m 446 765 q 665 669 581 765 l 554 542 q 450 585 506 585 q 338 505 383 585 q 272 303 293 425 q 251 57 251 182 q 274 -87 251 -49 q 339 -126 296 -126 q 395 -116 368 -126 q 457 -82 422 -106 l 539 -224 q 301 -311 429 -311 q 87 -217 163 -311 q 10 57 11 -124 q 62 415 10 254 q 213 671 114 576 q 446 765 311 765 z "},"ȼ":{"ha":599,"x_min":26,"x_max":647,"o":"m 357 158 q 413 169 386 158 q 478 204 440 181 l 561 61 q 319 -25 453 -25 q 271 -22 301 -25 l 240 -104 l 169 -85 l 200 -6 q 72 101 117 26 q 26 286 26 176 q 71 518 26 408 q 205 697 115 628 q 421 765 294 765 q 489 758 454 765 l 518 836 l 588 815 l 557 736 q 647 669 607 713 l 535 539 q 494 568 515 557 l 340 160 q 357 158 346 158 m 268 281 q 279 206 268 235 l 422 585 q 305 490 342 583 q 268 281 268 397 z "},"d":{"ha":742,"x_min":24,"x_max":775,"o":"m 775 1032 l 631 0 l 425 0 l 428 93 q 342 6 389 36 q 229 -25 294 -25 q 76 48 129 -25 q 24 254 24 121 q 60 495 24 378 q 172 689 97 613 q 353 765 246 765 q 496 699 443 765 l 546 1056 l 775 1032 m 403 593 q 322 538 354 593 q 276 405 290 483 q 261 256 261 326 q 276 170 261 194 q 318 146 290 146 q 433 253 369 146 l 475 551 q 403 593 449 593 z "},"ð":{"ha":735,"x_min":21,"x_max":706,"o":"m 533 929 q 665 753 624 851 q 706 531 706 656 q 660 250 706 376 q 524 49 614 124 q 308 -25 433 -25 q 100 51 179 -25 q 21 264 21 128 q 59 452 21 358 q 167 606 97 546 q 329 667 238 667 q 416 651 379 667 q 483 606 453 636 q 455 715 475 669 q 393 803 435 760 l 318 731 l 190 797 l 272 878 q 168 906 229 893 l 231 1054 q 404 1003 318 1039 l 515 1114 l 617 1015 l 533 929 m 328 146 q 425 223 396 146 q 471 454 454 300 q 383 503 439 503 q 285 424 315 503 q 254 250 254 344 q 273 170 254 194 q 328 146 292 146 z "},"ȸ":{"ha":1085,"x_min":24,"x_max":1061,"o":"m 878 764 q 1014 693 967 764 q 1061 492 1061 622 q 1023 242 1061 361 q 914 49 985 122 q 749 -25 843 -25 q 666 2 703 -25 q 606 82 629 29 l 582 0 l 401 0 l 401 86 q 324 4 368 33 q 225 -25 279 -25 q 76 50 128 -25 q 24 258 24 125 q 63 503 24 386 q 175 692 103 619 q 340 764 247 764 q 416 742 382 764 q 471 681 450 721 l 519 1032 l 754 1056 l 701 674 q 781 740 736 717 q 878 764 826 764 m 318 147 q 407 229 363 147 l 450 538 q 386 593 426 593 q 296 491 328 593 q 264 267 264 389 q 278 173 264 199 q 318 147 292 147 m 703 146 q 791 251 760 146 q 822 478 822 357 q 809 567 822 542 q 771 592 796 592 q 682 526 728 592 l 639 218 q 667 163 651 179 q 703 146 682 146 z "},"ď":{"ha":876,"x_min":24,"x_max":999,"o":"m 775 1032 l 631 0 l 425 0 l 428 93 q 342 6 389 36 q 229 -25 294 -25 q 76 48 129 -25 q 24 254 24 121 q 60 495 24 378 q 172 689 97 613 q 353 765 246 765 q 496 699 443 765 l 546 1056 l 775 1032 m 403 593 q 322 538 354 593 q 276 405 290 483 q 261 256 261 326 q 276 170 261 194 q 318 146 290 146 q 433 253 369 146 l 475 551 q 403 593 449 593 m 833 1053 l 999 1032 l 896 724 l 779 735 l 833 1053 z "},"ḓ":{"ha":742,"x_min":24,"x_max":775,"o":"m 775 1032 l 631 0 l 425 0 l 428 93 q 342 6 389 36 q 229 -25 294 -25 q 76 48 129 -25 q 24 254 24 121 q 60 495 24 378 q 172 689 97 613 q 353 765 246 765 q 496 699 443 765 l 546 1056 l 775 1032 m 403 593 q 322 538 354 593 q 276 405 290 483 q 261 256 261 326 q 276 170 261 194 q 318 146 290 146 q 433 253 369 146 l 475 551 q 403 593 449 593 m 114 -375 l 39 -282 l 244 -86 l 385 -86 l 540 -289 l 446 -375 l 299 -246 l 114 -375 z "},"đ":{"ha":756,"x_min":24,"x_max":833,"o":"m 813 825 l 746 825 l 631 0 l 425 0 l 428 93 q 342 6 389 36 q 229 -25 294 -25 q 76 48 129 -25 q 24 254 24 121 q 60 495 24 378 q 172 689 97 613 q 353 765 246 765 q 496 699 443 765 l 514 825 l 368 825 l 371 958 l 532 958 l 546 1056 l 775 1032 l 765 958 l 833 958 l 813 825 m 475 551 q 403 593 449 593 q 322 538 354 593 q 276 405 290 483 q 261 256 261 326 q 276 170 261 194 q 318 146 290 146 q 433 253 369 146 l 475 551 z "},"ȡ":{"ha":1007,"x_min":24,"x_max":986,"o":"m 846 344 q 947 307 908 344 q 986 204 986 269 q 910 34 986 93 q 715 -25 833 -25 q 657 -22 693 -25 l 604 -119 l 507 -75 l 554 6 q 447 114 478 42 q 349 10 403 44 q 229 -25 296 -25 q 76 47 129 -25 q 24 254 24 119 q 60 495 24 378 q 172 689 96 613 q 357 765 247 765 q 496 699 443 765 l 546 1056 l 775 1032 l 664 233 q 661 200 661 208 q 742 311 699 278 q 846 344 785 344 m 475 550 q 444 583 461 572 q 403 593 428 593 q 322 538 354 593 q 276 405 290 483 q 261 256 261 326 q 276 170 261 194 q 319 146 290 146 q 435 254 372 146 l 475 550 m 765 142 q 817 157 797 142 q 836 199 836 172 q 813 225 836 225 q 778 207 794 225 q 740 142 763 189 l 765 142 z "},"ḋ":{"ha":742,"x_min":24,"x_max":775,"o":"m 775 1032 l 631 0 l 425 0 l 428 93 q 342 6 389 36 q 229 -25 294 -25 q 76 48 129 -25 q 24 254 24 121 q 60 495 24 378 q 172 689 97 613 q 353 765 246 765 q 496 699 443 765 l 546 1056 l 775 1032 m 403 593 q 322 538 354 593 q 276 405 290 483 q 261 256 261 326 q 276 170 261 194 q 318 146 290 146 q 433 253 369 146 l 475 551 q 403 593 449 593 m 469 1114 q 382 1145 414 1114 q 350 1228 350 1176 q 393 1334 350 1292 q 499 1376 436 1376 q 586 1345 554 1376 q 618 1263 618 1314 q 575 1156 618 1199 q 469 1114 532 1114 z "},"ḍ":{"ha":742,"x_min":24,"x_max":775,"o":"m 775 1032 l 631 0 l 425 0 l 428 93 q 342 6 389 36 q 229 -25 294 -25 q 76 48 129 -25 q 24 254 24 121 q 60 495 24 378 q 172 689 97 613 q 353 765 246 765 q 496 699 443 765 l 546 1056 l 775 1032 m 403 593 q 322 538 354 593 q 276 405 290 483 q 261 256 261 326 q 276 170 261 194 q 318 146 290 146 q 433 253 369 146 l 475 551 q 403 593 449 593 m 315 -81 q 403 -112 371 -81 q 435 -194 435 -143 q 392 -301 435 -258 q 286 -343 349 -343 q 199 -312 231 -343 q 167 -229 167 -281 q 210 -123 167 -165 q 315 -81 253 -81 z "},"ƍ":{"ha":726,"x_min":8,"x_max":703,"o":"m 260 -311 q 8 -206 97 -311 l 126 -96 q 186 -137 156 -124 q 254 -151 217 -151 q 317 -131 296 -151 q 338 -78 338 -111 q 318 -33 338 -53 q 242 14 299 -14 q 78 138 129 69 q 28 313 28 206 q 67 517 28 413 q 194 692 107 621 q 415 764 282 764 q 569 726 504 764 q 669 622 635 688 q 703 475 703 556 q 648 245 703 343 q 458 89 593 147 q 557 -79 557 18 q 524 -191 557 -137 q 423 -278 490 -244 q 260 -311 356 -311 m 350 153 q 442 294 418 217 q 465 479 465 372 q 394 592 465 592 q 297 507 329 592 q 265 304 265 422 q 283 217 265 250 q 350 153 301 185 z "},"ʤ":{"ha":1294,"x_min":24,"x_max":1285,"o":"m 1263 579 l 1006 293 q 1176 224 1118 282 q 1233 61 1233 165 q 1182 -135 1233 -51 q 1042 -265 1131 -219 q 842 -311 953 -311 q 554 -164 650 -311 l 692 -50 q 765 -112 731 -93 q 844 -132 800 -132 q 954 -82 913 -132 q 996 57 996 -32 q 966 139 996 115 q 876 163 936 163 l 754 163 l 772 296 l 1010 565 l 710 565 l 631 0 l 425 0 l 428 93 q 342 6 389 36 q 229 -25 294 -25 q 76 48 129 -25 q 24 254 24 121 q 60 495 24 378 q 172 689 97 613 q 353 765 246 765 q 496 699 443 765 l 546 1056 l 775 1032 l 733 739 l 1285 739 l 1263 579 m 475 551 q 403 593 449 593 q 322 538 354 593 q 276 405 290 483 q 261 256 261 326 q 276 170 261 194 q 318 146 290 146 q 433 253 369 146 l 475 551 z "},"ɗ":{"ha":742,"x_min":24,"x_max":967,"o":"m 794 1056 q 967 1003 899 1056 l 882 861 q 810 883 846 883 q 765 865 781 883 q 743 807 750 847 l 733 739 l 631 0 l 425 0 l 428 93 q 342 6 389 36 q 229 -25 294 -25 q 76 47 129 -25 q 24 254 24 119 q 60 495 24 378 q 172 689 96 613 q 357 765 247 765 q 496 699 443 765 l 501 739 l 510 806 q 599 986 525 917 q 794 1056 672 1056 m 475 550 q 443 583 460 572 q 403 593 426 593 q 322 538 354 593 q 276 405 290 483 q 261 256 261 326 q 276 170 261 194 q 319 146 290 146 q 433 253 369 146 l 475 550 z "},"ḏ":{"ha":742,"x_min":24,"x_max":775,"o":"m 775 1032 l 631 0 l 425 0 l 428 93 q 342 6 389 36 q 229 -25 294 -25 q 76 48 129 -25 q 24 254 24 121 q 60 495 24 378 q 172 689 97 613 q 353 765 246 765 q 496 699 443 765 l 546 1056 l 775 1032 m 403 593 q 322 538 354 593 q 276 405 290 483 q 261 256 261 326 q 276 170 261 194 q 318 146 290 146 q 433 253 369 146 l 475 551 q 403 593 449 593 m 132 -107 l 525 -107 l 501 -269 l 108 -269 l 132 -107 z "},"ɖ":{"ha":749,"x_min":24,"x_max":822,"o":"m 822 -253 q 624 -310 738 -310 q 452 -253 514 -310 q 390 -90 390 -197 q 393 -43 390 -76 l 399 0 l 410 75 q 336 3 382 32 q 229 -25 290 -25 q 76 47 129 -25 q 24 254 24 119 q 60 495 24 378 q 172 689 96 613 q 357 765 247 765 q 496 699 443 765 l 546 1056 l 775 1032 l 631 0 l 622 -68 q 621 -86 621 -74 q 635 -126 621 -112 q 676 -140 650 -140 q 719 -135 701 -140 q 763 -115 738 -129 l 822 -253 m 319 146 q 433 253 369 146 l 475 550 q 443 583 460 572 q 403 593 426 593 q 322 538 354 593 q 276 405 290 483 q 261 256 261 326 q 276 170 261 194 q 319 146 290 146 z "},"ƌ":{"ha":742,"x_min":22,"x_max":775,"o":"m 631 0 l 424 0 l 426 93 q 229 -25 349 -25 q 75 47 128 -25 q 22 254 22 119 q 58 485 22 372 q 169 670 94 597 q 350 743 243 743 q 493 676 442 743 l 518 864 l 263 864 l 286 1032 l 775 1032 l 631 0 m 472 528 q 440 562 457 551 q 400 572 424 572 q 322 520 353 572 q 276 394 290 468 q 261 256 261 321 q 276 170 261 194 q 318 146 290 146 q 433 253 369 146 l 472 528 z "},"ǳ":{"ha":1319,"x_min":24,"x_max":1347,"o":"m 775 1032 l 631 0 l 425 0 l 428 93 q 342 6 389 36 q 229 -25 294 -25 q 76 48 129 -25 q 24 254 24 121 q 60 495 24 378 q 172 689 97 613 q 353 765 246 765 q 496 699 443 765 l 546 1056 l 775 1032 m 403 593 q 322 538 354 593 q 276 405 290 483 q 261 256 261 326 q 276 170 261 194 q 318 146 290 146 q 433 253 369 146 l 475 551 q 403 593 449 593 m 1347 739 l 1325 574 l 1004 178 l 1279 178 l 1233 0 l 700 0 l 722 167 l 1043 564 l 801 564 l 828 739 l 1347 739 z "},"ʣ":{"ha":1249,"x_min":24,"x_max":1275,"o":"m 1253 574 l 929 178 l 1207 178 l 1161 0 l 425 0 l 428 93 q 342 6 389 36 q 229 -25 294 -25 q 76 48 129 -25 q 24 254 24 121 q 60 495 24 378 q 172 689 97 613 q 353 765 246 765 q 496 699 443 765 l 546 1056 l 775 1032 l 733 739 l 1275 739 l 1253 574 m 475 551 q 403 593 449 593 q 322 538 354 593 q 276 405 290 483 q 261 256 261 326 q 276 170 261 194 q 318 146 290 146 q 433 253 369 146 l 475 551 m 653 163 l 975 564 l 710 564 l 653 163 z "},"ǆ":{"ha":1319,"x_min":24,"x_max":1378,"o":"m 775 1032 l 631 0 l 425 0 l 428 93 q 342 6 389 36 q 229 -25 294 -25 q 76 48 129 -25 q 24 254 24 121 q 60 495 24 378 q 172 689 97 613 q 353 765 246 765 q 496 699 443 765 l 546 1056 l 775 1032 m 403 593 q 322 538 354 593 q 276 405 290 483 q 261 256 261 326 q 276 170 261 194 q 318 146 290 146 q 433 253 369 146 l 475 551 q 403 593 449 593 m 1347 739 l 1325 574 l 1004 178 l 1279 178 l 1233 0 l 700 0 l 722 167 l 1043 564 l 801 564 l 828 739 l 1347 739 m 1303 1135 l 1378 1042 l 1172 846 l 1032 846 l 882 1042 l 968 1135 l 1117 1004 l 1303 1135 z "},"ʥ":{"ha":1392,"x_min":24,"x_max":1393,"o":"m 1240 382 q 1351 343 1308 382 q 1393 233 1393 304 q 1314 58 1393 117 q 1104 0 1235 -1 l 1110 18 l 1101 0 l 1088 0 q 1056 -182 1074 -53 l 931 -178 q 963 0 950 -49 l 425 0 l 428 93 q 342 6 389 36 q 229 -25 294 -25 q 76 48 129 -25 q 24 254 24 121 q 60 495 24 378 q 172 689 97 613 q 353 765 246 765 q 496 699 443 765 l 546 1056 l 775 1032 l 733 739 l 1275 739 l 1254 588 l 915 178 l 1014 178 q 1113 335 1058 289 q 1240 382 1167 382 m 475 551 q 403 593 449 593 q 322 538 354 593 q 276 405 290 483 q 261 256 261 326 q 276 170 261 194 q 318 146 290 146 q 433 253 369 146 l 475 551 m 710 564 l 654 171 l 979 564 l 710 564 m 1163 178 q 1242 232 1242 178 q 1214 263 1242 263 q 1138 178 1169 263 l 1163 178 z "},"e":{"ha":688,"x_min":25,"x_max":688,"o":"m 431 765 q 619 708 550 765 q 688 563 688 651 q 256 267 688 313 l 256 265 q 282 175 256 203 q 358 147 308 147 q 437 163 399 147 q 525 213 475 178 l 606 76 q 319 -25 476 -25 q 101 53 178 -25 q 25 274 25 131 q 68 513 25 400 q 202 695 111 625 q 431 765 293 765 m 268 407 q 414 458 369 415 q 458 556 458 500 q 406 610 458 610 q 319 552 353 610 q 268 407 285 494 z "},"é":{"ha":688,"x_min":25,"x_max":688,"o":"m 431 765 q 619 708 550 765 q 688 563 688 651 q 256 267 688 313 l 256 265 q 282 175 256 203 q 358 147 308 147 q 437 163 399 147 q 525 213 475 178 l 606 76 q 319 -25 476 -25 q 101 53 178 -25 q 25 274 25 131 q 68 513 25 400 q 202 695 111 625 q 431 765 293 765 m 268 407 q 414 458 369 415 q 458 556 458 500 q 406 610 458 610 q 319 552 353 610 q 268 407 285 494 m 563 1164 l 638 993 l 314 861 l 258 975 l 563 1164 z "},"ĕ":{"ha":688,"x_min":25,"x_max":688,"o":"m 431 765 q 619 708 550 765 q 688 563 688 651 q 256 267 688 313 l 256 265 q 282 175 256 203 q 358 147 308 147 q 437 163 399 147 q 525 213 475 178 l 606 76 q 319 -25 476 -25 q 101 53 178 -25 q 25 274 25 131 q 68 513 25 400 q 202 695 111 625 q 431 765 293 765 m 268 407 q 414 458 369 415 q 458 556 458 500 q 406 610 458 610 q 319 552 353 610 q 268 407 285 494 m 432 875 q 285 938 335 875 q 235 1100 235 1001 l 236 1128 l 358 1146 q 383 1067 361 1094 q 444 1039 404 1039 q 517 1068 486 1039 q 564 1149 547 1097 l 682 1122 q 597 944 661 1014 q 432 875 532 875 z "},"ě":{"ha":688,"x_min":25,"x_max":706,"o":"m 431 765 q 619 708 550 765 q 688 563 688 651 q 256 267 688 313 l 256 265 q 282 175 256 203 q 358 147 308 147 q 437 163 399 147 q 525 213 475 178 l 606 76 q 319 -25 476 -25 q 101 53 178 -25 q 25 274 25 131 q 68 513 25 400 q 202 695 111 625 q 431 765 293 765 m 268 407 q 414 458 369 415 q 458 556 458 500 q 406 610 458 610 q 319 552 353 610 q 268 407 285 494 m 631 1135 l 706 1042 l 500 846 l 360 846 l 210 1042 l 296 1135 l 444 1004 l 631 1135 z "},"ȩ":{"ha":688,"x_min":25,"x_max":688,"o":"m 431 765 q 619 708 550 765 q 688 563 688 651 q 256 267 688 313 l 256 265 q 282 175 256 203 q 358 147 308 147 q 437 163 399 147 q 525 213 475 178 l 606 76 q 381 -21 500 -6 l 372 -68 q 460 -106 431 -75 q 490 -190 490 -137 q 469 -273 490 -232 q 398 -342 447 -314 q 271 -369 349 -369 q 188 -357 225 -369 q 125 -324 150 -344 l 190 -224 q 265 -243 226 -243 q 310 -233 293 -243 q 328 -200 326 -222 q 303 -168 328 -178 q 218 -158 278 -158 l 253 -19 q 83 74 142 -1 q 25 274 25 149 q 68 513 25 400 q 202 695 111 625 q 431 765 293 765 m 268 407 q 414 458 369 415 q 458 556 458 500 q 406 610 458 610 q 319 552 353 610 q 268 407 285 494 z "},"ê":{"ha":688,"x_min":25,"x_max":696,"o":"m 431 765 q 619 708 550 765 q 688 563 688 651 q 256 267 688 313 l 256 265 q 282 175 256 203 q 358 147 308 147 q 437 163 399 147 q 525 213 475 178 l 606 76 q 319 -25 476 -25 q 101 53 178 -25 q 25 274 25 131 q 68 513 25 400 q 202 695 111 625 q 431 765 293 765 m 268 407 q 414 458 369 415 q 458 556 458 500 q 406 610 458 610 q 319 552 353 610 q 268 407 285 494 m 269 860 l 194 953 l 400 1149 l 539 1149 l 696 947 l 600 860 l 453 990 l 269 860 z "},"ế":{"ha":688,"x_min":25,"x_max":889,"o":"m 889 1226 l 650 1024 l 571 1099 l 778 1346 l 889 1226 m 438 932 l 257 813 l 178 906 l 383 1090 l 522 1090 l 679 900 l 589 813 l 438 932 m 431 765 q 619 708 550 765 q 688 563 688 651 q 256 267 688 313 l 256 265 q 282 175 256 203 q 358 147 308 147 q 437 163 399 147 q 525 213 475 178 l 606 76 q 319 -25 476 -25 q 101 53 178 -25 q 25 274 25 131 q 68 513 25 400 q 202 695 111 625 q 431 765 293 765 m 268 407 q 414 458 369 415 q 458 556 458 500 q 406 610 458 610 q 319 552 353 610 q 268 407 285 494 z "},"ệ":{"ha":688,"x_min":25,"x_max":696,"o":"m 431 765 q 619 708 550 765 q 688 563 688 651 q 256 267 688 313 l 256 265 q 282 175 256 203 q 358 147 308 147 q 437 163 399 147 q 525 213 475 178 l 606 76 q 319 -25 476 -25 q 101 53 178 -25 q 25 274 25 131 q 68 513 25 400 q 202 695 111 625 q 431 765 293 765 m 268 407 q 414 458 369 415 q 458 556 458 500 q 406 610 458 610 q 319 552 353 610 q 268 407 285 494 m 269 860 l 194 953 l 400 1149 l 539 1149 l 696 947 l 600 860 l 453 990 l 269 860 m 303 -81 q 390 -112 358 -81 q 422 -194 422 -143 q 379 -301 422 -258 q 274 -343 336 -343 q 186 -312 218 -343 q 154 -229 154 -281 q 197 -123 154 -165 q 303 -81 240 -81 z "},"ề":{"ha":688,"x_min":25,"x_max":688,"o":"m 329 1092 l 233 1024 l 53 1235 l 192 1343 l 329 1092 m 258 813 l 179 906 l 385 1090 l 524 1090 l 681 900 l 590 813 l 439 932 l 258 813 m 431 765 q 619 708 550 765 q 688 563 688 651 q 256 267 688 313 l 256 265 q 282 175 256 203 q 358 147 308 147 q 437 163 399 147 q 525 213 475 178 l 606 76 q 319 -25 476 -25 q 101 53 178 -25 q 25 274 25 131 q 68 513 25 400 q 202 695 111 625 q 431 765 293 765 m 268 407 q 414 458 369 415 q 458 556 458 500 q 406 610 458 610 q 319 552 353 610 q 268 407 285 494 z "},"ể":{"ha":688,"x_min":25,"x_max":858,"o":"m 431 765 q 619 708 550 765 q 688 563 688 651 q 256 267 688 313 l 256 265 q 282 175 256 203 q 358 147 308 147 q 437 163 399 147 q 525 213 475 178 l 606 76 q 319 -25 476 -25 q 101 53 178 -25 q 25 274 25 131 q 68 513 25 400 q 202 695 111 625 q 431 765 293 765 m 268 407 q 414 458 369 415 q 458 556 458 500 q 406 610 458 610 q 319 552 353 610 q 268 407 285 494 m 256 813 l 176 906 l 382 1090 l 521 1090 l 678 900 l 588 813 l 436 932 l 256 813 m 610 1196 q 683 1213 660 1199 q 706 1256 706 1226 q 696 1281 706 1274 q 664 1289 686 1289 q 589 1271 632 1289 l 565 1368 q 704 1403 628 1403 q 818 1366 778 1403 q 858 1269 858 1329 q 825 1176 858 1211 q 732 1128 792 1140 l 722 1057 l 592 1057 l 610 1196 z "},"ễ":{"ha":688,"x_min":25,"x_max":728,"o":"m 406 1181 q 369 1167 385 1181 q 332 1124 353 1153 l 232 1178 q 315 1290 267 1246 q 418 1333 364 1333 q 465 1324 446 1333 q 508 1300 485 1315 q 557 1278 538 1278 q 590 1290 575 1278 q 626 1332 606 1303 l 728 1281 q 644 1167 693 1211 q 542 1124 594 1124 q 501 1132 519 1124 q 457 1157 482 1140 q 428 1175 440 1169 q 406 1181 417 1181 m 436 928 l 256 808 l 176 901 l 382 1086 l 521 1086 l 678 896 l 588 808 l 436 928 m 431 765 q 619 708 550 765 q 688 563 688 651 q 256 267 688 313 l 256 265 q 282 175 256 203 q 358 147 308 147 q 437 163 399 147 q 525 213 475 178 l 606 76 q 319 -25 476 -25 q 101 53 178 -25 q 25 274 25 131 q 68 513 25 400 q 202 695 111 625 q 431 765 293 765 m 268 407 q 414 458 369 415 q 458 556 458 500 q 406 610 458 610 q 319 552 353 610 q 268 407 285 494 z "},"ȅ":{"ha":688,"x_min":25,"x_max":688,"o":"m 431 765 q 619 708 550 765 q 688 563 688 651 q 256 267 688 313 l 256 265 q 282 175 256 203 q 358 147 308 147 q 437 163 399 147 q 525 213 475 178 l 606 76 q 319 -25 476 -25 q 101 53 178 -25 q 25 274 25 131 q 68 513 25 400 q 202 695 111 625 q 431 765 293 765 m 268 407 q 414 458 369 415 q 458 556 458 500 q 406 610 458 610 q 319 552 353 610 q 268 407 285 494 m 314 1201 l 403 919 l 278 867 l 151 1131 l 314 1201 m 543 1201 l 621 918 l 496 872 l 379 1136 l 543 1201 z "},"ë":{"ha":688,"x_min":25,"x_max":717,"o":"m 431 765 q 619 708 550 765 q 688 563 688 651 q 256 267 688 313 l 256 265 q 282 175 256 203 q 358 147 308 147 q 437 163 399 147 q 525 213 475 178 l 606 76 q 319 -25 476 -25 q 101 53 178 -25 q 25 274 25 131 q 68 513 25 400 q 202 695 111 625 q 431 765 293 765 m 268 407 q 414 458 369 415 q 458 556 458 500 q 406 610 458 610 q 319 552 353 610 q 268 407 285 494 m 288 888 q 213 915 240 888 q 185 988 185 943 q 222 1080 185 1043 q 314 1117 260 1117 q 389 1090 361 1117 q 417 1017 417 1063 q 379 924 417 961 q 288 888 342 888 m 588 888 q 513 915 540 888 q 485 988 485 943 q 522 1080 485 1043 q 614 1117 560 1117 q 689 1090 661 1117 q 717 1017 717 1063 q 679 924 717 961 q 588 888 642 888 z "},"ė":{"ha":688,"x_min":25,"x_max":688,"o":"m 431 765 q 619 708 550 765 q 688 563 688 651 q 256 267 688 313 l 256 265 q 282 175 256 203 q 358 147 308 147 q 437 163 399 147 q 525 213 475 178 l 606 76 q 319 -25 476 -25 q 101 53 178 -25 q 25 274 25 131 q 68 513 25 400 q 202 695 111 625 q 431 765 293 765 m 268 407 q 414 458 369 415 q 458 556 458 500 q 406 610 458 610 q 319 552 353 610 q 268 407 285 494 m 438 871 q 350 902 382 871 q 318 985 318 933 q 361 1091 318 1049 q 467 1133 404 1133 q 554 1102 522 1133 q 586 1019 586 1071 q 543 913 586 956 q 438 871 500 871 z "},"ẹ":{"ha":688,"x_min":25,"x_max":688,"o":"m 431 765 q 619 708 550 765 q 688 563 688 651 q 256 267 688 313 l 256 265 q 282 175 256 203 q 358 147 308 147 q 437 163 399 147 q 525 213 475 178 l 606 76 q 319 -25 476 -25 q 101 53 178 -25 q 25 274 25 131 q 68 513 25 400 q 202 695 111 625 q 431 765 293 765 m 268 407 q 414 458 369 415 q 458 556 458 500 q 406 610 458 610 q 319 552 353 610 q 268 407 285 494 m 303 -81 q 390 -112 358 -81 q 422 -194 422 -143 q 379 -301 422 -258 q 274 -343 336 -343 q 186 -312 218 -343 q 154 -229 154 -281 q 197 -123 154 -165 q 303 -81 240 -81 z "},"è":{"ha":688,"x_min":25,"x_max":688,"o":"m 431 765 q 619 708 550 765 q 688 563 688 651 q 256 267 688 313 l 256 265 q 282 175 256 203 q 358 147 308 147 q 437 163 399 147 q 525 213 475 178 l 606 76 q 319 -25 476 -25 q 101 53 178 -25 q 25 274 25 131 q 68 513 25 400 q 202 695 111 625 q 431 765 293 765 m 268 407 q 414 458 369 415 q 458 556 458 500 q 406 610 458 610 q 319 552 353 610 q 268 407 285 494 m 385 1163 l 643 971 l 576 864 l 283 993 l 385 1163 z "},"ẻ":{"ha":688,"x_min":25,"x_max":688,"o":"m 431 765 q 619 708 550 765 q 688 563 688 651 q 256 267 688 313 l 256 265 q 282 175 256 203 q 358 147 308 147 q 437 163 399 147 q 525 213 475 178 l 606 76 q 319 -25 476 -25 q 101 53 178 -25 q 25 274 25 131 q 68 513 25 400 q 202 695 111 625 q 431 765 293 765 m 268 407 q 414 458 369 415 q 458 556 458 500 q 406 610 458 610 q 319 552 353 610 q 268 407 285 494 m 382 978 q 455 994 432 981 q 478 1038 478 1008 q 468 1063 478 1056 q 436 1071 458 1071 q 361 1053 404 1071 l 338 1150 q 476 1185 400 1185 q 590 1148 550 1185 q 631 1051 631 1111 q 597 958 631 993 q 504 910 564 922 l 494 839 l 364 839 l 382 978 z "},"ȇ":{"ha":688,"x_min":25,"x_max":688,"o":"m 431 765 q 619 708 550 765 q 688 563 688 651 q 256 267 688 313 l 256 265 q 282 175 256 203 q 358 147 308 147 q 437 163 399 147 q 525 213 475 178 l 606 76 q 319 -25 476 -25 q 101 53 178 -25 q 25 274 25 131 q 68 513 25 400 q 202 695 111 625 q 431 765 293 765 m 268 407 q 414 458 369 415 q 458 556 458 500 q 406 610 458 610 q 319 552 353 610 q 268 407 285 494 m 204 856 q 295 1035 229 965 q 464 1104 361 1104 q 617 1033 568 1104 q 660 853 667 961 l 533 835 q 447 940 526 940 q 326 831 365 940 l 204 856 z "},"ē":{"ha":688,"x_min":25,"x_max":688,"o":"m 431 765 q 619 708 550 765 q 688 563 688 651 q 256 267 688 313 l 256 265 q 282 175 256 203 q 358 147 308 147 q 437 163 399 147 q 525 213 475 178 l 606 76 q 319 -25 476 -25 q 101 53 178 -25 q 25 274 25 131 q 68 513 25 400 q 202 695 111 625 q 431 765 293 765 m 268 407 q 414 458 369 415 q 458 556 458 500 q 406 610 458 610 q 319 552 353 610 q 268 407 285 494 m 635 907 l 242 907 l 265 1069 l 658 1069 l 635 907 z "},"ę":{"ha":688,"x_min":25,"x_max":688,"o":"m 431 765 q 619 708 550 765 q 688 563 688 651 q 256 267 688 313 l 256 265 q 282 175 256 203 q 358 147 308 147 q 437 163 399 147 q 525 213 475 178 l 606 76 q 461 -3 539 24 q 335 -140 335 -61 q 390 -187 335 -187 q 469 -176 425 -187 l 436 -319 q 344 -331 392 -331 q 216 -292 265 -331 q 167 -186 167 -253 q 271 -22 167 -85 q 88 67 151 -8 q 25 274 25 143 q 68 513 25 400 q 202 695 111 625 q 431 765 293 765 m 268 407 q 414 458 369 415 q 458 556 458 500 q 406 610 458 610 q 319 552 353 610 q 268 407 285 494 z "},"ɛ":{"ha":622,"x_min":10,"x_max":629,"o":"m 286 -25 q 87 33 164 -25 q 10 194 10 92 q 66 332 10 279 q 225 394 122 385 q 85 546 85 426 q 121 660 85 611 q 223 738 157 710 q 375 765 289 765 q 516 741 450 765 q 629 668 582 717 l 525 557 q 400 603 461 603 q 335 581 358 603 q 313 522 313 560 q 332 472 313 490 q 392 453 351 453 l 464 453 l 419 304 l 356 304 q 272 281 299 304 q 246 215 246 257 q 269 161 246 181 q 336 142 292 142 q 408 155 372 142 q 490 197 444 168 l 567 68 q 441 -1 514 24 q 286 -25 368 -25 z "},"ʚ":{"ha":725,"x_min":8,"x_max":697,"o":"m 292 -25 q 87 32 165 -25 q 8 193 8 89 q 65 331 8 278 q 224 394 122 385 q 89 538 89 426 q 126 653 89 601 q 234 735 164 706 q 397 765 304 765 q 619 683 542 765 q 697 456 697 600 q 592 103 697 232 q 292 -25 488 -25 m 319 142 q 438 238 401 142 q 474 458 474 333 q 453 569 474 536 q 390 603 432 603 q 335 581 354 603 q 315 519 315 558 q 382 453 315 453 l 407 453 l 363 304 l 347 304 q 269 278 294 304 q 244 211 244 253 q 263 160 244 178 q 319 142 282 142 z "},"ɜ":{"ha":621,"x_min":-29,"x_max":592,"o":"m 347 765 q 524 715 457 765 q 592 581 592 664 q 543 458 592 508 q 400 392 494 408 q 527 341 485 383 q 569 229 569 299 q 534 106 569 164 q 424 11 499 47 q 236 -25 350 -25 q -29 67 74 -25 l 83 197 q 157 154 124 167 q 228 142 190 142 q 306 168 279 142 q 332 239 332 194 q 311 288 332 272 q 247 304 290 304 l 147 304 l 185 453 l 251 453 q 328 478 301 453 q 356 543 356 503 q 292 603 356 603 q 225 592 256 603 q 154 557 194 581 l 68 679 q 347 765 193 765 z "},"ɞ":{"ha":719,"x_min":26,"x_max":692,"o":"m 328 -25 q 103 53 181 -25 q 26 275 26 131 q 76 534 26 424 q 217 705 125 644 q 433 765 310 765 q 619 714 547 765 q 692 578 692 663 q 644 458 692 506 q 508 393 597 410 q 629 341 589 383 q 669 231 669 299 q 635 106 669 164 q 523 12 600 49 q 328 -25 446 -25 m 338 142 q 413 169 389 142 q 438 242 438 196 q 418 289 438 274 q 356 304 399 304 l 319 304 l 360 453 l 369 453 q 435 477 411 453 q 458 544 458 501 q 401 603 458 603 q 288 502 325 603 q 250 268 250 401 q 271 171 250 200 q 338 142 292 142 z "},"ɝ":{"ha":963,"x_min":-29,"x_max":993,"o":"m 993 475 q 829 425 921 425 q 699 467 743 425 q 649 579 656 508 l 647 597 l 590 564 q 537 453 585 497 q 400 392 489 408 q 527 341 485 383 q 569 229 569 299 q 534 106 569 164 q 424 11 499 47 q 236 -25 350 -25 q -29 67 74 -25 l 83 197 q 157 154 124 167 q 228 142 190 142 q 306 168 279 142 q 332 239 332 194 q 311 288 332 272 q 247 304 290 304 l 147 304 l 185 453 l 251 453 q 328 478 301 453 q 356 543 356 503 q 292 603 356 603 q 225 592 256 603 q 154 557 194 581 l 68 679 q 347 765 193 765 q 471 744 417 765 q 557 683 525 722 l 656 739 l 843 739 l 831 649 q 829 632 829 643 q 842 596 829 608 q 878 583 856 583 q 912 588 897 583 q 950 601 926 592 l 993 475 z "},"ɘ":{"ha":694,"x_min":6,"x_max":667,"o":"m 367 765 q 595 678 524 765 q 667 451 667 590 q 619 201 667 308 q 479 34 571 93 q 263 -25 388 -25 q 6 81 106 -25 l 114 204 q 185 161 151 175 q 263 147 219 147 q 413 267 371 147 q 144 333 239 279 q 49 501 49 386 q 87 635 49 575 q 197 730 125 694 q 367 765 269 765 m 283 507 q 318 438 283 464 q 438 406 353 411 q 439 475 439 428 q 420 576 439 542 q 360 610 401 610 q 304 583 325 610 q 283 507 283 556 z "},"ʃ":{"ha":353,"x_min":-251,"x_max":576,"o":"m 404 1056 q 576 1003 508 1056 l 492 861 q 419 883 456 883 q 375 865 390 883 q 353 807 360 847 l 343 739 l 240 0 l 233 -50 q 134 -244 214 -179 q -68 -310 54 -310 q -251 -249 -178 -310 l -157 -114 q -115 -135 -132 -129 q -76 -140 -99 -140 q -25 -122 -44 -140 q -1 -67 -6 -103 l 8 0 l 111 739 l 119 806 q 208 986 135 917 q 404 1056 282 1056 z "},"ʆ":{"ha":450,"x_min":-157,"x_max":674,"o":"m 501 1056 q 674 1003 606 1056 l 589 861 q 517 883 553 883 q 472 865 488 883 q 450 807 457 847 l 440 739 l 338 8 l 335 -11 q 442 -61 389 -26 l 393 -154 q 308 -118 336 -128 q 204 -262 274 -214 q 24 -310 135 -310 q -110 -267 -62 -310 q -157 -150 -157 -224 q -100 -15 -157 -65 q 46 35 -43 35 q 110 31 89 35 l 208 739 l 217 806 q 306 986 232 917 q 501 1056 379 1056 m 15 -190 q 67 -164 49 -190 q 94 -78 86 -137 l 94 -76 q 46 -72 74 -72 q -9 -92 10 -72 q -28 -143 -28 -111 q 15 -190 -28 -190 z "},"ƪ":{"ha":561,"x_min":35,"x_max":638,"o":"m 638 -253 q 439 -310 553 -310 q 267 -253 329 -310 q 206 -90 206 -197 q 208 -43 206 -76 l 214 0 l 215 0 l 296 585 q 207 565 254 565 q 84 624 133 565 q 35 774 35 682 q 71 921 35 857 q 172 1020 107 985 q 322 1056 238 1056 q 495 994 432 1056 q 558 821 558 932 q 554 764 558 793 l 447 0 l 446 0 l 438 -68 q 436 -86 436 -74 q 451 -126 436 -112 q 492 -140 465 -140 q 535 -135 517 -140 q 578 -115 553 -129 l 638 -253 m 278 726 q 317 732 292 726 l 329 822 q 332 851 332 844 q 324 884 332 874 q 296 894 315 894 q 247 861 263 894 q 231 782 231 828 q 278 726 231 726 z "},"ʅ":{"ha":650,"x_min":29,"x_max":619,"o":"m 619 33 q 421 -24 535 -24 q 249 33 311 -24 q 188 196 188 89 q 190 243 188 210 l 196 286 l 197 286 l 221 454 l 229 522 q 231 540 231 528 q 216 581 231 567 q 175 594 201 594 q 132 589 150 594 q 89 569 114 583 l 29 707 q 228 764 115 764 q 399 708 338 764 q 461 544 461 651 q 458 497 461 531 l 453 454 l 429 286 l 428 286 l 419 218 q 418 200 418 213 q 433 160 418 174 q 474 146 447 146 q 517 151 499 146 q 560 171 535 157 l 619 33 z "},"ɇ":{"ha":688,"x_min":25,"x_max":688,"o":"m 513 757 q 642 687 596 739 q 688 563 688 635 q 590 371 688 438 q 332 279 492 304 l 288 161 q 358 147 314 147 q 437 163 399 147 q 525 213 475 178 l 606 76 q 324 -25 475 -25 q 222 -14 271 -25 l 188 -104 l 117 -85 l 154 14 q 58 115 92 49 q 25 272 25 181 q 68 513 25 400 q 202 695 111 625 q 431 765 293 765 l 438 765 l 464 836 l 535 815 l 513 757 m 382 618 q 296 542 328 603 q 250 394 264 481 q 300 400 283 397 l 382 618 m 386 422 q 481 557 481 463 q 457 611 481 596 l 386 422 m 250 268 l 239 267 l 239 265 q 240 242 239 250 l 250 268 z "},"ẽ":{"ha":688,"x_min":25,"x_max":703,"o":"m 431 765 q 619 708 550 765 q 688 563 688 651 q 256 267 688 313 l 256 265 q 282 175 256 203 q 358 147 308 147 q 437 163 399 147 q 525 213 475 178 l 606 76 q 319 -25 476 -25 q 101 53 178 -25 q 25 274 25 131 q 68 513 25 400 q 202 695 111 625 q 431 765 293 765 m 268 407 q 414 458 369 415 q 458 556 458 500 q 406 610 458 610 q 319 552 353 610 q 268 407 285 494 m 514 876 q 472 886 490 876 q 428 913 453 896 q 413 923 424 915 q 392 934 401 931 q 375 938 383 938 q 338 923 354 938 q 301 876 322 908 l 199 935 q 284 1057 235 1010 q 388 1104 333 1104 q 436 1094 415 1104 q 481 1067 457 1085 q 507 1049 496 1054 q 529 1043 518 1043 q 565 1058 549 1043 q 600 1103 581 1072 l 703 1046 q 617 924 667 971 q 514 876 567 876 z "},"ǝ":{"ha":688,"x_min":0,"x_max":663,"o":"m 368 764 q 586 686 510 764 q 663 465 663 608 q 619 226 663 339 q 485 44 576 114 q 257 -26 394 -26 q 69 31 138 -26 q 0 176 0 88 q 432 472 0 426 l 432 474 q 406 564 432 536 q 329 592 379 592 q 251 576 289 592 q 163 526 213 561 l 82 663 q 368 764 211 764 m 282 129 q 369 187 335 129 q 419 332 403 244 q 274 281 318 324 q 229 183 229 239 q 282 129 229 129 z "},"ə":{"ha":688,"x_min":0,"x_max":663,"o":"m 368 764 q 586 686 510 764 q 663 465 663 608 q 619 226 663 339 q 485 44 576 114 q 257 -26 394 -26 q 69 31 138 -26 q 0 176 0 88 q 432 472 0 426 l 432 474 q 406 564 432 536 q 329 592 379 592 q 251 576 289 592 q 163 526 213 561 l 82 663 q 368 764 211 764 m 282 129 q 369 187 335 129 q 419 332 403 244 q 274 281 318 324 q 229 183 229 239 q 282 129 229 129 z "},"ɚ":{"ha":1044,"x_min":0,"x_max":1075,"o":"m 1075 475 q 911 425 1003 425 q 781 467 825 425 q 731 579 738 508 l 729 597 l 654 551 q 663 461 663 510 q 617 224 661 335 q 483 43 574 113 q 257 -26 393 -26 q 69 31 138 -26 q 0 176 0 88 q 432 472 0 426 l 432 474 q 406 564 432 536 q 329 592 379 592 q 251 576 289 592 q 163 526 213 561 l 82 663 q 369 764 211 764 q 508 738 449 764 q 606 664 568 713 l 738 739 l 925 739 l 913 649 q 911 632 911 643 q 924 596 911 608 q 960 583 938 583 q 994 588 979 583 q 1032 601 1008 592 l 1075 475 m 282 129 q 369 187 335 129 q 419 332 403 244 q 274 281 318 324 q 229 183 229 239 q 282 129 229 129 z "},"ʒ":{"ha":643,"x_min":-97,"x_max":633,"o":"m 611 579 l 354 293 q 524 224 467 282 q 582 61 582 165 q 531 -135 582 -51 q 390 -265 479 -219 q 190 -311 301 -311 q -97 -164 -1 -311 l 40 -50 q 114 -112 79 -93 q 193 -132 149 -132 q 303 -82 261 -132 q 344 57 344 -32 q 315 139 344 115 q 225 163 285 163 l 103 163 l 121 296 l 358 565 l 57 565 l 82 739 l 633 739 l 611 579 z "},"ǯ":{"ha":643,"x_min":-97,"x_max":649,"o":"m 611 579 l 354 293 q 524 224 467 282 q 582 61 582 165 q 531 -135 582 -51 q 390 -265 479 -219 q 190 -311 301 -311 q -97 -164 -1 -311 l 40 -50 q 114 -112 79 -93 q 193 -132 149 -132 q 303 -82 261 -132 q 344 57 344 -32 q 315 139 344 115 q 225 163 285 163 l 103 163 l 121 296 l 358 565 l 57 565 l 82 739 l 633 739 l 611 579 m 574 1135 l 649 1042 l 443 846 l 303 846 l 153 1042 l 239 1135 l 388 1004 l 574 1135 z "},"ʓ":{"ha":643,"x_min":-90,"x_max":635,"o":"m 613 579 l 361 304 q 526 234 468 293 q 583 69 583 175 q 515 -152 583 -60 q 325 -283 446 -244 l 350 -367 l 235 -406 l 210 -307 q 150 -310 171 -310 q -25 -259 40 -310 q -90 -117 -90 -208 q -65 -10 -90 -56 q 3 58 -39 35 q 94 82 46 82 q 203 41 164 82 q 269 -100 242 0 l 269 -103 q 346 65 346 -57 q 315 148 346 124 q 219 172 285 172 l 103 172 l 104 174 l 121 300 l 361 565 l 58 565 l 82 739 l 635 739 l 613 579 m 64 -83 q 83 -119 64 -107 q 150 -131 101 -131 l 165 -131 q 138 -57 150 -76 q 103 -37 125 -37 q 74 -50 85 -37 q 64 -83 64 -62 z "},"ƹ":{"ha":646,"x_min":-39,"x_max":664,"o":"m 638 565 l 324 565 l 500 292 l 482 163 l 479 164 l 481 163 l 360 163 q 244 117 286 163 q 203 -10 203 72 q 231 -101 203 -71 q 308 -131 258 -131 q 397 -111 354 -131 q 489 -47 439 -92 l 592 -168 q 269 -310 465 -310 q 43 -232 125 -310 q -39 -26 -39 -154 q 47 199 -39 113 q 282 297 132 286 l 89 579 l 111 739 l 664 739 l 638 565 z "},"ƺ":{"ha":643,"x_min":-35,"x_max":626,"o":"m 149 -311 q 15 -230 64 -279 q -35 -115 -35 -181 q 26 18 -35 -29 q 206 96 88 65 q 326 140 292 117 q 360 204 360 164 q 340 246 360 233 q 274 258 321 258 l 119 258 l 138 382 l 344 575 l 50 575 l 75 739 l 626 739 l 606 589 l 381 389 l 397 389 q 543 342 490 389 q 596 213 596 296 q 523 38 596 99 q 319 -56 450 -24 q 225 -83 257 -71 q 183 -106 193 -94 q 172 -132 172 -117 q 182 -160 172 -147 q 213 -185 192 -172 l 149 -311 z "},"f":{"ha":453,"x_min":-114,"x_max":649,"o":"m 472 885 q 411 861 433 885 q 381 785 389 838 l 374 739 l 529 739 l 481 576 l 351 576 l 285 88 q 220 -112 268 -35 q 105 -232 172 -189 q -60 -310 38 -275 l -114 -140 q 1 -64 -36 -110 q 53 78 39 -18 l 121 576 l 31 576 l 53 739 l 143 739 l 151 799 q 244 985 167 914 q 450 1057 321 1057 q 649 994 563 1057 l 567 857 q 472 885 521 885 z "},"ḟ":{"ha":453,"x_min":-114,"x_max":649,"o":"m 472 885 q 411 861 433 885 q 381 785 389 838 l 374 739 l 529 739 l 481 576 l 351 576 l 285 88 q 220 -112 268 -35 q 105 -232 172 -189 q -60 -310 38 -275 l -114 -140 q 1 -64 -36 -110 q 53 78 39 -18 l 121 576 l 31 576 l 53 739 l 143 739 l 151 799 q 244 985 167 914 q 450 1057 321 1057 q 649 994 563 1057 l 567 857 q 472 885 521 885 m 447 1114 q 360 1145 392 1114 q 328 1228 328 1176 q 371 1334 328 1292 q 476 1376 414 1376 q 564 1345 532 1376 q 596 1263 596 1314 q 553 1156 596 1199 q 447 1114 510 1114 z "},"ʩ":{"ha":1094,"x_min":-114,"x_max":1068,"o":"m 917 765 q 1028 719 988 765 q 1068 592 1068 674 q 1064 542 1068 569 l 988 0 l 981 -50 q 881 -244 961 -179 q 679 -310 801 -310 q 496 -249 569 -310 l 590 -114 q 632 -135 615 -129 q 671 -140 649 -140 q 722 -122 703 -140 q 746 -67 742 -103 l 756 0 l 824 494 q 825 521 825 504 q 799 561 825 561 q 746 524 774 561 q 682 410 718 486 l 624 0 l 392 0 l 472 576 l 351 576 l 285 88 q 220 -112 268 -35 q 105 -232 172 -189 q -60 -310 38 -275 l -114 -140 q 1 -64 -36 -110 q 53 78 39 -18 l 121 576 l 31 576 l 53 739 l 143 739 l 151 799 q 244 985 167 914 q 450 1057 321 1057 q 649 994 563 1057 l 567 857 q 472 885 521 885 q 411 861 433 885 q 381 785 389 838 l 374 739 l 697 739 l 694 621 q 794 726 738 688 q 917 765 851 765 z "},"g":{"ha":729,"x_min":-4,"x_max":719,"o":"m 438 765 q 719 689 585 765 l 629 50 q 513 -225 601 -139 q 257 -311 425 -311 q 119 -290 188 -311 q -4 -231 51 -268 l 75 -81 q 251 -133 168 -133 q 349 -103 311 -133 q 399 13 388 -72 l 410 92 q 236 0 339 0 q 80 74 135 0 q 25 274 25 147 q 67 511 25 400 q 201 694 108 622 q 438 765 293 765 m 422 599 q 301 500 342 599 q 261 274 261 401 q 276 195 261 218 q 321 172 292 172 q 428 258 371 172 l 475 590 q 422 599 449 599 z "}}}
